<svg xmlns="http://www.w3.org/2000/svg" xmlns:xlink="http://www.w3.org/1999/xlink" viewBox="0 0 500 500"><defs><clipPath id="freepik--clip-path--inject-2"><path d="M216,213.78c13.5,12.47,36,47.15,40.4,48.6S292,271.55,292,271.55s1.66,16.18-5.2,27.26c0,0-47.81-10-56.14-15.22s-23.05-15.36-23.05-15.36Z" style="fill:#E35862;stroke:#263238;stroke-linecap:round;stroke-linejoin:round"></path></clipPath><clipPath id="freepik--clip-path-2--inject-2"><path d="M153.23,192.77s-30.85,14-36.65,21,18.33,111.51,18.33,111.51l-4.09,31.76,51,8.87L189.31,345l6.13,21.23,28.11-12s0-130.5-7.59-140.42S180.38,194.87,153.23,192.77Z" style="fill:#E35862;stroke:#263238;stroke-linecap:round;stroke-linejoin:round"></path></clipPath><clipPath id="freepik--clip-path-3--inject-2"><path d="M116.58,213.78c-7.78,12.47-14.94,77.06-6.23,90.24s78.22-36.55,78.22-36.55A57.61,57.61,0,0,0,184.62,242l-50.39,24,.89-8.11s-6.54-30.42-13.26-38.14" style="fill:#E35862;stroke:#263238;stroke-linecap:round;stroke-linejoin:round"></path></clipPath><clipPath id="freepik--clip-path-4--inject-2"><path d="M261,131a88.66,88.66,0,0,0-3-19.08c-2.79-10.19-13.05-16.55-17.33-21.08s-1-8.4,1.9-7.74c0,0-1.9-2.07-5.17.4s-3.93,7.74,3.67,15.18,15.78,24.93,16,32.29Z" style="fill:#E35862;stroke:#263238;stroke-linecap:round;stroke-linejoin:round"></path></clipPath><clipPath id="freepik--clip-path-5--inject-2"><path d="M251.67,84a5.2,5.2,0,1,1-6.56-3.33A5.21,5.21,0,0,1,251.67,84Z" style="fill:#E35862;stroke:#263238;stroke-linecap:round;stroke-linejoin:round"></path></clipPath><clipPath id="freepik--clip-path-6--inject-2"><path d="M296.49,237.93s-23.59-26.66-26.23-31.3-11.74-52.73-11.74-52.73a24.44,24.44,0,0,0-13.36,5.68s4,59.91,6.64,63.82,33.67,45,33.67,45Z" style="fill:#E35862;stroke:#263238;stroke-linecap:round;stroke-linejoin:round"></path></clipPath><clipPath id="freepik--clip-path-7--inject-2"><path d="M284,249.45c-1.64,7.66-1.84,18-1.94,23.61-.21,13.05,10.77,46,10.77,46s21.93,8.41,44.2,9.36c0,0,10.3-33.21,15.84-54.09,2.45-9.21,4-16,3.26-16.53-32.79-24-48.21-16.22-64.7-25.67a9.94,9.94,0,0,0-3.35,4.93" style="fill:#E35862;stroke:#263238;stroke-linecap:round;stroke-linejoin:round"></path></clipPath><clipPath id="freepik--clip-path-8--inject-2"><path d="M317.29,219.86v.06a5.72,5.72,0,0,0,.16,1.28,5.38,5.38,0,0,0,4.85,4.33c3.72.51,5.48-4.33,5.48-4.33A14.45,14.45,0,0,1,317.29,219.86Z" style="fill:#757575;stroke:#263238;stroke-linecap:round;stroke-linejoin:round"></path></clipPath><clipPath id="freepik--clip-path-9--inject-2"><path d="M351.48,271.74a68.39,68.39,0,0,1-7,19.78c8.34,17.28,16.88,54.72,26.55,54.33A20.8,20.8,0,0,0,386,338.42s-17.88-72.88-29.88-80.63a36.7,36.7,0,0,0-3,4.71" style="fill:#E35862;stroke:#263238;stroke-linecap:round;stroke-linejoin:round"></path></clipPath></defs><g id="freepik--background-simple--inject-2"><path d="M67.93,167.09s-27.88,72,11.3,144.5S199.11,422.39,263.7,455.14s131.66,16.8,163.53-36.84-11.84-91.93-11.9-168.42,11.45-96.74-30-161.36-143.06-78.93-219.9-31S67.93,167.09,67.93,167.09Z" style="fill:#fff;opacity:0.7000000000000001"></path><path d="M119.38,389.91c14.36,2.15,29,1.78,43.39,3.62,36.32,4.64,59,24.72,85.16,43.74H410.3q1.76-1.83,3.42-3.73c39.51-45.45,43.72-121.67,28.43-177.06C421.65,182.21,365.21,92.08,284.4,74.8,248.67,67.16,211,73.67,180.81,94.24c-67.33,45.84-130.91,125-128.76,210.5C53.08,345.71,77,383.6,119.38,389.91Z" style="fill:#E35862"></path><path d="M119.38,389.91c14.36,2.15,29,1.78,43.39,3.62,36.32,4.64,59,24.72,85.16,43.74H410.3q1.76-1.83,3.42-3.73c39.51-45.45,43.72-121.67,28.43-177.06C421.65,182.21,365.21,92.08,284.4,74.8,248.67,67.16,211,73.67,180.81,94.24c-67.33,45.84-130.91,125-128.76,210.5C53.08,345.71,77,383.6,119.38,389.91Z" style="fill:#fff;opacity:0.7000000000000001"></path></g><g id="freepik--character-1--inject-2"><path d="M216,213.78c13.5,12.47,36,47.15,40.4,48.6S292,271.55,292,271.55s1.66,16.18-5.2,27.26c0,0-47.81-10-56.14-15.22s-23.05-15.36-23.05-15.36Z" style="fill:#E35862"></path><g style="clip-path:url(#freepik--clip-path--inject-2)"><path d="M285.47,296.27l-50.16-15.65c-4.53-6.58-16.53-33.53-16.53-33.53l-7.11-5.35,4.29-28c13.5,12.47,36,47.15,40.4,48.6S292,271.55,292,271.55l0,.29C282.8,277.71,285.47,296.27,285.47,296.27Z" style="fill:#fff;opacity:0.4"></path></g><path d="M216,213.78c13.5,12.47,36,47.15,40.4,48.6S292,271.55,292,271.55s1.66,16.18-5.2,27.26c0,0-47.81-10-56.14-15.22s-23.05-15.36-23.05-15.36Z" style="fill:none;stroke:#263238;stroke-linecap:round;stroke-linejoin:round"></path><path d="M139,328.29a792.27,792.27,0,0,0-17.14,108.86l47.76.12s5.73-26.67,10.73-37.54c0,0,1,18.52,1.7,37.42H224c2.11-84.67-5-115.77-5-115.77Z" style="fill:#E35862"></path><path d="M169.62,437.27s5.73-26.67,10.73-37.54c0,0,1,18.52,1.7,37.42" style="fill:none;stroke:#263238;stroke-linecap:round;stroke-linejoin:round"></path><path d="M224,437.15c2.11-84.67-5-115.77-5-115.77l-80,6.91a792.27,792.27,0,0,0-17.14,108.86" style="fill:none;stroke:#263238;stroke-linecap:round;stroke-linejoin:round"></path><path d="M200.46,386.85a27.37,27.37,0,0,0,3.68-3.54" style="fill:none;stroke:#263238;stroke-linecap:round;stroke-linejoin:round"></path><path d="M183.6,399.75s19.28-.47,27,4.34" style="fill:none;stroke:#263238;stroke-linecap:round;stroke-linejoin:round"></path><path d="M159.07,383.31s14,7.88,21.23,14.59" style="fill:none;stroke:#263238;stroke-linecap:round;stroke-linejoin:round"></path><path d="M167.88,406.6a53.12,53.12,0,0,1-8.81.77" style="fill:none;stroke:#263238;stroke-linecap:round;stroke-linejoin:round"></path><path d="M172.08,405.8c2.2-.48,6.08-3,8.27-6.07,0,0,5.89-2.77,16.82-10.44" style="fill:none;stroke:#263238;stroke-linecap:round;stroke-linejoin:round"></path><path d="M184.05,389.38a40.94,40.94,0,0,1-1.8,6.59" style="fill:none;stroke:#263238;stroke-linecap:round;stroke-linejoin:round"></path><path d="M185,345.73c1.11,13.1,1.48,26.62-.32,39.67" style="fill:none;stroke:#263238;stroke-linecap:round;stroke-linejoin:round"></path><path d="M191.71,367.65c-.18,4.06-.71,12.89-5.78,14" style="fill:none;stroke:#263238;stroke-linecap:round;stroke-linejoin:round"></path><path d="M191.09,348c.46,5.45.74,10.93.7,16.4" style="fill:none;stroke:#263238;stroke-linecap:round;stroke-linejoin:round"></path><path d="M153.23,192.77s-30.85,14-36.65,21,18.33,111.51,18.33,111.51l-4.09,31.76,51,8.87L189.31,345l6.13,21.23,28.11-12s0-130.5-7.59-140.42S180.38,194.87,153.23,192.77Z" style="fill:#E35862"></path><g style="clip-path:url(#freepik--clip-path-2--inject-2)"><path d="M197.05,357.2l-13.9-33.79,4,16.94-6.42,19-45.11-5.45L139,326.41h5.85L139,323.26l-1.27-7.93,49.47-35.84c8.06-6,13.75-31.18,13.75-31.18l-33.1,16.58-8.78-12.37-8.2-8.47,5.54-15.29L139,227.44,152.62,232l-5.07,12.05,8.37,9.83-14.77,6S138,234.3,134.7,232s-2.78,1.8-2.78,1.8C125.84,222.67,120.35,217.4,116,215a3.11,3.11,0,0,1,.55-1.25c5.8-7,36.65-21,36.65-21,27.15,2.1,55.13,11.1,62.73,21,6.47,8.44,7.42,104.17,7.56,132.36Z" style="fill:#fff;opacity:0.4"></path></g><path d="M153.23,192.77s-30.85,14-36.65,21,18.33,111.51,18.33,111.51l-4.09,31.76,51,8.87L189.31,345l6.13,21.23,28.11-12s0-130.5-7.59-140.42S180.38,194.87,153.23,192.77Z" style="fill:none;stroke:#263238;stroke-linecap:round;stroke-linejoin:round"></path><path d="M185.15,282.3c-14.24-18.2-34.28-38.25-34.28-38.25l5.54-15.29L139,227.44s-.26-22.42,4.61-30.08,16.75-7.52,16.75-7.52,27.92-6.41,46.42,35.6l-11.69,3.05,8.53,9.6s-7.68,42.62-21.12,58.18" style="fill:#E35862;stroke:#263238;stroke-linecap:round;stroke-linejoin:round"></path><path d="M148.12,196.85a594.65,594.65,0,0,1,38.71,77.27s21-71.48-10.11-78.86Z" style="fill:#263238"></path><path d="M154.44,174s5.06,9-1.82,23.52c0,0,11.56,6.93,25.45,4.37,0,0-3.91-9-.46-17.68S161.83,164.5,154.44,174Z" style="fill:#fff;stroke:#263238;stroke-linecap:round;stroke-linejoin:round"></path><path d="M152.52,161.46c-2.05-21.68,4.49-24.28,11.52-26.14,11.26-3,29,.73,30.6,12.83s-1.63,14.38-2.13,19.18c-.36,3.36,1.49,5.29-1.93,13.39-2.26,5.35-6,13.91-15.23,11a32,32,0,0,1-8-3.87" style="fill:#fff;stroke:#263238;stroke-linecap:round;stroke-linejoin:round"></path><path d="M181.59,154.92s-3.74-2-6.48,2.34" style="fill:none;stroke:#263238;stroke-linecap:round;stroke-linejoin:round"></path><path d="M195.09,156.05s-2.57-3.07-6,.31" style="fill:none;stroke:#263238;stroke-linecap:round;stroke-linejoin:round"></path><path d="M179.6,163.72c-.13,1-.68,1.71-1.22,1.63s-.87-.92-.74-1.9.68-1.71,1.22-1.64S179.73,162.74,179.6,163.72Z" style="fill:#263238"></path><path d="M191,164.28c-.14,1-.68,1.71-1.22,1.63s-.87-.92-.74-1.9.68-1.71,1.22-1.64S191.12,163.3,191,164.28Z" style="fill:#263238"></path><path d="M148.12,150.52c.66,2.81.4,5.46.77,8.32A56.58,56.58,0,0,0,156,179.45s1.85-13.45,9.21-15.89c0,0-.05-4.17,5.46-8.11a25.82,25.82,0,0,0-.86-6.63Z" style="fill:#263238"></path><path d="M187.72,159.62a15.42,15.42,0,0,0,1.55,10c2.68,4.57.48,5.11-3.88,3.84-3.58-1-1.63-2.4-1.63-2.4" style="fill:#fff;stroke:#263238;stroke-linecap:round;stroke-linejoin:round"></path><path d="M163.93,166.76s-2.88-7.7-7.14-6.5-2.63,10.17.49,13.45,5.6.76,5.6.76" style="fill:#fff;stroke:#263238;stroke-linecap:round;stroke-linejoin:round"></path><path d="M165.21,163.56s.46,8.4,1.94,9.79,4.17,4.08,4.17,4.08,5.52-3.28,7.43-3.45,6.58,1.52,6.58,1.52,4.74-1.19,5.6.39a8,8,0,0,0,1.7-5.08s4.3,21.71-7.66,23.33-20.6-3.66-22.17-7.94.45-23,.45-23Z" style="fill:#263238"></path><path d="M188.28,180s-8.59.53-11.56-2.13" style="fill:none;stroke:#fff;stroke-linecap:round;stroke-linejoin:round"></path><path d="M148.12,150.52s-4.22-12.59,4.9-17.29,33.91-3.89,41.84,4.28-11,12.55-11,12.55,5.4-3,6.07-5A80.14,80.14,0,0,1,148.12,150.52Z" style="fill:#263238"></path><path d="M155.38,189.84s5.88,6.68,18.22,12c0,0,2.37-5.47,2.61-9l9.89,5.8a16.05,16.05,0,0,1,.39,12.43l-11.38-6.53L167,214s-16-8.42-18.84-17.12Z" style="fill:#263238"></path><path d="M154.21,205.11s8.39,8.37,14.53,11.94l4.86-11.38,2.45,1.47.85-1.65,8.15,9.39s2.15-6.17,2.15-10.78" style="fill:none;stroke:#fff;stroke-linecap:round;stroke-linejoin:round"></path><path d="M171.26,211.14l5.59,6s2.9,24.4,2.11,35.48l7.51,18.06,3.83-18.46s-5-25.58-9.5-35.6l1-5.71-4.89-5.43-.85,1.65-2.45-1.47Z" style="fill:#fff"></path><polyline points="169.68 313.17 148.13 305.76 147.15 311.58 167.85 318.73 169.62 315.26" style="fill:none;stroke:#263238;stroke-linecap:round;stroke-linejoin:round"></polyline><polyline points="206.78 311.58 218.77 301.69 220.76 305.76 209.13 316.92 206.78 314.26" style="fill:none;stroke:#263238;stroke-linecap:round;stroke-linejoin:round"></polyline><path d="M192.13,218.09l-3.58-9.73a4,4,0,0,1,1.62-4.77,15,15,0,0,1,4.73-1.9,4,4,0,0,1,4.58,2.3l3.87,8.83Z" style="fill:#999;stroke:#263238;stroke-linecap:round;stroke-linejoin:round"></path><polygon points="188.28 220.09 195.33 211.61 207.65 211.61 210.5 220.3 201.41 225.42 191.41 229.35 188.28 220.09" style="fill:#bfbfbf;stroke:#263238;stroke-miterlimit:10"></polygon><polygon points="191.41 229.35 199.39 220.02 210.5 220.3 204.24 227.84 191.41 229.35" style="fill:#999;stroke:#263238;stroke-linecap:round;stroke-linejoin:round"></polygon><path d="M195.83,227.61a10.21,10.21,0,0,1,10.95-5.51l12,37.91s-4,3.23-7.41,2.54Z" style="fill:#757575;stroke:#263238;stroke-linecap:round;stroke-linejoin:round"></path><path d="M176.72,248.31l13.72-7.82s9-16.65,12.38-16.53,11.51-.51,13.14,1.48,0,5,0,5a6.62,6.62,0,0,1,.9,5.84s1.62,3.71-.9,6.59c0,0,2.32,3.28,0,4.6a60.34,60.34,0,0,1-8.12,3.13s-4.13,5.58-11.23,5.51l-13.38,9.47Z" style="fill:#fff;stroke:#263238;stroke-linecap:round;stroke-linejoin:round"></path><path d="M184.46,242.88l2.08-1.2s5.64,11.18,3.76,22.85l-9.52,2.37Z" style="fill:#263238"></path><path d="M116.58,213.78c-7.78,12.47-14.94,77.06-6.23,90.24s78.22-36.55,78.22-36.55A57.61,57.61,0,0,0,184.62,242l-50.39,24,.89-8.11s-6.54-30.42-13.26-38.14" style="fill:#E35862"></path><g style="clip-path:url(#freepik--clip-path-3--inject-2)"><path d="M184.36,268.23s-61.35,36-68.68,33.47c-2.81-1-6.05-6.61-9-13.21-1.82-24.09,3.84-65.05,9.87-74.71l5.28,6c4.07,4.67,8.07,17.67,10.59,27.19v15.45a11.15,11.15,0,0,0-9.28,6.36s-2.85,5.12,1.63,9.07a69.09,69.09,0,0,1,10-12.11l49.32-23.49C185.4,248.42,187.15,260.3,184.36,268.23Z" style="fill:#fff;opacity:0.4"></path></g><path d="M116.58,213.78c-7.78,12.47-14.94,77.06-6.23,90.24s78.22-36.55,78.22-36.55A57.61,57.61,0,0,0,184.62,242l-50.39,24,.89-8.11s-6.54-30.42-13.26-38.14" style="fill:none;stroke:#263238;stroke-linecap:round;stroke-linejoin:round"></path><path d="M216,230.45s-1.33-.86-9.18-1.72" style="fill:none;stroke:#263238;stroke-linecap:round;stroke-linejoin:round"></path><path d="M216.86,236.29s-7.87-1.47-9.26-1.6" style="fill:none;stroke:#263238;stroke-linecap:round;stroke-linejoin:round"></path><path d="M216,242.88a38.29,38.29,0,0,0-6.87-.51" style="fill:none;stroke:#263238;stroke-linecap:round;stroke-linejoin:round"></path><path d="M133.73,236.29s3.18,8.91,1.39,21.59" style="fill:none;stroke:#263238;stroke-linecap:round;stroke-linejoin:round"></path><path d="M121.86,270.69c3.16-6.59,12.37-4.7,12.37-4.7s-8,5.81-9.2,13.5" style="fill:none;stroke:#263238;stroke-linecap:round;stroke-linejoin:round"></path><path d="M256.36,262.38s-3.56,7.09-10.28,5.85" style="fill:none;stroke:#263238;stroke-linecap:round;stroke-linejoin:round"></path><path d="M297.27,278.47c-.08-1.1-.78-4.35-.78-4.35l-4.89-1s-8.36,8.31-3.61,23.14l3.91,1.19S298.61,295.83,297.27,278.47Z" style="fill:#263238"></path><path d="M305.7,279.2l-10.95-2.88s-5,5.61-3.68,15.66l12.38,1.18" style="fill:#fff;stroke:#263238;stroke-linecap:round;stroke-linejoin:round"></path><path d="M303.36,280.13a9,9,0,0,1,2.14-2.87,14.87,14.87,0,0,1,4-2.66,17.36,17.36,0,0,1,4.74-1.36,25.45,25.45,0,0,0,4.33-1c1-.3,1.89-.65,2.76-1a50.49,50.49,0,0,0,5.26-2.47s2.65,1.68.6,3.83a8.06,8.06,0,0,1-1.95,1.43c-1.23.68-2.59,1.22-3.64,1.72A3.64,3.64,0,0,0,320,276.9a3.75,3.75,0,0,0-.28.77s0,0,0,.06-.05.2-.07.3a3.51,3.51,0,0,0,.07,1.74,2,2,0,0,0,.33.68.33.33,0,0,0,.11.17,2.54,2.54,0,0,0,.41.39,9.86,9.86,0,0,0,2.59,1.55h0a28.13,28.13,0,0,0,4.27,1.42h0c.54.13,1.09.26,1.62.37a36.94,36.94,0,0,0,4.05.69c1,.11,2,.23,3,.41A29.35,29.35,0,0,1,339,286c2.63.67,4.5,1.68,3.63,3.26-.78,1.42-1.77,1.26-4.12.91-.82-.12-1.8-.27-3-.38a41.92,41.92,0,0,0-6.27-.06h0l-.82.05-.29,1c-.2,0,.14.25.86.6h0a49.33,49.33,0,0,0,5.93,2.26c.91.29,1.89.58,2.87.84s1.79.46,2.68.65c4.44.94,2.38,3.65.87,4.1-.87.26-2.68-.16-4.68-.69-1-.26-2-.54-2.95-.78-.48-.12-.95-.23-1.4-.32-1.86-.39-3.79-.81-5.12-1.11l-.51-.11-.86,1.14c.18.15.36.28.54.41h0a33.23,33.23,0,0,0,4.94,3.09c1.19.59,2.16,1,2.91,1.32,1.42.63,2.07,1.06,2,2.25s-1.82,1.5-3.78,1.12A15.14,15.14,0,0,1,328,304h0a7.3,7.3,0,0,1-.71-.46,16,16,0,0,0-3.87-1.88l-.82-.3-1,.5c.29.31.58.6.86.87h0a34,34,0,0,0,2.92,2.52h0a27.91,27.91,0,0,1,2.45,2,1.62,1.62,0,0,1,.59,1.71c-.31,1-1.66.9-3.17.31a14,14,0,0,1-2.57-1.4,9.5,9.5,0,0,1-1.65-1.41,17.17,17.17,0,0,0-3.24-2.46c-.47-.29-.95-.6-1.42-.88-1.72-1-3.35-1.94-3.92-2.25l-.21-.12c-1.42-.46-2.61-.9-3.64-1.32A17.43,17.43,0,0,1,302,295.1c-1.14-1.14-1.25-3.73-.88-6.53" style="fill:#fff;stroke:#263238;stroke-linecap:round;stroke-linejoin:round"></path><path d="M320.08,280.62s-1.34,6.32-7.2,6.69" style="fill:none;stroke:#263238;stroke-linecap:round;stroke-linejoin:round"></path></g><g id="freepik--character-2--inject-2"><path d="M339,183.55c9.87,8.78,11.87,19.8,11.61,33.36s5.8,31-1.58,40.72-45.1,7.88-49.32-11.75,3.53-33.88,4.27-49.17S324.18,170.39,339,183.55Z" style="fill:#263238"></path><path d="M346.44,219.86s3.41,28-3.52,35" style="fill:none;stroke:#fff;stroke-linecap:round;stroke-linejoin:round;opacity:0.2"></path><path d="M337,234.11s.84,11.08-3.32,16" style="fill:none;stroke:#fff;stroke-linecap:round;stroke-linejoin:round;opacity:0.2"></path><path d="M303.93,223.68s-1.67,13.18,0,20.5" style="fill:none;stroke:#fff;stroke-linecap:round;stroke-linejoin:round;opacity:0.2"></path><path d="M246.91,166.11l-1.33-15.43s-3.3-9.46-4.06-15.26,10.33-15.73,13.51-15.73,6.39,17,6.39,17l5.26,1.9s-5.36,9.83-10.19,11l2,11.21Z" style="fill:#fff;stroke:#263238;stroke-linecap:round;stroke-linejoin:round"></path><path d="M261,131a88.66,88.66,0,0,0-3-19.08c-2.79-10.19-13.05-16.55-17.33-21.08s-1-8.4,1.9-7.74c0,0-1.9-2.07-5.17.4s-3.93,7.74,3.67,15.18,15.78,24.93,16,32.29Z" style="fill:#E35862"></path><g style="clip-path:url(#freepik--clip-path-4--inject-2)"><path d="M261,131a88.66,88.66,0,0,0-3-19.08c-2.79-10.19-13.05-16.55-17.33-21.08s-1-8.4,1.9-7.74c0,0-1.9-2.07-5.17.4s-3.93,7.74,3.67,15.18,15.78,24.93,16,32.29Z" style="fill-opacity:0.7000000000000001;opacity:0.2"></path></g><path d="M261,131a88.66,88.66,0,0,0-3-19.08c-2.79-10.19-13.05-16.55-17.33-21.08s-1-8.4,1.9-7.74c0,0-1.9-2.07-5.17.4s-3.93,7.74,3.67,15.18,15.78,24.93,16,32.29Z" style="fill:none;stroke:#263238;stroke-linecap:round;stroke-linejoin:round"></path><path d="M244.45,94.35l-.5-.44a31.39,31.39,0,0,1,2.21-4.07C246.05,90.1,245.25,92,244.45,94.35Z" style="fill:#E35862;stroke:#263238;stroke-linecap:round;stroke-linejoin:round"></path><path d="M251.67,84a5.2,5.2,0,1,1-6.56-3.33A5.21,5.21,0,0,1,251.67,84Z" style="fill:#E35862"></path><g style="clip-path:url(#freepik--clip-path-5--inject-2)"><path d="M251.67,84a5.2,5.2,0,1,1-6.56-3.33A5.21,5.21,0,0,1,251.67,84Z" style="fill:#fff;opacity:0.4"></path></g><path d="M251.67,84a5.2,5.2,0,1,1-6.56-3.33A5.21,5.21,0,0,1,251.67,84Z" style="fill:none;stroke:#263238;stroke-linecap:round;stroke-linejoin:round"></path><path d="M252.66,94c.68,1.9,1.18,5.77,1.55,10.33.5,5.92.76,13,.9,18.37.14,4.82.17,8.28.17,8.28L250,133.76s-2.42,1.19-7.92-14.37a32.16,32.16,0,0,1-.25-19.88c.36.37.72.76,1.06,1.17-.3,2.33-.13,4.4,1,5.45.86.78,1.77.45,2.63-.57a17.79,17.79,0,0,0,2.87-6.76c.89-3.73,1.15-7.86.14-10.09C249.55,88.71,250.31,87.39,252.66,94Z" style="fill:#E35862;stroke:#263238;stroke-linecap:round;stroke-linejoin:round"></path><path d="M253.63,129.87c-5.77,1.89-9.88,5.15-9.18,7.3l2,6,20.9-6.81-1.95-6C264.65,128.21,259.4,128,253.63,129.87Z" style="fill:#999;stroke:#263238;stroke-linecap:round;stroke-linejoin:round"></path><path d="M267.3,136.35c.7,2.15-3.41,5.41-9.18,7.29s-11,1.67-11.72-.48,3.41-5.41,9.18-7.29S266.6,134.2,267.3,136.35Z" style="fill:#757575;stroke:#263238;stroke-linecap:round;stroke-linejoin:round"></path><path d="M241.49,133.78c0-2.72,2.46-10.59,2.46-10.59l3.88-5.41a2.31,2.31,0,0,1,.53,2.9c-1,1.59-2.24,4-2.24,4l-1.07,7.65" style="fill:#fff;stroke:#263238;stroke-linecap:round;stroke-linejoin:round"></path><path d="M244.37,128.24a24.27,24.27,0,0,1,4.65-4.32l5.06-1.46s.22,2.77-3.08,3.83l-5.95,6" style="fill:#fff;stroke:#263238;stroke-linecap:round;stroke-linejoin:round"></path><path d="M244.37,131l3.46-2h4.09s.36,2-3,2.83-5,4.68-5,4.68" style="fill:#fff;stroke:#263238;stroke-linecap:round;stroke-linejoin:round"></path><path d="M296.49,237.93s-23.59-26.66-26.23-31.3-11.74-52.73-11.74-52.73a24.44,24.44,0,0,0-13.36,5.68s4,59.91,6.64,63.82,33.67,45,33.67,45Z" style="fill:#E35862"></path><g style="clip-path:url(#freepik--clip-path-6--inject-2)"><path d="M296.49,237.92l-11,30.43-3.38-4.47L268.62,246c-7.76-10.33-15.55-20.75-16.82-22.63-2.64-3.91-6.64-63.81-6.64-63.81a24.49,24.49,0,0,1,13.36-5.69s9.11,48.1,11.74,52.73S296.49,237.92,296.49,237.92Z" style="opacity:0.2"></path><path d="M285.47,244.17s-2,9.8-3.38,19.71L268.62,246l7.28,4.1s-2.35-6.47-2.09-8.32,6.86,8.93,6.86,8.93S281.84,246.28,285.47,244.17Z" style="opacity:0.2"></path></g><path d="M296.49,237.93s-23.59-26.66-26.23-31.3-11.74-52.73-11.74-52.73a24.44,24.44,0,0,0-13.36,5.68s4,59.91,6.64,63.82,33.67,45,33.67,45Z" style="fill:none;stroke:#263238;stroke-linecap:round;stroke-linejoin:round"></path><path d="M284,249.45c-1.64,7.66-1.84,18-1.94,23.61-.21,13.05,10.77,46,10.77,46s21.93,8.41,44.2,9.36c0,0,10.3-33.21,15.84-54.09,2.45-9.21,4-16,3.26-16.53-32.79-24-48.21-16.22-64.7-25.67a9.94,9.94,0,0,0-3.35,4.93" style="fill:#E35862"></path><g style="clip-path:url(#freepik--clip-path-7--inject-2)"><path d="M352.84,274.31c-.73,2.76-1.55,5.74-2.41,8.83C344.76,303.4,337,328.41,337,328.41c-22.27-1-44.2-9.36-44.2-9.36s-2.93-8.81-5.74-19.12c-2.62-9.63-5.13-20.57-5-26.88.1-5.63.3-15.95,1.94-23.6L288.05,237a9.94,9.94,0,0,1,3.35-4.92c16.49,9.45,31.91,1.71,64.7,25.66C356.8,258.3,355.29,265.11,352.84,274.31Z" style="opacity:0.2"></path><path d="M350.43,283.14C344.76,303.4,337,328.41,337,328.41c-22.27-1-44.2-9.36-44.2-9.36s-2.93-8.81-5.74-19.12a183.16,183.16,0,0,0,17.31,11.77s-5.5-16.36,1.09-9.88,20.37,10.59,20.37,10.59l-4.68-25.3Z" style="opacity:0.2"></path></g><path d="M284,249.45c-1.64,7.66-1.84,18-1.94,23.61-.21,13.05,10.77,46,10.77,46s21.93,8.41,44.2,9.36c0,0,10.3-33.21,15.84-54.09,2.45-9.21,4-16,3.26-16.53-32.79-24-48.21-16.22-64.7-25.67a9.94,9.94,0,0,0-3.35,4.93" style="fill:none;stroke:#263238;stroke-linecap:round;stroke-linejoin:round"></path><path d="M348.45,254.2s-18.15,9.11-30.16,4.48c-16-6.16-19.88-21.89-19.88-21.89s15.91,2.67,15.93.52c0-.34,0-1.16-.11-2.29-.17-2.61-.5-6.91-.83-10.94-.41-5.23-.81-10-.81-10l20.2,5.5s-2.37,20.63-.42,22.18S348.45,254.2,348.45,254.2Z" style="fill:#fff;stroke:#263238;stroke-linecap:round;stroke-linejoin:round"></path><path d="M330.72,229.67s-7.49,12.08-16.49,5.35c-.17-2.61-.5-6.91-.83-10.94Z" style="fill:#263238"></path><path d="M342,211.31s2.29-1.77,3.18-1a4.29,4.29,0,0,1,1,4.53c-.77,1.66-3.51,4.37-3.93,6.1s-1.9,3.58-3.06,2.23S342,211.31,342,211.31Z" style="fill:#fff;stroke:#263238;stroke-linecap:round;stroke-linejoin:round"></path><path d="M306.29,206.45s-1.73-2.31-2.8-1.78a4.29,4.29,0,0,0-2.2,4.09c.3,1.81,2.21,5.15,2.15,6.94s.87,4,2.35,3S306.29,206.45,306.29,206.45Z" style="fill:#fff;stroke:#263238;stroke-linecap:round;stroke-linejoin:round"></path><path d="M327.11,183.78c25.17,3.43,14.21,32.94,8.12,43.07-2.15,3.56-10.9,7.76-15,7.21-3.79-.52-10.69-6.54-11.75-10.3C305.3,212.3,303.12,180.51,327.11,183.78Z" style="fill:#fff;stroke:#263238;stroke-linecap:round;stroke-linejoin:round"></path><path d="M328.69,204.07s6.83-1.13,8.31,3.2" style="fill:none;stroke:#263238;stroke-linecap:round;stroke-linejoin:round"></path><path d="M321,203s-6.28-2.91-8.85.86" style="fill:none;stroke:#263238;stroke-linecap:round;stroke-linejoin:round"></path><path d="M323.24,208.86c.59,2.08-2.8,5.07-1.95,6.19s1.85,2.35,1.85,2.35" style="fill:#fff;stroke:#263238;stroke-linecap:round;stroke-linejoin:round"></path><path d="M317.29,219.86v.06a5.72,5.72,0,0,0,.16,1.28,5.38,5.38,0,0,0,4.85,4.33c3.72.51,5.48-4.33,5.48-4.33A14.45,14.45,0,0,1,317.29,219.86Z" style="fill:#757575"></path><g style="clip-path:url(#freepik--clip-path-8--inject-2)"><path d="M317.29,219.86v.06l.16,1.28c5.65,2.73,9.19,1.25,9.19,1.25l1.14-1.25A14.45,14.45,0,0,1,317.29,219.86Z" style="fill:#fff"></path></g><path d="M317.29,219.86v.06a5.72,5.72,0,0,0,.16,1.28,5.38,5.38,0,0,0,4.85,4.33c3.72.51,5.48-4.33,5.48-4.33A14.45,14.45,0,0,1,317.29,219.86Z" style="fill:none;stroke:#263238;stroke-linecap:round;stroke-linejoin:round"></path><path d="M316.72,219.5s5.8,3.42,11.69,1.59" style="fill:none;stroke:#263238;stroke-linecap:round;stroke-linejoin:round"></path><path d="M329.27,210.25s1.81-1.55,2.9.39" style="fill:none;stroke:#263238;stroke-linecap:round;stroke-linejoin:round"></path><path d="M315.4,208.36s1.81-1.55,2.89.39" style="fill:none;stroke:#263238;stroke-linecap:round;stroke-linejoin:round"></path><path d="M336.07,192.85s-15.44.19-27.75,5l-1.83,13.49-1.73-6.59s-3.17-16,8.55-22.86,24.25-.7,28.09,3.83c0,0,11.11,8.32,2.83,24.36l-4,7.25.68-6.08S336.23,199.29,336.07,192.85Z" style="fill:#263238"></path><polygon points="310.29 192.07 311.26 197.81 309.38 198.69 308.67 192.87 310.29 192.07" style="fill:#E35862;stroke:#263238;stroke-linecap:round;stroke-linejoin:round"></polygon><path d="M337,188.6s-15.14-3.13-24.85,3.47" style="fill:none;stroke:#fff;stroke-linecap:round;stroke-linejoin:round;opacity:0.2"></path><path d="M337,184.44s-12.37-6.93-24.85-.89" style="fill:none;stroke:#fff;stroke-linecap:round;stroke-linejoin:round;opacity:0.2"></path><path d="M340.6,190s.86,14.24,7.85,20.67" style="fill:none;stroke:#fff;stroke-linecap:round;stroke-linejoin:round;opacity:0.2"></path><path d="M276.85,245.37a72.2,72.2,0,0,0,5.53,17.27" style="fill:none;stroke:#263238;stroke-linecap:round;stroke-linejoin:round"></path><path d="M270.26,206.63s-10,2.68-13.19-2" style="fill:none;stroke:#263238;stroke-linecap:round;stroke-linejoin:round"></path><path d="M341.66,260s-25,9.23-35.09,2.64" style="fill:none;stroke:#263238;stroke-linecap:round;stroke-linejoin:round"></path><path d="M298.41,290.62s8.06,20.66,20.74,23.77" style="fill:none;stroke:#263238;stroke-linecap:round;stroke-linejoin:round"></path><path d="M351.48,271.74a68.39,68.39,0,0,1-7,19.78c8.34,17.28,16.88,54.72,26.55,54.33A20.8,20.8,0,0,0,386,338.42s-17.88-72.88-29.88-80.63a36.7,36.7,0,0,0-3,4.71" style="fill:#E35862"></path><g style="clip-path:url(#freepik--clip-path-9--inject-2)"><path d="M351.48,271.74a68.39,68.39,0,0,1-7,19.78c8.34,17.28,16.88,54.72,26.55,54.33A20.8,20.8,0,0,0,386,338.42s-17.88-72.88-29.88-80.63a36.7,36.7,0,0,0-3,4.71" style="opacity:0.2"></path></g><path d="M351.48,271.74a68.39,68.39,0,0,1-7,19.78c8.34,17.28,16.88,54.72,26.55,54.33A20.8,20.8,0,0,0,386,338.42s-17.88-72.88-29.88-80.63a36.7,36.7,0,0,0-3,4.71" style="fill:none;stroke:#263238;stroke-linecap:round;stroke-linejoin:round"></path><path d="M290.47,311.71s-15.21,39.72-14.55,69.15c.93,40.88,9.55,56.41,9.55,56.41h70.25s17.17-72.82-15.79-118.42C339.93,318.85,309.31,320.59,290.47,311.71Z" style="fill:#263238"></path><path d="M297.27,354s2.57,9.72,14.88,20.51c0,0,5.82,34.44,5.9,58.48" style="fill:none;stroke:#fff;stroke-linecap:round;stroke-linejoin:round"></path><path d="M327.07,366s-10.17,2.38-13.65,6.6" style="fill:none;stroke:#fff;stroke-linecap:round;stroke-linejoin:round"></path><path d="M308.78,329.37s-2.53,30.85,1.43,39.95" style="fill:none;stroke:#fff;stroke-linecap:round;stroke-linejoin:round"></path><path d="M304.67,329.1s-1.85,16.62-1.32,21.89,4.31,6.33,4.31,6.33" style="fill:none;stroke:#fff;stroke-linecap:round;stroke-linejoin:round"></path><path d="M308,374.49s-9-1.61-13.54-8.47" style="fill:none;stroke:#fff;stroke-linecap:round;stroke-linejoin:round"></path><path d="M337.52,332.87s2.23,11.26,10.93,15.22" style="fill:none;stroke:#fff;stroke-linecap:round;stroke-linejoin:round"></path><path d="M343,328.41s14.75,19.68,10.88,37.61c0,0,3.82,41.41,0,69.1" style="fill:none;stroke:#fff;stroke-linecap:round;stroke-linejoin:round"></path><path d="M291,313.29s13.64,9.42,47.27,7a27.76,27.76,0,0,1,2.18,5.34S309,332,289.57,318.85Z" style="fill:#fff;opacity:0.4"></path><path d="M301.7,318.15l-.85,6.24a1.28,1.28,0,0,0,.84,1.38,36.71,36.71,0,0,0,9.89,2,1.3,1.3,0,0,0,1.36-1.18l.48-6.52a1.27,1.27,0,0,0-1.1-1.36c-2-.29-6.27-.93-9.05-1.61A1.28,1.28,0,0,0,301.7,318.15Z" style="fill:#fff;stroke:#263238;stroke-linecap:round;stroke-linejoin:round"></path><path d="M322.6,319.61a42.07,42.07,0,0,1,.8,9.76h3a19.35,19.35,0,0,0,0-9.76Z" style="fill:#263238"></path><path d="M295.27,324.83a42.31,42.31,0,0,1,2-9.59l-2.91-.85a19.4,19.4,0,0,0-2.76,9.36Z" style="fill:#263238"></path><rect x="331.42" y="274.15" width="95.12" height="63.47" transform="translate(-35.81 50.67) rotate(-7.3)" style="fill:#fff;stroke:#263238;stroke-linecap:round;stroke-linejoin:round"></rect><rect x="350.25" y="261.32" width="57.47" height="89.12" transform="translate(634.2 -108.91) rotate(82.7)" style="fill:#E35862;opacity:0.4"></rect><rect x="350.25" y="261.32" width="57.47" height="89.12" transform="translate(634.2 -108.91) rotate(82.7)" style="fill:none;stroke:#263238;stroke-linecap:round;stroke-linejoin:round"></rect><rect x="342.03" y="296.02" width="73.45" height="16.23" transform="translate(-35.59 50.62) rotate(-7.3)" style="fill:#fff;stroke:#263238;stroke-linecap:round;stroke-linejoin:round"></rect><path d="M405.74,286.42l-57.55,7.37a1.59,1.59,0,0,1-1.78-1.36h0a1.6,1.6,0,0,1,1.37-1.78l57.55-7.37a1.59,1.59,0,0,1,1.78,1.37h0A1.59,1.59,0,0,1,405.74,286.42Z" style="opacity:0.5"></path><path d="M419.58,321.51l-13.15,1.68a1,1,0,1,0,.27,2.07l13.14-1.68a1.05,1.05,0,0,0,.9-1.17A1,1,0,0,0,419.58,321.51Z" style="opacity:0.5"></path><path d="M360.3,329.11l-13.15,1.68a1,1,0,0,0,.27,2.07l13.14-1.69a1,1,0,0,0-.26-2.06Z" style="opacity:0.5"></path><path d="M415.84,315.94l-7.19.92a1,1,0,0,0,.26,2.07l7.19-.92a1,1,0,0,0-.26-2.07Z" style="opacity:0.5"></path><path d="M356.56,323.54l-7.19.92a1,1,0,0,0,.26,2.07l7.19-.93a1,1,0,0,0-.26-2.06Z" style="opacity:0.5"></path><path d="M401.16,312.07l-40.68,5.21a.79.79,0,0,0-.68.89.78.78,0,0,0,.88.68l40.68-5.21a.8.8,0,0,0,.68-.89A.78.78,0,0,0,401.16,312.07Z" style="opacity:0.5"></path><path d="M349.73,304a1.77,1.77,0,0,1,1-.88l-.09-.69,1.18-.15.09.68a1.82,1.82,0,0,1,1.25.58,2.67,2.67,0,0,1,.59,1.47l0,.29-1.37.18,0-.38a1.07,1.07,0,0,0-.27-.67.67.67,0,0,0-.57-.15.7.7,0,0,0-.51.29,1.08,1.08,0,0,0-.09.71,1.63,1.63,0,0,0,.25.71,2.34,2.34,0,0,0,.48.51,8.16,8.16,0,0,0,.74.51,7.72,7.72,0,0,1,.93.64,3,3,0,0,1,.64.76,3.13,3.13,0,0,1,.17,2.69,1.84,1.84,0,0,1-1.07.89l.08.67-1.18.15-.08-.67a1.78,1.78,0,0,1-1.27-.59,2.67,2.67,0,0,1-.59-1.47l-.08-.63,1.37-.17.09.72c.08.59.36.86.86.8s.72-.4.64-1a1.64,1.64,0,0,0-.26-.71,2.6,2.6,0,0,0-.47-.52q-.27-.21-.75-.51a7.58,7.58,0,0,1-.92-.63,3.06,3.06,0,0,1-.65-.76,2.85,2.85,0,0,1-.37-1.12A2.68,2.68,0,0,1,349.73,304Z" style="fill:#263238"></path><path d="M358.37,303a1.16,1.16,0,0,0,.41-.45,4.07,4.07,0,0,0,.22-.65l1-.13,1.17,9.2-1.44.18-.9-7-1.12.14-.13-1A2,2,0,0,0,358.37,303Z" style="fill:#263238"></path><path d="M362.22,302a2.53,2.53,0,0,1,3.26-.42,2.46,2.46,0,0,1,.79,1.64l.61,4.78a2.42,2.42,0,0,1-.35,1.78,2.12,2.12,0,0,1-1.55.81,2.17,2.17,0,0,1-1.71-.39,2.45,2.45,0,0,1-.78-1.64l-.61-4.78A2.43,2.43,0,0,1,362.22,302Zm2.59,7.28c.5-.06.71-.4.63-1l-.63-5q-.12-.9-.87-.81c-.5.06-.71.4-.63,1l.64,5C364,309.09,364.31,309.36,364.81,309.3Z" style="fill:#263238"></path><path d="M367.43,301.35a2.51,2.51,0,0,1,3.25-.41,2.44,2.44,0,0,1,.79,1.63l.61,4.78a2.37,2.37,0,0,1-.35,1.78,2.49,2.49,0,0,1-3.25.42,2.44,2.44,0,0,1-.79-1.63l-.61-4.79A2.44,2.44,0,0,1,367.43,301.35Zm2.58,7.28c.5-.06.72-.39.64-1l-.64-5c-.08-.61-.36-.88-.86-.82s-.71.4-.64,1l.64,5C369.23,308.43,369.52,308.7,370,308.63Z" style="fill:#263238"></path><path d="M374.69,309.26l-1.39.18-.18-1.39,1.39-.18Z" style="fill:#263238"></path><path d="M375.07,300.37a2.52,2.52,0,0,1,3.26-.41,2.39,2.39,0,0,1,.78,1.63l.62,4.79a2.49,2.49,0,0,1-.35,1.78,2.52,2.52,0,0,1-3.26.41,2.39,2.39,0,0,1-.78-1.63l-.62-4.78A2.5,2.5,0,0,1,375.07,300.37Zm2.59,7.28c.5-.06.71-.4.63-1l-.63-5q-.12-.92-.87-.81c-.5.06-.71.39-.63,1l.63,5Q376.91,307.76,377.66,307.65Z" style="fill:#263238"></path><path d="M380.27,299.71a2.21,2.21,0,0,1,1.55-.82,2.17,2.17,0,0,1,1.71.4,2.44,2.44,0,0,1,.79,1.64l.61,4.78a2.43,2.43,0,0,1-.35,1.78,2.12,2.12,0,0,1-1.55.81,2.17,2.17,0,0,1-1.71-.39,2.45,2.45,0,0,1-.78-1.64l-.61-4.78A2.42,2.42,0,0,1,380.27,299.71Zm2.59,7.28c.5-.07.71-.4.63-1l-.63-5q-.12-.91-.87-.81c-.49.06-.71.4-.63,1l.64,5C382.08,306.78,382.36,307.05,382.86,307Z" style="fill:#263238"></path><path d="M385.47,299a2.54,2.54,0,0,1,3.26-.42,2.46,2.46,0,0,1,.79,1.64l.61,4.78a2.42,2.42,0,0,1-.35,1.78,2.52,2.52,0,0,1-3.25.42,2.46,2.46,0,0,1-.79-1.64l-.61-4.78A2.43,2.43,0,0,1,385.47,299Zm2.59,7.28c.5-.07.71-.4.64-1l-.64-5q-.12-.9-.87-.81c-.49.06-.71.4-.63,1l.64,5C387.28,306.11,387.56,306.38,388.06,306.32Z" style="fill:#263238"></path><path d="M392.74,307l-1.39.18-.18-1.39,1.39-.18Z" style="fill:#263238"></path><path d="M393.12,298.06a2.12,2.12,0,0,1,1.55-.81,2.17,2.17,0,0,1,1.71.39,2.41,2.41,0,0,1,.78,1.64l.61,4.78a2.42,2.42,0,0,1-.34,1.78,2.14,2.14,0,0,1-1.55.81,2.17,2.17,0,0,1-1.71-.39,2.41,2.41,0,0,1-.78-1.64l-.62-4.78A2.47,2.47,0,0,1,393.12,298.06Zm2.59,7.28c.5-.06.71-.4.63-1l-.64-5c-.07-.6-.36-.87-.86-.81s-.71.4-.63,1l.63,5Q395,305.43,395.71,305.34Z" style="fill:#263238"></path><path d="M398.32,297.39a2.16,2.16,0,0,1,1.55-.81,2.13,2.13,0,0,1,1.71.4,2.44,2.44,0,0,1,.79,1.63l.61,4.78a2.42,2.42,0,0,1-.35,1.78,2.5,2.5,0,0,1-3.26.42,2.43,2.43,0,0,1-.78-1.63l-.61-4.79A2.44,2.44,0,0,1,398.32,297.39Zm2.59,7.28c.5-.06.71-.4.63-1l-.63-5c-.08-.61-.37-.88-.87-.82s-.71.4-.63,1l.64,5C400.12,304.47,400.41,304.74,400.91,304.67Z" style="fill:#263238"></path><path d="M403.52,296.73a2.17,2.17,0,0,1,1.56-.82,2.15,2.15,0,0,1,1.7.4,2.46,2.46,0,0,1,.79,1.64l.61,4.78a2.43,2.43,0,0,1-.35,1.78,2.52,2.52,0,0,1-3.25.42,2.46,2.46,0,0,1-.79-1.64l-.61-4.78A2.42,2.42,0,0,1,403.52,296.73Zm2.59,7.28c.5-.07.71-.4.64-1l-.64-5c-.08-.61-.37-.88-.86-.81s-.72.4-.64,1l.64,5C405.33,303.8,405.61,304.07,406.11,304Z" style="fill:#263238"></path><path d="M397.09,280.33l-40.68,5.21a.79.79,0,0,0,.2,1.57l40.68-5.21A.81.81,0,0,0,398,281,.8.8,0,0,0,397.09,280.33Z" style="opacity:0.5"></path><path d="M379.13,341.1c.76,3.09,11.57-1.42,12.35-3.2s.07-5.81.07-5.81-2.82-3.95-3.83-4.44c-2.16-1.08-2,1.29-2,1.29s-1.13-2.11-2.16-2.3c-2.06-.37-1.48,3.57-1.48,3.57-1.42-2.79-3.44-.29-1.92,3.73C380.2,333.94,376.11,328.94,379.13,341.1Z" style="fill:#fff;stroke:#263238;stroke-linecap:round;stroke-linejoin:round"></path><path d="M385.76,328.94s1.39,2.79,1.94,4.12a23.37,23.37,0,0,1,.85,4.73" style="fill:none;stroke:#263238;stroke-linecap:round;stroke-linejoin:round"></path><path d="M382.12,330.21s1.44,3.23,1.78,4.32.83,4.28.83,4.28" style="fill:none;stroke:#263238;stroke-linecap:round;stroke-linejoin:round"></path><path d="M380.2,333.94a8.73,8.73,0,0,1,.72,1.72c.22.83.25,3.15.48,3.46" style="fill:none;stroke:#263238;stroke-linecap:round;stroke-linejoin:round"></path><path d="M301.25,240.62s9.87,9.89,12.15,10.88,3.17,4.74,3.17,4.74" style="fill:none;stroke:#263238;stroke-linecap:round;stroke-linejoin:round"></path><path d="M319.15,257s1.93-3,3.38-2.18,19.13,0,19.13,0" style="fill:none;stroke:#263238;stroke-linecap:round;stroke-linejoin:round"></path></g></svg>