<svg xmlns="http://www.w3.org/2000/svg" viewBox="0 0 500 500"><g id="freepik--background-simple--inject-2"><path d="M88.09,103.18C116,43.73,215.15,52.12,253.41,93.92s50.7,68.6,85.21,53,78.52-11.43,81,38.17S381.75,293.33,317.57,310.68s-64.16,78.76-149.1,66.37c-46.31-6.75-47.36-56.86-40.82-98.3S55.71,172.12,88.09,103.18Z" style="fill:#2A9D8F"></path><path d="M88.09,103.18C116,43.73,215.15,52.12,253.41,93.92s50.7,68.6,85.21,53,78.52-11.43,81,38.17S381.75,293.33,317.57,310.68s-64.16,78.76-149.1,66.37c-46.31-6.75-47.36-56.86-40.82-98.3S55.71,172.12,88.09,103.18Z" style="fill:#fff;opacity:0.9"></path></g><g id="freepik--Shadow--inject-2"><ellipse id="freepik--path--inject-2" cx="250" cy="416.24" rx="193.89" ry="11.32" style="fill:#f5f5f5"></ellipse></g><g id="freepik--trash-can-1--inject-2"><polygon points="322.96 418.15 266.71 418.15 265.92 408.32 323.75 408.32 322.96 418.15" style="fill:#2A9D8F"></polygon><polygon points="322.96 418.15 266.71 418.15 265.92 408.32 323.75 408.32 322.96 418.15" style="opacity:0.2;isolation:isolate"></polygon><polygon points="317.95 418.15 266.71 418.15 265.92 408.32 318.6 408.32 317.95 418.15" style="opacity:0.2;isolation:isolate"></polygon><path d="M301.37,411.55h-2.76c-1.34,0-2.43,1.68-2.43,3.76s1.09,3.76,2.43,3.76h2.76c1.34,0,2.43-1.68,2.43-3.76S302.71,411.55,301.37,411.55Z" style="fill:#263238"></path><path d="M303.8,415.31c0,2.08-1.09,3.76-2.43,3.76s-2.43-1.68-2.43-3.76,1.09-3.76,2.43-3.76S303.8,413.23,303.8,415.31Z" style="fill:#fff;opacity:0.2;isolation:isolate"></path><path d="M257,411.55h-2.76c-1.34,0-2.43,1.68-2.43,3.76s1.09,3.76,2.43,3.76H257c1.34,0,2.42-1.68,2.42-3.76S258.29,411.55,257,411.55Z" style="fill:#263238"></path><path d="M259.37,415.31c0,2.08-1.08,3.76-2.42,3.76s-2.43-1.68-2.43-3.76,1.09-3.76,2.43-3.76S259.37,413.23,259.37,415.31Z" style="fill:#fff;opacity:0.2;isolation:isolate"></path><path d="M327.86,267.15H284a3.69,3.69,0,0,1-3.82-4.57l10-48.73a6,6,0,0,1,5.69-4.57h43.86c7.3,0,12.05,5.68,10.61,12.69l-6.68,32.49C342.25,261.47,335.16,267.15,327.86,267.15Z" style="fill:#2A9D8F"></path><path d="M327.86,267.15H284a3.69,3.69,0,0,1-3.82-4.57l10-48.73a6,6,0,0,1,5.69-4.57h43.86c7.3,0,12.05,5.68,10.61,12.69l-6.68,32.49C342.25,261.47,335.16,267.15,327.86,267.15Z" style="fill:#fff;opacity:0.2;isolation:isolate"></path><path d="M331.08,268.88H275.49a3.68,3.68,0,0,1-3.82-4.56l10.75-52.21a6,6,0,0,1,5.69-4.56H343.7a3.68,3.68,0,0,1,3.82,4.56l-10.74,52.21A6,6,0,0,1,331.08,268.88Z" style="fill:#2A9D8F"></path><path d="M345.67,212.11l-1,4.85-9.75,47.36a3.68,3.68,0,0,1-3.48,2.8H275.86a2.27,2.27,0,0,1-2.35-2.8l10.75-52.21a3.68,3.68,0,0,1,3.49-2.79h55.59A2.24,2.24,0,0,1,345.67,212.11Z" style="opacity:0.2;isolation:isolate"></path><path d="M345.67,212.11l-1,4.85c-18-.35-52-.85-52.84.22-1.09,1.45-16,49.94-16,49.94a2.27,2.27,0,0,1-2.35-2.8l10.75-52.21a3.68,3.68,0,0,1,3.49-2.79h55.59A2.24,2.24,0,0,1,345.67,212.11Z" style="opacity:0.2;isolation:isolate"></path><path d="M332.93,272l-4.7,136.39a4.85,4.85,0,0,1-4.86,4.69H251.63a4.84,4.84,0,0,1-4.85-4.69L242.09,272Z" style="fill:#2A9D8F"></path><path d="M332.93,272l-4.7,136.39a4.85,4.85,0,0,1-4.86,4.69H306.85a4.85,4.85,0,0,1-4.85-4.69L297.31,272Z" style="opacity:0.2;isolation:isolate"></path><path d="M261.52,333l3.64-6.3.95.57-1.24-4.85L260,323.66l1.08.64-3.67,6.35a6.19,6.19,0,0,0,5.36,9.28h4.72l0-4.72h-4.76A1.46,1.46,0,0,1,261.52,333Z" style="fill:#fff"></path><path d="M271.6,317a1.46,1.46,0,0,1,1.27.74l3.95,6.83-1,.56,4.84,1.3,1.3-4.84-1.09.63L277,315.4a6.18,6.18,0,0,0-10.71,0l-2.71,4.69,4.06,2.4,2.74-4.73A1.45,1.45,0,0,1,271.6,317Z" style="fill:#fff"></path><path d="M285.76,330.65l-2.34-4.06-4.11,2.32,2.37,4.1a1.47,1.47,0,0,1-1.28,2.2h-7.26v-1.12l-3.54,3.54,3.54,3.54v-1.24h7.26a6.19,6.19,0,0,0,5.36-9.28Z" style="fill:#fff"></path><rect x="240.73" y="268.33" width="94.14" height="11.43" rx="1.56" style="fill:#2A9D8F"></rect><rect x="240.73" y="268.33" width="59.16" height="11.43" rx="1.56" style="fill:#fff;opacity:0.2;isolation:isolate"></rect></g><g id="freepik--trash-can-2--inject-2"><path d="M381.82,260H342.37l1.95-2.59a14.24,14.24,0,0,1,11.31-5.64h12.93a14.22,14.22,0,0,1,11.3,5.64Zm-33.55-2.76h27.65a11.47,11.47,0,0,0-7.36-2.7H355.63A11.45,11.45,0,0,0,348.27,257.2Z" style="fill:#263238"></path><path d="M406.56,270.37v3.44H317.14v-3.44a14.7,14.7,0,0,1,14.71-14.69h60A14.7,14.7,0,0,1,406.56,270.37Z" style="fill:#263238"></path><path d="M406.56,270.37v3.44H372.37v-3.44a14.7,14.7,0,0,1,14.7-14.69h4.79A14.7,14.7,0,0,1,406.56,270.37Z" style="opacity:0.2;isolation:isolate"></path><polygon points="396.59 418.15 340.34 418.15 339.55 408.32 397.38 408.32 396.59 418.15" style="fill:#263238"></polygon><polygon points="396.59 418.15 340.34 418.15 339.55 408.32 397.38 408.32 396.59 418.15" style="opacity:0.2;isolation:isolate"></polygon><polygon points="391.58 418.15 340.34 418.15 339.55 408.32 392.23 408.32 391.58 418.15" style="opacity:0.2;isolation:isolate"></polygon><path d="M375,411.55h-2.76c-1.34,0-2.43,1.68-2.43,3.76s1.09,3.76,2.43,3.76H375c1.34,0,2.42-1.68,2.42-3.76S376.34,411.55,375,411.55Z" style="fill:#263238"></path><path d="M377.42,415.31c0,2.08-1.08,3.76-2.42,3.76s-2.43-1.68-2.43-3.76,1.09-3.76,2.43-3.76S377.42,413.23,377.42,415.31Z" style="fill:#fff;opacity:0.2;isolation:isolate"></path><path d="M330.58,411.55h-2.76c-1.34,0-2.43,1.68-2.43,3.76s1.09,3.76,2.43,3.76h2.76c1.34,0,2.42-1.68,2.42-3.76S331.92,411.55,330.58,411.55Z" style="fill:#263238"></path><path d="M333,415.31c0,2.08-1.08,3.76-2.42,3.76s-2.43-1.68-2.43-3.76,1.09-3.76,2.43-3.76S333,413.23,333,415.31Z" style="fill:#fff;opacity:0.2;isolation:isolate"></path><path d="M406.56,272l-4.7,136.39a4.85,4.85,0,0,1-4.86,4.69H325.26a4.84,4.84,0,0,1-4.85-4.69L315.72,272Z" style="fill:#263238"></path><path d="M406.56,272l-4.7,136.39a4.85,4.85,0,0,1-4.86,4.69H380.48a4.85,4.85,0,0,1-4.85-4.69L370.94,272Z" style="opacity:0.2;isolation:isolate"></path><path d="M335.15,333l3.64-6.3.95.57-1.24-4.85-4.85,1.23,1.08.64-3.67,6.35a6.19,6.19,0,0,0,5.36,9.28h4.72l0-4.72h-4.76A1.46,1.46,0,0,1,335.15,333Z" style="fill:#fff"></path><path d="M345.23,317a1.46,1.46,0,0,1,1.27.74l3.94,6.83-1,.56,4.84,1.3,1.3-4.84-1.09.63-3.95-6.84a6.18,6.18,0,0,0-10.71,0l-2.71,4.69,4.06,2.4,2.74-4.73A1.45,1.45,0,0,1,345.23,317Z" style="fill:#fff"></path><path d="M359.39,330.65l-2.34-4.06-4.11,2.32,2.37,4.1a1.47,1.47,0,0,1-1.28,2.2h-7.26v-1.12l-3.54,3.54,3.54,3.54v-1.24H354a6.19,6.19,0,0,0,5.36-9.28Z" style="fill:#fff"></path><rect x="314.36" y="268.33" width="94.14" height="11.43" rx="1.56" style="fill:#263238"></rect><rect x="314.36" y="268.33" width="59.16" height="11.43" rx="1.56" style="fill:#fff;opacity:0.2;isolation:isolate"></rect></g><g id="freepik--trash-bag--inject-2"><path d="M150.31,303.9l1-3.09-5.4-1.73-1,3.08a3.09,3.09,0,0,1-1.66,1.88h0a3.09,3.09,0,0,0-1.67,1.87l-5.69,17.73A1.64,1.64,0,0,0,137,325.7l6.14,2a1.64,1.64,0,0,0,2.07-1.06l5.69-17.73a3.14,3.14,0,0,0-.27-2.49h0A3.1,3.1,0,0,1,150.31,303.9Z" style="fill:#2A9D8F"></path><path d="M150.31,303.9l1-3.09-5.4-1.73-1,3.08a3.09,3.09,0,0,1-1.66,1.88h0a3.09,3.09,0,0,0-1.67,1.87l-5.69,17.73A1.64,1.64,0,0,0,137,325.7l6.14,2a1.64,1.64,0,0,0,2.07-1.06l5.69-17.73a3.14,3.14,0,0,0-.27-2.49h0A3.1,3.1,0,0,1,150.31,303.9Z" style="opacity:0.2;isolation:isolate"></path><path d="M149.48,313.14l1.37-4.26a3.14,3.14,0,0,0-.27-2.49,3.1,3.1,0,0,1-.27-2.49l1-3.09-5.4-1.73-1,3.08a3.09,3.09,0,0,1-1.66,1.88,3.09,3.09,0,0,0-1.67,1.87l-1.37,4.26Z" style="fill:#fff;opacity:0.5;isolation:isolate"></path><path d="M138.22,316.37l-2.33,7.27A1.64,1.64,0,0,0,137,325.7l6.14,2a1.64,1.64,0,0,0,2.07-1.06l2.33-7.27Z" style="fill:#fff;opacity:0.6000000000000001;isolation:isolate"></path><rect x="145.14" y="299.04" width="6.69" height="2.55" rx="0.53" transform="translate(98.82 -31) rotate(17.78)" style="fill:#2A9D8F"></rect><path d="M132.13,309l1-3.09-5.4-1.73-1,3.08a3.07,3.07,0,0,1-1.66,1.87h0A3.08,3.08,0,0,0,123.4,311l-5.69,17.73a1.64,1.64,0,0,0,1.06,2.06l6.14,2a1.64,1.64,0,0,0,2.07-1.06L132.67,314a3.14,3.14,0,0,0-.27-2.49h0A3.1,3.1,0,0,1,132.13,309Z" style="fill:#2A9D8F"></path><path d="M132.13,309l1-3.09-5.4-1.73-1,3.08a3.07,3.07,0,0,1-1.66,1.87h0A3.08,3.08,0,0,0,123.4,311l-5.69,17.73a1.64,1.64,0,0,0,1.06,2.06l6.14,2a1.64,1.64,0,0,0,2.07-1.06L132.67,314a3.14,3.14,0,0,0-.27-2.49h0A3.1,3.1,0,0,1,132.13,309Z" style="opacity:0.2;isolation:isolate"></path><path d="M131.3,318.21l1.36-4.26a3.1,3.1,0,0,0-.26-2.49,3.1,3.1,0,0,1-.27-2.49l1-3.09-5.4-1.73-1,3.08a3.07,3.07,0,0,1-1.66,1.87A3.09,3.09,0,0,0,123.4,311L122,315.24Z" style="fill:#fff;opacity:0.5;isolation:isolate"></path><path d="M120,321.44l-2.33,7.27a1.63,1.63,0,0,0,1.06,2.06l6.14,2a1.64,1.64,0,0,0,2.07-1.06l2.33-7.27Z" style="fill:#fff;opacity:0.6000000000000001;isolation:isolate"></path><rect x="126.96" y="304.1" width="6.69" height="2.55" rx="0.53" transform="translate(99.5 -25.21) rotate(17.78)" style="fill:#2A9D8F"></rect><path d="M137.55,300.06l-.21-3.23-5.66.35.21,3.24a3.08,3.08,0,0,1-.87,2.34h0a3.07,3.07,0,0,0-.87,2.35l1.62,25.94a1.65,1.65,0,0,0,1.74,1.54l6.44-.41a1.63,1.63,0,0,0,1.53-1.74l-1.62-25.93a3.15,3.15,0,0,0-1.16-2.23h0A3.06,3.06,0,0,1,137.55,300.06Z" style="fill:#2A9D8F"></path><path d="M140.37,312.65l-.51-8.14a3.15,3.15,0,0,0-1.16-2.23,3.06,3.06,0,0,1-1.15-2.22l-.21-3.23-5.66.35.21,3.24a3.08,3.08,0,0,1-.87,2.34,3.07,3.07,0,0,0-.87,2.35l.51,8.15Z" style="fill:#fff;opacity:0.6000000000000001;isolation:isolate"></path><path d="M131.29,323.43l.48,7.62a1.65,1.65,0,0,0,1.74,1.54l6.44-.41a1.63,1.63,0,0,0,1.53-1.74l-.48-7.62Z" style="fill:#fff;opacity:0.6000000000000001;isolation:isolate"></path><rect x="131.19" y="296.11" width="6.69" height="2.55" rx="0.53" transform="translate(-18.31 8.99) rotate(-3.58)" style="fill:#2A9D8F"></rect><path d="M118.11,310l-2.1-2.47-4.32,3.67,2.1,2.47a3.13,3.13,0,0,1,.71,2.4h0a3.06,3.06,0,0,0,.71,2.41L132,338.32a1.64,1.64,0,0,0,2.31.19l4.91-4.18a1.63,1.63,0,0,0,.19-2.31l-16.82-19.81a3.06,3.06,0,0,0-2.25-1.09h0A3.07,3.07,0,0,1,118.11,310Z" style="fill:#2A9D8F"></path><path d="M127.9,318.43l-5.28-6.22a3.06,3.06,0,0,0-2.25-1.09,3.07,3.07,0,0,1-2.26-1.09l-2.1-2.47-4.32,3.67,2.1,2.47a3.13,3.13,0,0,1,.71,2.4,3.09,3.09,0,0,0,.7,2.41l5.29,6.22Z" style="fill:#fff;opacity:0.6000000000000001;isolation:isolate"></path><path d="M127.08,332.5l5,5.82a1.64,1.64,0,0,0,2.31.19l4.91-4.18a1.63,1.63,0,0,0,.19-2.31l-4.94-5.82Z" style="fill:#fff;opacity:0.6000000000000001;isolation:isolate"></path><rect x="110.75" y="308.41" width="6.69" height="2.55" rx="0.53" transform="translate(-173.32 147.46) rotate(-40.33)" style="fill:#2A9D8F"></rect><path d="M138.36,419.07s49.32-1.84,54.76-1.84,1.22-4.45,1.22-4.45.89-15.22,0-21-16.29-46.87-26.79-56.57-10.39-13.35-10.39-13.35,1.66.36,1.66-2.75c0-2.79-11.24-7.31-19.35-7.92-5.44-.4-18.11,4.22-24.3,4.61s-22.25,21-19.9,24.83c.79,1.31,14.32-2.83,14.32-2.83a116.26,116.26,0,0,1-2.79,19c-2.19,8.38-7.65,22.92-7.65,31.12s6.92,24.64,6.92,24.64-2.92,2-2.92,3.61,9.11.92,9.11.92S129.62,419.07,138.36,419.07Z" style="fill:#263238"></path><path d="M193.11,417.23c-5.43,0-54.75,1.84-54.75,1.84-8.73,0-26.1-2-26.1-2s-9.1.73-9.1-.92,2.91-3.61,2.91-3.61-2.38-5.64-4.34-12c-1.39-4.47-2.58-9.29-2.58-12.68,0-8.2,5.46-22.76,7.64-31.12a115.8,115.8,0,0,0,2.8-19h0a106.08,106.08,0,0,1-12,3c-1.24.16-2.13.15-2.31-.15-2.35-3.87,13.71-24.44,19.9-24.83s18.86-5,24.31-4.6c8.09.59,19.33,5.11,19.33,7.91,0,3.11-1.65,2.75-1.65,2.75s-.11,3.65,10.39,13.35,25.9,50.74,26.79,56.57a44.94,44.94,0,0,1,.35,4.73c.2,6.85-.35,16.31-.35,16.31S198.55,417.23,193.11,417.23Z" style="fill:#fff;opacity:0.5;isolation:isolate"></path><path d="M118.41,325.92c-3.78,2.24-8.82,11.84-8.82,11.84h0a106.08,106.08,0,0,1-12,3C102.84,332.57,114.63,327.41,118.41,325.92Z" style="opacity:0.2;isolation:isolate"></path><path d="M119.58,325.48c-.1,0-.51.17-1.17.44A3,3,0,0,1,119.58,325.48Z" style="opacity:0.2;isolation:isolate"></path><path d="M157.16,321.82s-11.27-5.33-15.71-6.06-20.7,4.86-20.7,4.86,15.19-8.74,20.7-7.53S155.58,318.26,157.16,321.82Z" style="opacity:0.2;isolation:isolate"></path><path d="M193.11,417.23c-5.43,0-54.75,1.84-54.75,1.84-8.73,0-26.1-2-26.1-2s-9.1.73-9.1-.92,2.91-3.61,2.91-3.61-2.38-5.64-4.34-12c9.73,5.71,23.6,12.1,37.23,12.33,0,0-18.33-7.89-22.27-16.72,0,0,26.34,14,33,14.35s33.65,2.95,36.08-.77c1.52-2.33,5.84-8.8,8.88-13.31.2,6.85-.35,16.31-.35,16.31S198.55,417.23,193.11,417.23Z" style="opacity:0.2;isolation:isolate"></path></g><g id="freepik--Character--inject-2"><path d="M204.66,401.16l4.92.08c5-23.46,8.52-52.49,10.72-74.38.34-3.44.66-6.68.93-9.71.13-1.45.26-2.83.37-4.16.59-6.59,1-11.81,1.24-15,.18-2.36.27-3.65.27-3.65H205.35l.17,4.52.55,14.93.05,1.71.38,9.86.61,16.78C201,365.74,204.66,401.16,204.66,401.16Z" style="fill:#ebb376"></path><path d="M164.83,399.9l4.84.91c9.68-24.2,18.78-55.19,24.69-76.84.91-3.35,1.76-6.49,2.51-9.34,0-.14.07-.28.11-.42,1.49-5.65,2.64-10.15,3.36-13l.85-3.46-17.5-3-1,7.36-1.46,10.81L181,315l-1,7.36-2.66,19.76C167.28,364.38,164.83,399.9,164.83,399.9Z" style="fill:#ebb376"></path><path d="M181.24,312.89l15.63,1.74c0-.14.07-.28.11-.42,1.49-5.65,2.64-10.15,3.36-13l-17.64.88Z" style="opacity:0.2;isolation:isolate"></path><path d="M205.52,298.83l.55,14.93.05,1.71,15.11,1.68c.13-1.45.26-2.83.37-4.16.59-6.59,1-11.81,1.24-15Z" style="opacity:0.2;isolation:isolate"></path><path d="M219.17,417.46a9.46,9.46,0,0,0-3.07-1.67h0s-3.35-3.32-5-13.31l-4.38-1.14a3.73,3.73,0,0,0-4,1.55,2.07,2.07,0,0,0-.28.58,25.19,25.19,0,0,0-.47,3.25,90.17,90.17,0,0,0-.06,11h.79l.32-6.89c.11-2.34,1.9.4,2.41,2.92s1.6,5.2,6.73,5.32C218.2,419.16,220.68,418.93,219.17,417.46Z" style="fill:#263238"></path><path d="M202.63,403c-.29-2.33-.38-6.4-.38-6.4l9.73,1.08s-1.18,4.62-.21,8.09C206.87,404.46,202.63,403,202.63,403Z" style="fill:#263238"></path><path d="M179.58,417.46a9.51,9.51,0,0,0-3.08-1.67h0s-3.34-3.32-4.95-13.31l-4.38-1.14a3.73,3.73,0,0,0-4,1.55,2.07,2.07,0,0,0-.28.58,25.19,25.19,0,0,0-.47,3.25,90.17,90.17,0,0,0-.06,11h.79l.31-6.89c.12-2.34,1.91.4,2.42,2.92s1.6,5.2,6.73,5.32C178.61,419.16,181.09,418.93,179.58,417.46Z" style="fill:#263238"></path><path d="M163,403c-.28-2.33-.37-6.4-.37-6.4l9.73,1.08s-1.18,4.62-.21,8.09C167.28,404.46,163,403,163,403Z" style="fill:#263238"></path><path d="M179.55,308.07l18.51,2.37.72.08,3.8-13.95,1,14.95,19.84-1c8.84-51.86-6.27-64.11-6.27-64.11l-26.91,5.41C178.06,272.5,181,296.57,181,296.57Z" style="fill:#2A9D8F"></path><path d="M179.55,308.07l18.51,2.37.72.08,3.8-13.95,1,14.95,19.84-1c8.84-51.86-6.27-64.11-6.27-64.11l-26.91,5.41C178.06,272.5,181,296.57,181,296.57Z" style="fill:#fff;opacity:0.5;isolation:isolate"></path><path d="M198.06,310.44l.72.08,3.8-13.95s-8.16-13.94-5.61-21.2C196.61,275.88,187.82,288.92,198.06,310.44Z" style="opacity:0.2;isolation:isolate"></path><path d="M154,214l1-3.09-5.4-1.73-1,3.08a3.07,3.07,0,0,1-1.66,1.87h0a3.14,3.14,0,0,0-1.67,1.88l-5.69,17.73a1.64,1.64,0,0,0,1.06,2.06l6.14,2a1.64,1.64,0,0,0,2.07-1.06L154.51,219a3.1,3.1,0,0,0-.27-2.49h0A3.1,3.1,0,0,1,154,214Z" style="fill:#2A9D8F"></path><path d="M154,214l1-3.09-5.4-1.73-1,3.08a3.07,3.07,0,0,1-1.66,1.87h0a3.14,3.14,0,0,0-1.67,1.88l-5.69,17.73a1.64,1.64,0,0,0,1.06,2.06l6.14,2a1.64,1.64,0,0,0,2.07-1.06L154.51,219a3.1,3.1,0,0,0-.27-2.49h0A3.1,3.1,0,0,1,154,214Z" style="opacity:0.2;isolation:isolate"></path><path d="M153.14,223.28l1.37-4.26a3.1,3.1,0,0,0-.27-2.49A3.1,3.1,0,0,1,154,214l1-3.09-5.4-1.73-1,3.08a3.07,3.07,0,0,1-1.66,1.87,3.11,3.11,0,0,0-1.67,1.88l-1.37,4.26Z" style="fill:#fff;opacity:0.5;isolation:isolate"></path><path d="M141.88,226.51l-2.33,7.27a1.64,1.64,0,0,0,1.06,2.06l6.14,2a1.64,1.64,0,0,0,2.07-1.06l2.33-7.27Z" style="fill:#fff;opacity:0.6000000000000001;isolation:isolate"></path><rect x="148.8" y="209.18" width="6.69" height="2.55" rx="0.53" transform="translate(71.55 -36.41) rotate(17.78)" style="fill:#2A9D8F"></rect><path d="M251.67,182.81l-.2-3.24-5.66.36.2,3.23a3.1,3.1,0,0,1-.87,2.35h0a3.11,3.11,0,0,0-.87,2.35l1.62,25.94a1.64,1.64,0,0,0,1.74,1.53l6.44-.4a1.64,1.64,0,0,0,1.53-1.74L254,187.25a3.06,3.06,0,0,0-1.15-2.22h0A3,3,0,0,1,251.67,182.81Z" style="fill:#2A9D8F"></path><path d="M254.49,195.39l-.51-8.14a3.06,3.06,0,0,0-1.15-2.22,3,3,0,0,1-1.16-2.22l-.2-3.24-5.66.36.2,3.23a3.1,3.1,0,0,1-.87,2.35,3.11,3.11,0,0,0-.87,2.35l.51,8.14Z" style="fill:#fff;opacity:0.6000000000000001;isolation:isolate"></path><path d="M245.42,206.18l.47,7.62a1.64,1.64,0,0,0,1.74,1.53l6.44-.4a1.64,1.64,0,0,0,1.53-1.74l-.47-7.62Z" style="fill:#fff;opacity:0.6000000000000001;isolation:isolate"></path><rect x="245.32" y="178.86" width="6.69" height="2.55" rx="0.53" transform="translate(-10.76 15.88) rotate(-3.58)" style="fill:#2A9D8F"></rect><path d="M151.52,229.33a27.06,27.06,0,0,1,0-3c.1-1.33-6.63-8.65-7.72-8.27s-3.46,5.07-2.73,6.64,6,6.3,7.28,6.67S151.52,229.33,151.52,229.33Z" style="fill:#ebb376"></path><path d="M175.27,219.63s-3,15.1-6.26,18.14-18.22-12.43-18.22-12.43l-2.94,3.15s14.73,19.44,22.63,16.12,14.19-20.94,14.19-20.94Z" style="fill:#ebb376"></path><polygon points="176.8 213.44 171.78 225.11 183.01 232.8 190.79 225.11 176.8 213.44" style="fill:#2A9D8F"></polygon><polygon points="171.78 225.12 178.43 229.67 183.01 232.8 186.78 229.07 190.78 225.12 176.8 213.44 171.78 225.12" style="fill:#fff;opacity:0.2;isolation:isolate"></polygon><path d="M178.43,229.67,183,232.8l3.77-3.73c-3.55-5-7.58-9.77-7.58-9.77A22.88,22.88,0,0,0,178.43,229.67Z" style="opacity:0.2;isolation:isolate"></path><path d="M221.8,211.07s10.17,11.53,14.54,12.5,9.47-19.92,9.47-19.92l4.13,1.23S247,229.1,238.53,230.22s-22.82-10.92-22.82-10.92Z" style="fill:#ebb376"></path><path d="M206.59,183.36a18,18,0,0,0,2,3.83,2.36,2.36,0,0,1-2.35.67Z" style="fill:#d58745"></path><path d="M207.72,181.19c0,.7-.3,1.29-.76,1.32s-.88-.51-.93-1.21.29-1.29.76-1.32S207.67,180.49,207.72,181.19Z" style="fill:#263238"></path><path d="M206.59,180l1.48-.7S207.4,180.66,206.59,180Z" style="fill:#263238"></path><path d="M208.31,177.48a.32.32,0,0,1-.19,0,3.59,3.59,0,0,0-3.1-.52.37.37,0,0,1-.47-.2.36.36,0,0,1,.19-.47,4.31,4.31,0,0,1,3.75.57.36.36,0,0,1,.13.5A.37.37,0,0,1,208.31,177.48Z" style="fill:#263238"></path><path d="M207.05,185.69c-1.27,0-2.27-1.73-2.27-3.94s1-3.94,2.27-3.94,2.27,1.73,2.27,3.94S208.32,185.69,207.05,185.69Zm0-7.38c-1,0-1.77,1.57-1.77,3.44s.81,3.44,1.77,3.44,1.77-1.58,1.77-3.44S208,178.31,207.05,178.31Z" style="fill:#263238"></path><path d="M191.74,194.1a1.18,1.18,0,0,0,.24.17,10.57,10.57,0,0,0,3.76,1.84c4,.92,6.69.38,8.46-1.42h0c2.48-2.7,3.1-7.48,2.75-13.24a21.52,21.52,0,0,0-1.26-6.74s0-.08,0-.1a2.44,2.44,0,0,0-.1-.24,7.89,7.89,0,0,0-5.78-4.81,16.36,16.36,0,0,0-3.41-.38C185.15,169.06,183.13,187.68,191.74,194.1Z" style="fill:#ebb376"></path><path d="M192,194.27a10.48,10.48,0,0,0,3.76,1.69c4,.91,6.69.24,8.46-1.59a11.19,11.19,0,0,1-7.13-.58A5.85,5.85,0,0,0,192,194.27Z" style="opacity:0.2;isolation:isolate"></path><path d="M190.84,204.43c-.7,3.2,3.45,4.5,3.45,4.5,6.78-2.89,8-6.5,8-6.5-5.66-3-4-11.29-4-11.29l-1.15.56-8.08,1.58s2.24,4.3,2.54,5.28v0C193.15,203.72,190.84,204.43,190.84,204.43Z" style="fill:#ebb376"></path><path d="M205.7,174.64s.62,7.88-6.85,11.27c0,0-3.2,8.19-7.93,8.3-6.43.16-12.11-9-9.88-18.33C183.93,163.78,202.26,162.8,205.7,174.64Z" style="fill:#263238"></path><path d="M202.64,183.64c0-1.23-1-3.29-2.91-3s-3.07,5.17,1.79,6.26C202.22,187,202.64,186.21,202.64,183.64Z" style="fill:#ebb376"></path><path d="M192,166.26s7.52-1.9,11.67,1.12c4.86,3.53,6.7,7.19.95,12.86,0,0-12.62-4.1-16.82-3.23a45.74,45.74,0,0,0-7.2,2.09C179.7,170.76,187.78,164.56,192,166.26Z" style="fill:#263238"></path><path d="M209.07,181.42h-7.55a.26.26,0,0,1-.25-.25.25.25,0,0,1,.25-.25h7.55a.25.25,0,0,1,.25.25A.25.25,0,0,1,209.07,181.42Z" style="fill:#263238"></path><path d="M186.41,171s-7.78-6.48-14.33-1.77C164,175,173,197.38,173.54,203s-2.19,8.12-2.19,8.12,6,.13,8.2-9.4-4.58-25.49,4.08-23.61Z" style="fill:#263238"></path><path d="M213.34,203.65s-9-3-22.5.67-14,9.12-14,9.12,8.57,18.33,9.92,39.09L222,251.28S226.19,222,213.34,203.65Z" style="fill:#2A9D8F"></path><path d="M176.8,213.43s8.58,18.34,9.93,39.1L222,251.29a83.17,83.17,0,0,0,.64-10.15,92.85,92.85,0,0,0-1-14.89c-1.17-7.68-3.6-15.88-8.31-22.6,0,0-9-3-22.5.67S176.8,213.43,176.8,213.43Z" style="fill:#fff;opacity:0.2;isolation:isolate"></path><path d="M213.24,219.3s2.06,16.64,9.39,21.84a92.85,92.85,0,0,0-1-14.89Z" style="opacity:0.2;isolation:isolate"></path><path d="M213.34,203.65c10.47,4.3,18.27,12.81,18.27,12.81l-8.5,10.42s-4.24-.88-6.79-3.19C208.79,216.91,213.34,203.65,213.34,203.65Z" style="fill:#2A9D8F"></path><path d="M213.34,203.65c10.47,4.3,18.27,12.81,18.27,12.81l-8.5,10.42s-4.24-.88-6.79-3.19C208.79,216.91,213.34,203.65,213.34,203.65Z" style="fill:#fff;opacity:0.2;isolation:isolate"></path><path d="M245.55,204.68a26.86,26.86,0,0,0,0-3c-.1-1.34,6.63-8.66,7.72-8.28s3.46,5.07,2.74,6.64-6,6.31-7.29,6.67S245.55,204.68,245.55,204.68Z" style="fill:#ebb376"></path></g></svg>