<svg xmlns="http://www.w3.org/2000/svg" viewBox="0 0 500 500"><g id="freepik--Floor--inject-10"><ellipse id="freepik--floor--inject-10" cx="249.99" cy="344.07" rx="239.83" ry="138.46" style="fill:#f5f5f5"></ellipse></g><g id="freepik--Shadows--inject-10"><path id="freepik--Shadow--inject-10" d="M147,243.42c-10.33,6-10.33,15.8,0,21.83s27.07,6,37.39,0,10.33-15.8,0-21.83S157.36,237.39,147,243.42Z" style="fill:#e6e6e6"></path><path id="freepik--shadow--inject-10" d="M401,331.67l41.46-23.89a1.07,1.07,0,0,0,0-2L340,246.39a3.87,3.87,0,0,0-3.49,0L295,270.28a1.06,1.06,0,0,0,0,2l102.44,59.36A3.87,3.87,0,0,0,401,331.67Z" style="fill:#e6e6e6"></path><path id="freepik--shadow--inject-10" d="M176.52,433l-152-87.73c-4.61-2.67-4.61-7,0-9.66l61.74-35.64c4.62-2.67,12.11-2.67,16.73,0l152,87.73c4.62,2.67,4.62,7,0,9.66L193.25,433C188.63,435.63,181.14,435.63,176.52,433Z" style="fill:#e0e0e0"></path></g><g id="freepik--Pictures--inject-10"><g id="freepik--Picture--inject-10"><g id="freepik--Frame--inject-10"><polygon points="94.3 83.71 95.95 84.69 129.71 65.2 128.06 64.22 94.3 83.71" style="fill:#fafafa"></polygon><polygon points="128.06 64.22 95.95 82.76 95.95 49.13 128.06 30.6 128.06 64.22" style="fill:#fff"></polygon><path d="M132.81,24.26l-40,23.08V90.07l40-23.08Zm-3.1,40.94L96,84.7V49.13l33.76-19.49Z" style="fill:#f0f0f0"></path><polygon points="129.71 65.2 128.06 64.22 128.06 30.6 129.71 29.64 129.71 65.2" style="fill:#e0e0e0"></polygon><polygon points="132.81 24.26 131.14 23.3 91.17 46.38 92.84 47.34 132.81 24.26" style="fill:#fafafa"></polygon><polygon points="91.17 46.38 92.84 47.34 92.84 90.07 91.17 89.11 91.17 46.38" style="fill:#e0e0e0"></polygon></g><g id="freepik--Land--inject-10"><polygon points="126.81 63.22 97.2 80.31 97.2 71.76 104.6 54.67 109.22 58.94 107.56 66.11 117.78 44.24 126.81 54.67 126.81 63.22" style="fill:#f0f0f0"></polygon><path d="M108.94,46.42a4.82,4.82,0,0,0-2.19,3.79c0,1.4,1,2,2.19,1.26a4.82,4.82,0,0,0,2.19-3.79C111.13,46.28,110.15,45.72,108.94,46.42Z" style="fill:#f0f0f0"></path></g></g><g id="freepik--picture--inject-10"><g id="freepik--frame--inject-10"><polygon points="41.04 123.31 42.68 124.29 76.44 104.8 74.8 103.82 41.04 123.31" style="fill:#fafafa"></polygon><polygon points="74.8 103.82 42.68 122.35 42.68 88.72 74.8 70.2 74.8 103.82" style="fill:#fff"></polygon><path d="M79.55,63.85l-40,23.08v42.74l40-23.08ZM76.44,104.8,42.68,124.29V88.72L76.44,69.23Z" style="fill:#f0f0f0"></path><polygon points="76.44 104.8 74.8 103.82 74.8 70.2 76.44 69.23 76.44 104.8" style="fill:#e0e0e0"></polygon><polygon points="79.55 63.85 77.88 62.9 37.91 85.97 39.58 86.93 79.55 63.85" style="fill:#fafafa"></polygon><polygon points="37.91 85.97 39.58 86.93 39.58 129.66 37.91 128.71 37.91 85.97" style="fill:#e0e0e0"></polygon></g><g id="freepik--land--inject-10"><polygon points="73.54 102.81 43.94 119.9 43.94 111.36 51.34 94.26 55.95 98.54 54.29 105.7 64.52 83.84 73.54 94.26 73.54 102.81" style="fill:#f0f0f0"></polygon><path d="M55.67,86a4.85,4.85,0,0,0-2.19,3.79c0,1.4,1,2,2.19,1.27a4.85,4.85,0,0,0,2.19-3.8C57.86,85.88,56.88,85.31,55.67,86Z" style="fill:#f0f0f0"></path></g></g></g><g id="freepik--Window--inject-10"><g id="freepik--window--inject-10"><polygon points="443.07 170.13 440.44 171.7 341.97 114.58 344.6 113.01 443.07 170.13" style="fill:#fafafa"></polygon><polygon points="344.6 113.01 440.44 168.6 440.44 87.29 344.6 31.72 344.6 113.01" style="fill:#fff"></polygon><polygon points="392.45 56.68 392.45 141.09 387.48 138.22 387.48 53.81 392.45 56.68" style="fill:#f0f0f0"></polygon><polygon points="394.93 55.24 392.45 56.68 392.45 141.09 394.93 139.65 394.93 55.24" style="fill:#e0e0e0"></polygon><path d="M337,117.45l108.41,62.86V84.42L337,21.56Zm5-87.28,98.47,57.12V171.7L342,114.59Z" style="fill:#f0f0f0"></path><polygon points="341.97 114.58 344.6 113.01 344.6 31.72 341.97 30.17 341.97 114.58" style="fill:#e0e0e0"></polygon><polygon points="337 21.56 339.67 20.03 448.08 82.89 445.41 84.42 337 21.56" style="fill:#fafafa"></polygon><polygon points="448.08 82.89 445.41 84.42 445.41 180.31 448.08 178.78 448.08 82.89" style="fill:#e0e0e0"></polygon><polygon points="392.45 59.54 387.49 56.68 387.49 59.55 392.45 62.41 392.45 59.54" style="fill:#e0e0e0"></polygon><polygon points="392.45 62.41 394.93 60.97 392.45 59.54 392.45 62.41" style="opacity:0.15"></polygon></g></g><g id="freepik--Furniture--inject-10"><g id="freepik--Drawer--inject-10"><polygon points="392.18 308.56 395.74 326.22 399.2 328.22 402.63 326.24 406.23 308.56 399.2 304.51 392.18 308.56" style="fill:#e0e0e0"></polygon><polygon points="392.18 308.56 395.74 326.22 399.2 328.22 402.63 326.24 406.23 308.56 399.2 304.51 392.18 308.56" style="opacity:0.05"></polygon><polygon points="399.2 328.22 399.2 312.61 392.18 308.56 395.74 326.22 399.2 328.22" style="fill:#ebebeb"></polygon><polygon points="392.18 308.56 394.48 319.96 399.2 322.69 403.91 319.98 406.23 308.56 399.2 304.51 392.18 308.56" style="opacity:0.05"></polygon><polygon points="423.06 290.74 426.62 308.4 430.08 310.39 433.51 308.41 437.1 290.74 430.07 286.68 423.06 290.74" style="fill:#e0e0e0"></polygon><polygon points="423.06 290.74 426.62 308.4 430.08 310.39 433.51 308.41 437.1 290.74 430.07 286.68 423.06 290.74" style="opacity:0.05"></polygon><polygon points="430.08 310.39 430.07 294.79 423.06 290.74 426.62 308.4 430.08 310.39" style="fill:#ebebeb"></polygon><polygon points="423.06 290.74 425.35 302.14 430.08 304.87 434.78 302.15 437.1 290.74 430.07 286.68 423.06 290.74" style="opacity:0.05"></polygon><polygon points="300.86 255.83 304.43 273.5 307.88 275.49 311.31 273.51 314.91 255.84 307.88 251.78 300.86 255.83" style="opacity:0.05"></polygon><polygon points="307.88 275.49 307.88 259.89 300.86 255.83 304.43 273.5 307.88 275.49" style="fill:#ebebeb"></polygon><polygon points="300.86 255.83 303.16 267.24 307.89 269.97 312.59 267.25 314.91 255.84 307.88 251.78 300.86 255.83" style="opacity:0.05"></polygon><g id="freepik--Cabinet--inject-10"><g id="freepik--cabinet--inject-10"><polygon points="399.2 319.84 437.46 297.75 437.46 214.95 399.21 237.04 399.2 319.84" style="fill:#e0e0e0"></polygon><polygon points="399.21 237.04 298.88 179.11 298.87 261.91 399.2 319.84 399.21 237.04" style="fill:#ebebeb"></polygon><polygon points="298.88 179.11 399.21 237.04 437.46 214.95 337.13 157.02 298.88 179.11" style="fill:#f5f5f5"></polygon><polygon points="393.74 278.06 304.34 226.44 304.34 256.83 303.34 257.41 392.74 309.02 393.74 308.44 393.74 278.06" style="fill:#e0e0e0"></polygon><polygon points="392.74 278.64 303.33 227.02 303.34 257.41 392.74 309.02 392.74 278.64" style="fill:#f5f5f5"></polygon><path d="M349.75,259.57l-7.43-4.3c-1-.55-1.75-.3-1.75.57a3.5,3.5,0,0,0,1.75,2.59l7.44,4.29c1,.56,1.74.3,1.74-.57A3.47,3.47,0,0,0,349.75,259.57Z" style="fill:#e0e0e0"></path><polygon points="393.74 241.36 304.34 189.75 304.34 220.14 303.34 220.72 392.74 272.33 393.74 271.75 393.74 241.36" style="fill:#e0e0e0"></polygon><polygon points="392.74 241.94 303.34 190.33 303.34 220.72 392.74 272.33 392.74 241.94" style="fill:#f5f5f5"></polygon><path d="M349.76,222.87l-7.44-4.29c-1-.56-1.75-.3-1.75.57a3.53,3.53,0,0,0,1.75,2.59l7.44,4.29c1,.56,1.75.3,1.74-.57A3.51,3.51,0,0,0,349.76,222.87Z" style="fill:#e0e0e0"></path></g></g><g id="freepik--Pot--inject-10"><path d="M324.32,167.69c-4.64,2.68-4.64,7,0,9.69s12.16,2.68,16.8,0,4.63-7,0-9.69S329,165,324.32,167.69Z" style="fill:#e0e0e0"></path><path d="M340.1,173.13c4-4.12,6.42-14.41,2.48-17.68H322.53C318.59,158.72,321,169,325,173.13a1.14,1.14,0,0,0,.11.11,1.85,1.85,0,0,0,.14.14,3.87,3.87,0,0,0,.37.32l.09.08a3.55,3.55,0,0,0,.31.23,4.13,4.13,0,0,0,.52.33,13.28,13.28,0,0,0,12,0h0a5.1,5.1,0,0,0,.53-.33l.28-.22.12-.09.35-.31c.06,0,.11-.11.16-.16A.43.43,0,0,0,340.1,173.13Z" style="fill:#ebebeb"></path><path d="M324.27,154.14c-4.57,2.64-4.57,6.92,0,9.56s12,2.64,16.57,0,4.57-6.92,0-9.56S328.85,151.5,324.27,154.14Z" style="fill:#fafafa"></path><path d="M327.52,156c-2.79,1.61-2.79,4.21,0,5.82a11.16,11.16,0,0,0,10.07,0c2.79-1.61,2.79-4.21,0-5.82A11.1,11.1,0,0,0,327.52,156Z" style="fill:#f5f5f5"></path><path d="M337.59,158.77a11.1,11.1,0,0,0-10.07,0,4.56,4.56,0,0,0-1.67,1.53,4.56,4.56,0,0,0,1.67,1.53,11.16,11.16,0,0,0,10.07,0,4.56,4.56,0,0,0,1.67-1.53A4.56,4.56,0,0,0,337.59,158.77Z" style="fill:#ebebeb"></path><path d="M328.13,160.3a22.81,22.81,0,0,1-3.64-4.85c-1.69-3-2-7-1.13-7.45s4.41,3.48,4.41,3.48a21.57,21.57,0,0,1-.37-5.08c.15-2.65.8-5.06,1.55-5.54s2.46,2.86,3.19,5.28,1.16,4.41,1.16,4.41a37.52,37.52,0,0,1,1.31-5.57c.88-2.52,1.68-3.09,2.31-2.84s1,1.42,1.21,4.78a32.7,32.7,0,0,1-.15,4.79s1.25-1.37,2.63-2.7,2.18-1.67,2.61-1.39.56,2.56-1.8,6.82A23.91,23.91,0,0,1,337,160.3S333.71,162.4,328.13,160.3Z" style="fill:#e0e0e0"></path></g><g id="freepik--picture--inject-10"><g id="freepik--frame--inject-10"><polygon points="394.14 219.28 392.65 220 365.05 204.07 366.54 203.35 394.14 219.28" style="fill:#fafafa"></polygon><polygon points="366.54 203.35 392.79 218.5 396.61 179.24 370.36 164.1 366.54 203.35" style="fill:#fff"></polygon><path d="M362.25,205.38l32.66,18.86,4.51-46.31-32.67-18.86ZM369,163.31l27.59,15.93-4,40.76-27.6-15.93Z" style="fill:#f0f0f0"></path><polygon points="365.05 204.07 366.54 203.35 370.36 164.1 369.02 163.31 365.05 204.07" style="fill:#e0e0e0"></polygon><polygon points="366.75 159.07 368.26 158.38 400.93 177.24 399.42 177.93 366.75 159.07" style="fill:#fafafa"></polygon><polygon points="400.93 177.24 399.42 177.93 394.91 224.24 396.42 223.54 400.93 177.24" style="fill:#e0e0e0"></polygon></g><g id="freepik--land--inject-10"><polygon points="367.7 202.61 391.9 216.58 392.54 209.96 388.04 190.53 383.75 197.16 384.64 202.75 377.48 182.13 368.34 195.99 367.7 202.61" style="fill:#f0f0f0"></polygon><path d="M388.41,182.35a3.39,3.39,0,0,1,1.6,3c-.1,1.08-1,1.5-2,.93a3.41,3.41,0,0,1-1.6-3C386.54,182.2,387.42,181.78,388.41,182.35Z" style="fill:#f0f0f0"></path></g></g></g></g><g id="freepik--Plant--inject-10"><g id="freepik--plant--inject-10"><g id="freepik--pot--inject-10"><g id="freepik--pot--inject-10"><path d="M150.67,257.78c-8.06-8.32-12.8-42.17-4.93-48.76h40c7.85,6.59,3.13,40.43-4.93,48.75l-.22.23-.28.27c-.23.22-.47.44-.73.66l-.19.15c-.2.16-.39.31-.61.46a10.88,10.88,0,0,1-1,.68c-6.63,3.87-17.38,3.87-24,0h0a12.43,12.43,0,0,1-1-.68c-.2-.14-.38-.29-.56-.43l-.24-.19c-.25-.21-.49-.42-.71-.63s-.21-.21-.32-.32Z" style="fill:#ebebeb"></path><path d="M182.26,206.36c9.13,5.33,9.13,14,0,19.3s-23.92,5.33-33,0-9.13-14,0-19.3S173.14,201,182.26,206.36Z" style="fill:#f5f5f5"></path><path d="M177.87,208.92c6.7,3.92,6.7,10.26,0,14.17s-17.57,3.92-24.27,0-6.7-10.25,0-14.17S171.17,205,177.87,208.92Z" style="fill:#e0e0e0"></path><path d="M153.6,215.65c6.7-3.91,17.57-3.91,24.27,0a11.24,11.24,0,0,1,4,3.72,11.15,11.15,0,0,1-4,3.72c-6.7,3.92-17.57,3.92-24.27,0a11,11,0,0,1-4-3.72A11.12,11.12,0,0,1,153.6,215.65Z" style="fill:#fafafa"></path></g><g id="freepik--Plants--inject-10"><path d="M183.68,146.59l-15.19,12,14.69-6.78a40.75,40.75,0,0,1-2.55,13.91,90.3,90.3,0,0,0-11.43,8.11l11.25-4.45s.77,7.42-2.31,18.74c-.81,3-4.14,8.62-6.24,12.85a48.85,48.85,0,0,1-3.27,5.65c-.07.12-.15.22-.23.34q-3.87-2.2-8-4.28c-1.81-3.81-4.16-13.21-5-20.91-3.24-29.46,19-46.35,37-52C192.31,129.79,186.16,137.51,183.68,146.59Z" style="fill:#f0f0f0"></path><path d="M171,147.82c-3.1,3.12-4.91,7.22-6.3,11.32a59.83,59.83,0,0,0-2.7,12.75,55.23,55.23,0,0,0,3.22,25.59h0a.42.42,0,0,1-.24.55.43.43,0,0,1-.56-.24h0a55.86,55.86,0,0,1-2.84-25.94,59.52,59.52,0,0,1,2.92-12.78C165.94,155,167.83,150.89,171,147.82Z" style="fill:#fff"></path><path d="M118,162s0,0,0,0a228.07,228.07,0,0,1,15.87,22.3l15.41,2.48-11.37,2,6.1,9.67,15.17,3.14-11.84,1.92s3.29,11.56,11.76,16.38c4.68,2.65,7,3.06,8.37,1.72,1-.93,1.21-6.47,2-11.42s.89-13-3.78-22.69a30.52,30.52,0,0,0-4.85-7.14C149.62,167.91,128.43,161.89,118,162Z" style="fill:#f5f5f5"></path><path d="M134.07,167.08a62.85,62.85,0,0,1,21.43,14.81,42.13,42.13,0,0,1,7.34,10.89,39.76,39.76,0,0,1,3.35,12.66s0,.05,0,.05a0,0,0,0,1,0,0,51.5,51.5,0,0,0-4-12.31,47.6,47.6,0,0,0-7.08-10.8,64,64,0,0,0-21-15.18,0,0,0,0,1,0-.06A0,0,0,0,1,134.07,167.08Z" style="fill:#fff"></path><path d="M209.75,168.4h0a34,34,0,0,0-3.88.18A61.92,61.92,0,0,0,191,172.19c-1.77.66-3.55,1.41-5.3,2.24-.87.42-1.74.86-2.59,1.32a43,43,0,0,0-11.36,8.59,27.13,27.13,0,0,0-3.91,5.5c-.14.26-.29.51-.42.77h0c-.33.68-.63,1.35-.91,2a37.13,37.13,0,0,0-3.35,18.25c.16,4.42,1.67,9.48,2.53,10.31a2.55,2.55,0,0,0,.38.29c1.26.8,3.27.33,7-1.77,7.51-4.2,10.45-14.83,10.45-14.83l-10.43-1.78,13.4-2.67,5.44-8.49-10-1.82,13.62-2.1a199.17,199.17,0,0,1,14.14-19.58l0,0Z" style="fill:#f0f0f0"></path><path d="M205.87,168.58A61.92,61.92,0,0,0,191,172.19c-1.77.66-3.55,1.41-5.3,2.24-.87.42-1.74.86-2.59,1.32a43,43,0,0,0-11.36,8.59,27.13,27.13,0,0,0-3.91,5.5c-.14.26-.29.51-.42.77h0c-.33.68-.63,1.35-.91,2a37.13,37.13,0,0,0-3.35,18.25c.16,4.42,1.67,9.48,2.53,10.31a2.55,2.55,0,0,0,.38.29,2.49,2.49,0,0,0,.83.3c-.93-6.86,2.45-24.24,7.55-31.39,5.31-7.44,17.92-18.23,35.24-22l0,0A33.4,33.4,0,0,0,205.87,168.58Z" style="fill:#e6e6e6"></path><path d="M166.9,221.76a58.89,58.89,0,0,1,1-15.16,49.23,49.23,0,0,1,5-14.38,42.85,42.85,0,0,1,10.18-11.37A57,57,0,0,1,196.15,173a0,0,0,0,1,.06,0,0,0,0,0,1,0,0,74.6,74.6,0,0,0-12.56,8.41,56,56,0,0,0-5.52,5.14,33.38,33.38,0,0,0-4.61,5.92,48.43,48.43,0,0,0-5.2,14.12A58.64,58.64,0,0,0,167,221.76a0,0,0,1,1-.08,0Z" style="fill:#fff"></path></g></g></g></g><g id="freepik--Divan--inject-10"><g id="freepik--divan--inject-10"><path d="M179.38,417.41h11l-1.75,10.73h0a2,2,0,0,1-1.07,1.33,5.93,5.93,0,0,1-5.32,0,2,2,0,0,1-1.07-1.33h0Z" style="fill:#fafafa"></path><path d="M236.65,383.43h11l-1.76,10.74h0a2,2,0,0,1-1.07,1.32,5.87,5.87,0,0,1-5.32,0,2,2,0,0,1-1.07-1.32h0Z" style="fill:#fafafa"></path><path d="M31.88,332.24h11L41.13,343h0A2,2,0,0,1,40,344.29a5.87,5.87,0,0,1-5.32,0A2,2,0,0,1,33.66,343h0Z" style="fill:#fafafa"></path><path d="M89.15,298.26h11L98.4,309h0a2,2,0,0,1-1.07,1.33,5.87,5.87,0,0,1-5.32,0A2,2,0,0,1,90.93,309h0Z" style="fill:#fafafa"></path><path d="M96.61,264.52l2,1.13,17.2,29.27a21.18,21.18,0,0,0,6.59,6.6l125,72.18a3,3,0,0,1,1.74,2.37c0,.89,0,6.27,0,7.14a2.92,2.92,0,0,1-1.73,2.44l-58.33,33.68a9.26,9.26,0,0,1-8.36,0L32.62,333.76a9.27,9.27,0,0,1-4.19-7.25V306.45a9.23,9.23,0,0,1,4.19-7.24L90.47,265.8C92.78,264.47,95.53,263.9,96.61,264.52Z" style="fill:#ebebeb"></path><path d="M34.52,308.21l14.56,25.22a21.43,21.43,0,0,0,6.6,6.6l125,72.18a9.26,9.26,0,0,0,8.36,0l58.33-33.68c2.31-1.33,2.31-3.5,0-4.83l-125-72.18a21.18,21.18,0,0,1-6.59-6.6L101,269.82a4.88,4.88,0,0,0-6.63-1.75l-58.1,33.54A4.84,4.84,0,0,0,34.52,308.21Z" style="fill:#e0e0e0"></path><path d="M34.52,308.21l14.56,25.22a21.43,21.43,0,0,0,6.6,6.6l125,72.18a9.26,9.26,0,0,0,8.36,0l58.33-33.68c2.31-1.33,2.31-3.5,0-4.83l-125-72.18a21.18,21.18,0,0,1-6.59-6.6L101,269.82a4.88,4.88,0,0,0-6.63-1.75l-58.1,33.54A4.84,4.84,0,0,0,34.52,308.21Z" style="opacity:0.1"></path><path d="M184.88,413.21v7.12a8.58,8.58,0,0,0,4.18-1l58.34-33.67a2.93,2.93,0,0,0,1.72-2.45c0-.84,0-6.07,0-7.09a2.92,2.92,0,0,1-1.73,2.41l-58.34,33.68A8.61,8.61,0,0,1,184.88,413.21Z" style="fill:#f5f5f5"></path><path d="M251.58,354.29v13a9.23,9.23,0,0,1-4.19,7.24L189.06,408.2a9.26,9.26,0,0,1-8.36,0L59.34,338.13a21.9,21.9,0,0,1-6.65-6.56L16.44,270.78a20.7,20.7,0,0,1-2.47-9V246.55a9.22,9.22,0,0,1,4.18-7.24l58.33-33.68a4.84,4.84,0,0,1,6.6,1.77l15.4,31.13,21,31.85a30.09,30.09,0,0,0,4.4,5.33l121.35,70.07C249.7,348.38,251.58,351.62,251.58,354.29Z" style="fill:#ebebeb"></path><path d="M184.88,386.56V409.2a8.47,8.47,0,0,0,4.18-1l58.34-33.68a9.22,9.22,0,0,0,4.18-7.24v-13a9.33,9.33,0,0,0-3.76-7c1.88,1.34,1.73,3.31-.42,4.56l-58.34,33.67A8.51,8.51,0,0,1,184.88,386.56Z" style="opacity:0.1"></path><path d="M76.48,205.63,18.15,239.31a4.81,4.81,0,0,0-1.76,6.59l36.36,63a21.15,21.15,0,0,0,6.59,6.59L180.7,385.55a9.26,9.26,0,0,0,8.36,0l58.33-33.68c2.31-1.33,2.31-3.49,0-4.83-8.16-8.81-19.64-16-31.12-18-9.51-10.37-18.9-15.31-31.39-18.12-8.36-10.94-19-17.05-31.38-18.12A48.44,48.44,0,0,0,126,277a21.32,21.32,0,0,1-6.6-6.6c-4-13.1-9.1-22.85-21-31.85C96,227,91.84,215.19,83.08,207.4A4.84,4.84,0,0,0,76.48,205.63Z" style="fill:#f5f5f5"></path><path d="M78.89,206a3.88,3.88,0,0,1,3.35,1.93l.08.14.12.1c7.24,6.44,12,16.17,15.1,30.61l.07.35.29.22c12,9.1,16.78,18.75,20.62,31.36l0,.11.06.09a21.76,21.76,0,0,0,7,6.95l.13.08.15,0a47.21,47.21,0,0,1,26.94,15.56l.25.28.39,0c12.17,1,22.5,7,30.7,17.74l.21.28.34.08c13,2.92,22,8.09,30.89,17.83l.22.24.32.06c10.62,1.84,22.05,8.45,30.58,17.67l.1.11.13.07c.79.46,1.25,1,1.25,1.58s-.46,1.12-1.25,1.58l-58.33,33.67a8.3,8.3,0,0,1-7.4,0L59.83,314.65a20.48,20.48,0,0,1-6.25-6.25l-36.36-63a3.87,3.87,0,0,1,1.42-5.28L77,206.47a3.88,3.88,0,0,1,1.93-.52m0-1a4.8,4.8,0,0,0-2.41.65L18.15,239.31a4.81,4.81,0,0,0-1.76,6.59l36.36,63a21.15,21.15,0,0,0,6.59,6.59L180.7,385.55a9.24,9.24,0,0,0,8.36,0l58.33-33.68c2.31-1.33,2.31-3.49,0-4.83-8.16-8.81-19.64-16-31.12-18-9.51-10.37-18.9-15.31-31.39-18.12-8.36-10.94-19-17.05-31.38-18.12A48.44,48.44,0,0,0,126,277a21.32,21.32,0,0,1-6.6-6.6c-4-13.1-9.1-22.85-21-31.85C96,227,91.84,215.19,83.08,207.4A4.84,4.84,0,0,0,78.89,205Z" style="fill:#e0e0e0"></path><path d="M18.15,239.31l58.33-33.68a4.84,4.84,0,0,1,6.6,1.77c8.76,7.79,13,19.6,15.4,31.13,11.86,9,17,18.75,21,31.85a19.85,19.85,0,0,0,3.25,4v0L56,312.87a19.9,19.9,0,0,1-3.26-4l-36.36-63A4.81,4.81,0,0,1,18.15,239.31Z" style="opacity:0.1"></path><path d="M66.55,236.14c2-.53,3.94-1,5.47-2.39a7.23,7.23,0,0,0,1.13-1.39,5.11,5.11,0,0,1,.82-1.3.79.79,0,0,1,.4-.13,7.37,7.37,0,0,0-1.45-3.77,11.91,11.91,0,0,0-1.31-1.77c-.43-.46-1-.86-1.35-1.35-.08-.1,0-.34.12-.33a3.63,3.63,0,0,1,2,1.14,11.14,11.14,0,0,1,1.88,2.29,9.54,9.54,0,0,1,1,2.14,5.52,5.52,0,0,1,.21,1,3.13,3.13,0,0,1,0,.52,1.63,1.63,0,0,1,.63-.25A12,12,0,0,0,79.45,229a8.37,8.37,0,0,0,3.79-4.38c0-.08.11,0,.1.08a7.56,7.56,0,0,1-.81,2,7.82,7.82,0,0,1-1.34,1.84,11.84,11.84,0,0,1-3.67,2.32,9.46,9.46,0,0,1-1.3.44,6.36,6.36,0,0,1,2.43,2.82,8.19,8.19,0,0,1,.74,5.1c0,.09-.09,0-.1,0a17,17,0,0,0-.42-2.24,11.1,11.1,0,0,0-.9-2.3,6,6,0,0,0-2.83-2.86.34.34,0,0,1-.24-.41h0a.78.78,0,0,1-.22,0,3.8,3.8,0,0,1-.72,1.38,8.89,8.89,0,0,1-1.48,1.64,8.66,8.66,0,0,1-2.4,1.41,9.75,9.75,0,0,1-1.75.44,6,6,0,0,1-1.75,0S66.49,236.15,66.55,236.14Z" style="opacity:0.15"></path><path d="M73.65,232.5a2.56,2.56,0,1,1,3.3.64A2.38,2.38,0,0,1,73.65,232.5Z" style="fill:#e0e0e0"></path><path d="M73.65,232.5a2.56,2.56,0,1,1,3.3.64A2.38,2.38,0,0,1,73.65,232.5Z" style="opacity:0.1"></path><path d="M146.75,307.34a10.57,10.57,0,0,0-4.64-3.33,12.29,12.29,0,0,0-2.11-.46,10.1,10.1,0,0,1-1.92-.27.57.57,0,0,1-.28-.25,13,13,0,0,0-4.48,2,15.76,15.76,0,0,0-1.92,1.39c-.47.42-.83.9-1.37,1.3-.1.08-.43.11-.46,0-.14-.57.42-1.21.93-1.72a12.33,12.33,0,0,1,2.43-1.92,15.28,15.28,0,0,1,2.5-1.22,11.43,11.43,0,0,1,1.21-.4,6.72,6.72,0,0,1,.67-.14,1.42,1.42,0,0,1-.51-.4,11,11,0,0,0-3-2,14.07,14.07,0,0,0-6.74-1.63c-.12,0,0-.09.07-.09a17.19,17.19,0,0,1,2.88.07,13.93,13.93,0,0,1,2.76.5,13.11,13.11,0,0,1,4,2.06,6.19,6.19,0,0,1,.93.82,7,7,0,0,1,3-2.45,17.2,17.2,0,0,1,6.4-1.81c.11,0,.07.06,0,.08-.95.27-1.88.52-2.78.86a18.81,18.81,0,0,0-2.72,1.22c-1.35.76-2.6,1.7-2.92,2.75-.05.18-.24.26-.46.27v0a.25.25,0,0,1,0,.17,7.58,7.58,0,0,1,2,.17,14.39,14.39,0,0,1,2.53.65,8.93,8.93,0,0,1,2.51,1.37,6.74,6.74,0,0,1,1.07,1.15,2.79,2.79,0,0,1,.52,1.25S146.78,307.38,146.75,307.34Z" style="opacity:0.15"></path><path d="M140,303.15a4.89,4.89,0,0,1-4.41,0c-1.25-.69-1.3-1.82-.11-2.52a4.92,4.92,0,0,1,4.41,0C141.18,301.32,141.23,302.45,140,303.15Z" style="fill:#e0e0e0"></path><path d="M113.62,326.47a10.59,10.59,0,0,0-4.63-3.33,12.41,12.41,0,0,0-2.12-.47,9.37,9.37,0,0,1-1.92-.26.59.59,0,0,1-.28-.26,13,13,0,0,0-4.47,2,17.4,17.4,0,0,0-1.93,1.39,18.81,18.81,0,0,1-1.36,1.31c-.11.08-.44.11-.46,0-.14-.57.41-1.21.92-1.72a12.33,12.33,0,0,1,2.43-1.92,15.3,15.3,0,0,1,2.5-1.23,11.4,11.4,0,0,1,1.21-.39l.67-.15a1.3,1.3,0,0,1-.51-.39,10.81,10.81,0,0,0-3-2A14.07,14.07,0,0,0,94,317.36c-.12,0,0-.08.08-.08a17.11,17.11,0,0,1,2.87.06,14.68,14.68,0,0,1,2.76.51,13.32,13.32,0,0,1,4,2,6.81,6.81,0,0,1,.93.82,7.17,7.17,0,0,1,3-2.45,17.58,17.58,0,0,1,6.4-1.81c.11,0,.08.06,0,.08-1,.27-1.88.53-2.78.86a20,20,0,0,0-2.72,1.23c-1.35.75-2.6,1.7-2.91,2.75a.47.47,0,0,1-.47.27v0a.22.22,0,0,1,0,.16,8.53,8.53,0,0,1,2,.17,14.74,14.74,0,0,1,2.54.66,9,9,0,0,1,2.5,1.37,6,6,0,0,1,1.07,1.15,2.8,2.8,0,0,1,.52,1.24S113.65,326.51,113.62,326.47Z" style="opacity:0.15"></path><path d="M106.91,322.27a4.92,4.92,0,0,1-4.41,0c-1.25-.7-1.3-1.83-.11-2.52a4.92,4.92,0,0,1,4.41,0C108.05,320.45,108.1,321.58,106.91,322.27Z" style="fill:#e0e0e0"></path><path d="M178.13,325.46a10.59,10.59,0,0,0-4.63-3.33,12.29,12.29,0,0,0-2.11-.46,10.2,10.2,0,0,1-1.93-.27.57.57,0,0,1-.28-.25,12.9,12.9,0,0,0-4.47,2,15.14,15.14,0,0,0-1.93,1.39,18.79,18.79,0,0,1-1.36,1.3c-.1.08-.43.11-.46,0-.14-.57.42-1.21.92-1.72a12.12,12.12,0,0,1,2.44-1.92,15.58,15.58,0,0,1,2.49-1.22,10.89,10.89,0,0,1,1.22-.4,6,6,0,0,1,.66-.14,1.42,1.42,0,0,1-.51-.4,10.81,10.81,0,0,0-3-2,14,14,0,0,0-6.74-1.63c-.11,0,0-.09.08-.09a17.22,17.22,0,0,1,2.88.07,13.83,13.83,0,0,1,2.75.5,13.17,13.17,0,0,1,4.05,2.06,6.11,6.11,0,0,1,.92.82,7.07,7.07,0,0,1,3-2.45,17.1,17.1,0,0,1,6.39-1.81c.12,0,.08.06,0,.08-.94.27-1.88.52-2.78.86a19.84,19.84,0,0,0-2.72,1.22c-1.35.75-2.6,1.7-2.91,2.75a.47.47,0,0,1-.46.27v0a.25.25,0,0,1,0,.17,7.54,7.54,0,0,1,2,.17,14.51,14.51,0,0,1,2.54.65,8.87,8.87,0,0,1,2.5,1.37,6.36,6.36,0,0,1,1.07,1.15,2.7,2.7,0,0,1,.53,1.25S178.16,325.5,178.13,325.46Z" style="opacity:0.15"></path><path d="M171.42,321.27a4.89,4.89,0,0,1-4.41,0c-1.25-.69-1.29-1.82-.1-2.52a4.92,4.92,0,0,1,4.41,0C172.56,319.44,172.61,320.57,171.42,321.27Z" style="fill:#e0e0e0"></path><path d="M145,344.59a10.59,10.59,0,0,0-4.63-3.33,12.29,12.29,0,0,0-2.11-.47,9.57,9.57,0,0,1-1.93-.26.53.53,0,0,1-.27-.26,13.05,13.05,0,0,0-4.48,2,17.25,17.25,0,0,0-1.92,1.39c-.47.43-.84.91-1.37,1.31-.1.08-.43.11-.46,0-.14-.57.42-1.21.92-1.72a12.71,12.71,0,0,1,2.44-1.92,15.6,15.6,0,0,1,2.49-1.23,10.88,10.88,0,0,1,1.22-.39l.66-.15a1.3,1.3,0,0,1-.51-.39,10.81,10.81,0,0,0-3-2,14,14,0,0,0-6.74-1.64c-.11,0,0-.08.08-.08a17.21,17.21,0,0,1,2.88.06,14.58,14.58,0,0,1,2.75.51,13.38,13.38,0,0,1,4.05,2,7.46,7.46,0,0,1,.93.82,7,7,0,0,1,3-2.45,17.47,17.47,0,0,1,6.4-1.81c.11,0,.07.06,0,.08-.94.27-1.88.53-2.77.86a20.69,20.69,0,0,0-2.73,1.23c-1.35.75-2.6,1.7-2.91,2.75a.46.46,0,0,1-.46.27v0a.22.22,0,0,1,0,.16,8.49,8.49,0,0,1,2,.17,14.5,14.5,0,0,1,2.54.66,8.87,8.87,0,0,1,2.5,1.37,6.31,6.31,0,0,1,1.07,1.14,2.79,2.79,0,0,1,.53,1.25S145,344.62,145,344.59Z" style="opacity:0.15"></path><path d="M138.29,340.39a4.92,4.92,0,0,1-4.41,0c-1.24-.7-1.29-1.83-.1-2.52a4.92,4.92,0,0,1,4.41,0C139.43,338.57,139.48,339.7,138.29,340.39Z" style="fill:#e0e0e0"></path><path d="M211.38,342.5a10.59,10.59,0,0,0-4.63-3.33,12.29,12.29,0,0,0-2.11-.46,9.56,9.56,0,0,1-1.93-.27.51.51,0,0,1-.27-.25,12.87,12.87,0,0,0-4.48,2,15,15,0,0,0-1.92,1.39c-.47.42-.84.91-1.37,1.31-.1.07-.43.11-.46,0-.14-.56.42-1.2.92-1.72a13.12,13.12,0,0,1,2.44-1.92,15.58,15.58,0,0,1,2.49-1.22,11.61,11.61,0,0,1,1.22-.4,6.56,6.56,0,0,1,.66-.14,1.5,1.5,0,0,1-.51-.39,10.62,10.62,0,0,0-3-2,14,14,0,0,0-6.74-1.63c-.11,0,0-.08.08-.09a17.19,17.19,0,0,1,2.88.07,13.7,13.7,0,0,1,2.75.5,13.17,13.17,0,0,1,4.05,2.06,6.73,6.73,0,0,1,.93.82,7,7,0,0,1,3-2.45,17.47,17.47,0,0,1,6.4-1.81c.11,0,.07.06,0,.08-.94.27-1.88.53-2.77.86a19.44,19.44,0,0,0-2.73,1.22c-1.35.76-2.6,1.7-2.91,2.75a.46.46,0,0,1-.46.28h0a.25.25,0,0,1,0,.17,7.54,7.54,0,0,1,2,.17,13.67,13.67,0,0,1,2.54.66,8.62,8.62,0,0,1,2.5,1.37,6,6,0,0,1,1.07,1.14,2.74,2.74,0,0,1,.53,1.25S211.42,342.54,211.38,342.5Z" style="opacity:0.15"></path><path d="M204.67,338.31a4.89,4.89,0,0,1-4.41,0c-1.24-.69-1.29-1.82-.1-2.52a4.89,4.89,0,0,1,4.41,0C205.82,336.48,205.86,337.61,204.67,338.31Z" style="fill:#e0e0e0"></path><path d="M178.25,361.63a10.54,10.54,0,0,0-4.63-3.33,12.29,12.29,0,0,0-2.11-.46,10.32,10.32,0,0,1-1.93-.27.57.57,0,0,1-.27-.26,13.15,13.15,0,0,0-4.48,2,16,16,0,0,0-1.92,1.38c-.47.43-.84.91-1.37,1.31-.1.08-.43.11-.46,0-.14-.57.42-1.21.92-1.72a12.71,12.71,0,0,1,2.44-1.92,15.58,15.58,0,0,1,2.49-1.22,11.61,11.61,0,0,1,1.22-.4,6.56,6.56,0,0,1,.66-.14,1.38,1.38,0,0,1-.5-.4,10.87,10.87,0,0,0-3-2,14,14,0,0,0-6.74-1.63c-.11,0,0-.09.08-.09a17.19,17.19,0,0,1,2.88.07,13.7,13.7,0,0,1,2.75.5,13.38,13.38,0,0,1,4.05,2.05,6.79,6.79,0,0,1,.93.83,7,7,0,0,1,3-2.45,17.15,17.15,0,0,1,6.4-1.81c.11,0,.07.05,0,.08-.94.27-1.88.52-2.77.86a19.44,19.44,0,0,0-2.73,1.22c-1.35.75-2.6,1.7-2.91,2.75a.46.46,0,0,1-.46.27v0a.32.32,0,0,1,0,.17,7.5,7.5,0,0,1,2,.17,14.51,14.51,0,0,1,2.54.65,8.87,8.87,0,0,1,2.5,1.37,6.36,6.36,0,0,1,1.07,1.15,2.71,2.71,0,0,1,.53,1.24S178.29,361.67,178.25,361.63Z" style="opacity:0.15"></path><path d="M171.55,357.44a5,5,0,0,1-4.42,0c-1.24-.69-1.29-1.82-.1-2.52a4.92,4.92,0,0,1,4.41,0C172.69,355.61,172.73,356.74,171.55,357.44Z" style="fill:#e0e0e0"></path><path d="M30.78,256.43c2-.53,3.94-1,5.47-2.39a6.88,6.88,0,0,0,1.13-1.39,4.73,4.73,0,0,1,.83-1.3.68.68,0,0,1,.4-.13,7.46,7.46,0,0,0-1.45-3.77,13.44,13.44,0,0,0-1.32-1.78c-.43-.45-1-.85-1.35-1.34-.07-.1,0-.35.12-.33a3.59,3.59,0,0,1,2,1.14,10.83,10.83,0,0,1,1.88,2.29,8.94,8.94,0,0,1,1,2.14,4.76,4.76,0,0,1,.21,1,3.13,3.13,0,0,1,0,.52,1.53,1.53,0,0,1,.64-.25,12.28,12.28,0,0,0,3.37-1.55,8.38,8.38,0,0,0,3.8-4.38c0-.09.11,0,.09.08a7.53,7.53,0,0,1-.8,2.05,7.77,7.77,0,0,1-1.34,1.83,11.73,11.73,0,0,1-3.68,2.33,8.14,8.14,0,0,1-1.29.43,6.48,6.48,0,0,1,2.42,2.83,8.27,8.27,0,0,1,.75,5.1c0,.09-.1,0-.1,0a18.81,18.81,0,0,0-.42-2.24,11.13,11.13,0,0,0-.91-2.3,6,6,0,0,0-2.83-2.86.34.34,0,0,1-.24-.41h0a.78.78,0,0,1-.22,0,3.63,3.63,0,0,1-.71,1.38,8.86,8.86,0,0,1-1.49,1.63,8.07,8.07,0,0,1-2.4,1.41,9.57,9.57,0,0,1-1.75.45,6,6,0,0,1-1.74,0C30.74,256.56,30.73,256.44,30.78,256.43Z" style="opacity:0.15"></path><path d="M37.89,252.79a2.56,2.56,0,1,1,3.29.64A2.38,2.38,0,0,1,37.89,252.79Z" style="fill:#e0e0e0"></path><path d="M37.89,252.79a2.56,2.56,0,1,1,3.29.64A2.38,2.38,0,0,1,37.89,252.79Z" style="opacity:0.1"></path><path d="M84.6,266.18c2-.53,3.94-1,5.47-2.39a6.55,6.55,0,0,0,1.13-1.39,4.94,4.94,0,0,1,.83-1.31.76.76,0,0,1,.4-.12A7.46,7.46,0,0,0,91,257.2a13.37,13.37,0,0,0-1.31-1.78,17.32,17.32,0,0,1-1.36-1.35c-.07-.09,0-.34.12-.32a3.59,3.59,0,0,1,2,1.14,11.47,11.47,0,0,1,1.88,2.29,9.8,9.8,0,0,1,1,2.14,5.5,5.5,0,0,1,.2,1,3.13,3.13,0,0,1,0,.52,1.7,1.7,0,0,1,.64-.26A12,12,0,0,0,97.5,259a8.38,8.38,0,0,0,3.8-4.38c0-.09.11,0,.1.08a8,8,0,0,1-.81,2,7.77,7.77,0,0,1-1.34,1.83,11.62,11.62,0,0,1-3.68,2.33,8.14,8.14,0,0,1-1.29.43,6.38,6.38,0,0,1,2.43,2.83,8.25,8.25,0,0,1,.74,5.1c0,.08-.09,0-.1,0a18.81,18.81,0,0,0-.42-2.24,11.13,11.13,0,0,0-.91-2.3,6,6,0,0,0-2.82-2.87c-.23-.09-.29-.25-.24-.4h0a.78.78,0,0,1-.22,0A3.63,3.63,0,0,1,92,262.8a8.86,8.86,0,0,1-1.49,1.63,8,8,0,0,1-2.4,1.41,9.57,9.57,0,0,1-1.75.45,6,6,0,0,1-1.74,0C84.57,266.31,84.55,266.19,84.6,266.18Z" style="opacity:0.15"></path><path d="M91.71,262.54a2.56,2.56,0,1,1,3.29.63A2.38,2.38,0,0,1,91.71,262.54Z" style="fill:#e0e0e0"></path><path d="M91.71,262.54a2.56,2.56,0,1,1,3.29.63A2.38,2.38,0,0,1,91.71,262.54Z" style="opacity:0.1"></path><path d="M49.33,286.87c2-.53,3.94-1,5.47-2.39a6.5,6.5,0,0,0,1.13-1.38,4.78,4.78,0,0,1,.83-1.31.76.76,0,0,1,.4-.13,7.46,7.46,0,0,0-1.45-3.77,12.65,12.65,0,0,0-1.31-1.77c-.44-.46-1-.85-1.36-1.35-.07-.1,0-.34.12-.33a3.61,3.61,0,0,1,2,1.15A10.94,10.94,0,0,1,57,277.88,9.72,9.72,0,0,1,58,280a5.43,5.43,0,0,1,.2,1,3.09,3.09,0,0,1,0,.52,1.55,1.55,0,0,1,.64-.26,11.72,11.72,0,0,0,3.37-1.55,8.35,8.35,0,0,0,3.8-4.38c0-.08.11,0,.1.08A8.87,8.87,0,0,1,64,279.3a11.59,11.59,0,0,1-3.68,2.32,8.17,8.17,0,0,1-1.29.44,6.41,6.41,0,0,1,2.43,2.82,8.28,8.28,0,0,1,.74,5.11c0,.08-.09,0-.1,0a18.64,18.64,0,0,0-.42-2.23,11.13,11.13,0,0,0-.91-2.3,6,6,0,0,0-2.82-2.87.33.33,0,0,1-.25-.41h0a.41.41,0,0,1-.22,0,3.56,3.56,0,0,1-.71,1.38,8.6,8.6,0,0,1-1.49,1.64,8.16,8.16,0,0,1-2.4,1.41,9.57,9.57,0,0,1-1.75.45,6,6,0,0,1-1.74,0C49.3,287,49.28,286.89,49.33,286.87Z" style="opacity:0.15"></path><path d="M56.44,283.24a2.56,2.56,0,1,1,3.29.63A2.38,2.38,0,0,1,56.44,283.24Z" style="fill:#e0e0e0"></path><path d="M56.44,283.24a2.56,2.56,0,1,1,3.29.63A2.38,2.38,0,0,1,56.44,283.24Z" style="opacity:0.1"></path></g></g><g id="freepik--character-4--inject-10"><g id="freepik--Character--inject-10"><path id="freepik--shadow--inject-10" d="M216.07,455.72c.4,0,.8,0,1.2,0a15.92,15.92,0,0,1,3.35.67c2.52.62,5.16-.28,7.54-1.07l7.1-2.37c2.55-.85,6.72-3,9.42-2.77,2.23.17,3,.83,5.55,2.38,1.78,1.11,8.31,5.78,15.12,10.51,7.23,5,15.92,9.86,25.19,9.53,7.82-.29,16.21-6.58,21.89-12.61,5.61,2.89,14.41-3.55,22.14-8.56,11.67-7.56,14.83-10.23,23-15.05,7-4.11,10.9-6.33,15.36-8.66a30.48,30.48,0,0,1,10.57-2.82c2.6-.18,7.32-.34,9-.42,3.61-.17,5.57-1.29,6.41-2.76,1.42-2.48-2.47-4.3-3.69-4.79a29.54,29.54,0,0,0-6.18-1.82,48.61,48.61,0,0,0-17.26-.59c-5.72.81-11.32,2.73-16.76,4.64-10,3.53-19.49,8.41-29.57,11.72-5,1.63-10.51,2.85-15.34.83-5.5-2.29-8.67-8.16-13.77-11.25-6-3.65-13.63-2.88-20.58-1.73a125.52,125.52,0,0,0-18.27,4.17,68.12,68.12,0,0,0-8.72,3.45c-1.4.67-2.78,1.41-4.11,2.2s-2.48,1.09-3.72,1.75c-4.08,2.15-7.43,5.43-11.33,7.87-8,5-18.2,5.32-25.77,11.39-1.05.84-1.7,1.57-1.05,2.95a6.46,6.46,0,0,0,4,3.05,15.8,15.8,0,0,0,6.84.41C214.46,455.86,215.27,455.76,216.07,455.72Z" style="fill:#e0e0e0"></path><g id="freepik--Bottom--inject-10"><path d="M244.83,416.59c-2.16,8.64-1.53,19.69,10.56,31.1,11.82,11.15,19.79,16.05,25.82,18.88,4.55,2.13,11.67,3.42,22.19-4.15a53,53,0,0,0,12.46-12.55l-29-45.35Z" style="fill:#455a64"></path><path d="M287.28,417.62a19,19,0,0,1-7,11.9c-3.22-1-7.94-2.71-16.52-.08,9.68-.75,15.44,1.92,15.44,1.92s8,12.55,16.51,18.28c5.4,3.63,11,6.08,14.79,6.65a47,47,0,0,0,5.35-6.42l-7.11-11.12-4.1-4.5Z" style="fill:#37474f"></path><path d="M283,431.13c5.76,7.45,17.41,18.55,23.75,21.55s10,.89,17.4-2.39c5.46-2.42,24.76-15.28,33.44-20.3s12-6.9,17.71-8,10.92-.91,15.1-3.68.35-6.78-5.61-7.22-10.22-.1-16.18-2.17-8.86-.85-10.08.67-.92,4.89-4.89,6.88-16.31,3.88-22.15,6.06-13.93,8.57-13.93,8.57c-8.66-8-15.73-19.14-30.06-27.79C290.46,416.59,289.13,426.59,283,431.13Z" style="fill:#ffbda7"></path><path d="M287.5,403.27c3.13,1.3,9.68,6.54,18.2,14.3,9.11,8.29,12.41,10.51,12.41,10.51a35.38,35.38,0,0,1,5.76-3.49c3.49-1.69,11.4-3.87,20.83-5.54,6.41,1.82,8.7,9,7.79,14-3.83,2.39-17.3,11.74-25.12,16.35s-13.29,6.21-18.47,4.71-14.28-7.39-19.55-13.58c-5.64-6.61-7.32-9.85-7.32-9.85a16.44,16.44,0,0,0,5.25-13.07A100.24,100.24,0,0,1,287.5,403.27Z" style="fill:#455a64"></path><path d="M358.22,407c.34-2.12,1.23-2.37,3.89-2.5s7.18,1.72,10,2.5,7.4-.26,11.33,0,9.78.92,12.81,4.55,2.38,5.82,1.13,7.22Z" style="fill:#263238"></path><path d="M355.48,413.81l-.28.84a.78.78,0,0,0,0,.54c.11.26.44.31.72.34a19.11,19.11,0,0,1,4.77,1.1c.93.35,1.81.83,2.74,1.2a7.82,7.82,0,0,0,1.42.45c.47.1.92,0,1.4.09a.79.79,0,0,1,.45.16.66.66,0,0,1,.15.51c-.07.73-.73,1.25-1,1.94a2.38,2.38,0,0,0-.11.92,4.32,4.32,0,0,0,1.28,2.6,2,2,0,0,0,1.57.79,2.48,2.48,0,0,0,.82-.31,18,18,0,0,1,3.57-1.71,38.82,38.82,0,0,1,3.86-.79c3.32-.58,6.69-.77,10-1a52.91,52.91,0,0,0,7.32-.83,4,4,0,0,0,3.2-2.59c.49-1.84-.6-3.79-1.91-5-2.73-2.52-6.29-4.59-12.3-4.75-6.56-.17-7.92,1.33-14.38-1-5.65-2.07-8.83-1.5-10.19-.53a5.59,5.59,0,0,0-1.89,3.31C356.4,411.28,355.91,412.54,355.48,413.81Z" style="fill:#37474f"></path><path d="M377.15,422.2a3.54,3.54,0,0,1-.68-1.11,5.09,5.09,0,0,1-.42-1.47,9,9,0,0,1-.05-1.56A2.32,2.32,0,0,0,376,417a.42.42,0,0,0-.71-.19,1.24,1.24,0,0,0-.32.61,5.62,5.62,0,0,0,.13,3,6,6,0,0,0,.89,2c.19.26.32.52.65.59a1.45,1.45,0,0,0,1-.16.62.62,0,0,0,.18-.14.22.22,0,0,0,0-.22c-.05-.08-.17-.1-.26-.13A.94.94,0,0,1,377.15,422.2Z" style="fill:#fafafa"></path><path d="M373.23,422.92a3.61,3.61,0,0,1-.69-1.1,5.42,5.42,0,0,1-.41-1.47,8.22,8.22,0,0,1-.05-1.57,2.42,2.42,0,0,0-.05-1.07.42.42,0,0,0-.71-.2,1.16,1.16,0,0,0-.32.62,5.71,5.71,0,0,0,.12,3,6.42,6.42,0,0,0,.9,2c.19.26.32.51.65.58a1.4,1.4,0,0,0,1-.16.46.46,0,0,0,.17-.14.2.2,0,0,0,0-.21c0-.09-.17-.1-.27-.14A.9.9,0,0,1,373.23,422.92Z" style="fill:#fafafa"></path><path d="M381.22,421.69a3.58,3.58,0,0,1-.69-1.11,4.78,4.78,0,0,1-.41-1.47,8.12,8.12,0,0,1-.05-1.56,2.46,2.46,0,0,0-.05-1.08.42.42,0,0,0-.71-.19,1.17,1.17,0,0,0-.32.61,5.61,5.61,0,0,0,.12,3,6.23,6.23,0,0,0,.9,2c.19.26.31.52.65.59a1.46,1.46,0,0,0,1-.16.58.58,0,0,0,.17-.14.22.22,0,0,0,0-.22.49.49,0,0,0-.27-.13A1,1,0,0,1,381.22,421.69Z" style="fill:#fafafa"></path><path d="M384.59,421.39a3.57,3.57,0,0,1-.68-1.1,4.78,4.78,0,0,1-.41-1.47,8.22,8.22,0,0,1-.06-1.57,2.28,2.28,0,0,0,0-1.07.43.43,0,0,0-.72-.2,1.22,1.22,0,0,0-.31.62,5.52,5.52,0,0,0,.12,3,6.42,6.42,0,0,0,.9,2c.19.26.31.51.64.58a1.43,1.43,0,0,0,1-.16.46.46,0,0,0,.17-.14.2.2,0,0,0,0-.21c-.05-.09-.17-.1-.26-.14A.94.94,0,0,1,384.59,421.39Z" style="fill:#fafafa"></path><path d="M387.44,421.4c-2.14-2.76-4.08-9.76-.27-12.69,3.08.21,7.95,3,9.58,5.29s1.41,5.09-1,6.46S387.44,421.4,387.44,421.4Z" style="fill:#fafafa"></path></g><g id="freepik--Top--inject-10"><path d="M275.48,356.61c8.75,0,11.92,2.65,15.39,10.76,3,7,6.32,19,8.07,26.51,1.43,6.13-6.27,15.45-9.18,13.69s-8.6-16.79-9-22.15S275.48,356.61,275.48,356.61Z" style="fill:#ffbda7"></path><path d="M291.87,405.94s-2.14,10.44-17.72,15.19-30.22-.27-30.22-.27c.76-6.87,1.46-10.93,2.5-16.64a31.79,31.79,0,0,0-.55-13.9c-1.18-3.79-2-7.33-4.11-16.74-.77-3.46-3.23-13,3.16-14.87,3.68-1.1,5.94-1.48,9.78-2.38,2.67-.15,14.93-.15,14.93-.15a39.2,39.2,0,0,1,5.84.43c3.18.57,6.23,4.31,13,14.27,3.33,4.88,5.83,13.56-1.95,19.15.28,3.25.59,5.71.74,8.83A68.37,68.37,0,0,1,291.87,405.94Z" style="fill:#E76F51"></path><path d="M275.63,387.66a10.32,10.32,0,0,1-9.94,5.18,10.89,10.89,0,0,1-9.09-6s.07,7.6,9,7.86S275.63,387.66,275.63,387.66Z" style="opacity:0.2"></path><path d="M244.59,358.83c-9.69,1.79-11.68,8.48-13.31,15.71s-3.42,26.49-4.54,33.51c-1.51,9.44-2.71,28.57-4.21,30s-9.45,3.75-11.53,5.35a58,58,0,0,0-6.1,5.8c-.71.85-.79,2.37,2.63,3.41,3.65,1.12,5.25,1.58,8.28-.2,1.24-.73,3-1.8,4.15-2.52a15.28,15.28,0,0,1,5.8-1.92c1.31.09-.73,1.8-2.29,2.93-1.18.85-1.88,2.43-1.26,3.43.5.82,3.5-1.07,5.65-1.93,2.63-1.05,5.48-4.37,5.75-7.42.32-3.65,1-6.35,2.22-12.76s4.13-15.48,5-21.28c1.23-8.18,6.52-28.57,6.52-28.57A36.47,36.47,0,0,0,244.59,358.83Z" style="fill:#ffbda7"></path><path d="M285.9,319.75c-1.75-2.91-5.11-4.08-7.09-3.29-1.6-2.47-5-4-7.93-4.39-11.06-1.39-15,3.86-15.73,5.86-5.3.4-9.56,8-7.07,19,1.09,4.8,6.31,10.77,6.58,13.31l6.76-1.29a12.52,12.52,0,0,1,8.69-9.83c7.82-2.51,12.25-4.11,13.51-5.58A11.25,11.25,0,0,0,285.9,319.75Z" style="fill:#263238"></path><path d="M254.53,309.9c-3,.18-4.93,1.55-5.67,4.37a8.61,8.61,0,0,0-7.61,1.63,6.37,6.37,0,0,0-2,5c0,1.77.88,2.76,1.89,4.06a4.19,4.19,0,0,0-2.68,5c.28,1.25,4.62,6.08.88,6.22,1.62,1.27,4.55.46,4.5-1.87a5.17,5.17,0,0,0,4.67,5.64,8,8,0,0,0,8.88-5.59L260.62,314C260,311.28,257.43,309.74,254.53,309.9Z" style="fill:#263238"></path><path d="M283.91,328.21a30.26,30.26,0,0,1,.3,3.69,58.73,58.73,0,0,1-.26,7.38c-.91,8.73-3.77,11.29-6.17,12.24a13.35,13.35,0,0,1-7.48.19l0,5.31s6,6.38-1.23,8a12.63,12.63,0,0,1-10.32-2.67,14.55,14.55,0,0,1-4-5.57l-.1-12.21a4.45,4.45,0,0,1-5.35-1.53c-2.2-2.74-2.41-6-.31-8.09s5.82-1.5,7.46,1.57c1.17,2.19,2.34.67,2.46-1.83s2.1-3.15,3-4.38c3.07-4.17,1.19-5.61,3.95-8,1.58-1.35,5.67-1.63,8.59.89C278.17,320.31,282.93,322,283.91,328.21Z" style="fill:#ffbda7"></path><path d="M279.37,328.43l2.38,2.22a1.55,1.55,0,0,1-2.26.13A1.71,1.71,0,0,1,279.37,328.43Z" style="fill:#263238"></path><path d="M265.41,331.46l2.57-2a1.57,1.57,0,0,1-.23,2.26A1.71,1.71,0,0,1,265.41,331.46Z" style="fill:#263238"></path><polygon points="273.39 331.21 274.63 341.19 279.68 339.19 273.39 331.21" style="fill:#f0997a"></polygon><path d="M270.3,351.71c-6.6-1.82-10.9-4.77-11.94-7.54a6.88,6.88,0,0,0,2.73,5.64c3.1,2.25,9.2,3.73,9.2,3.73Z" style="fill:#f0997a"></path><circle cx="268.97" cy="334.45" r="1.33" style="fill:#263238"></circle><path d="M272.72,343.81a.77.77,0,0,1-1.54,0,.77.77,0,1,1,1.54,0Z" style="fill:#b16668"></path><circle cx="279.25" cy="333.58" r="1.33" style="fill:#263238"></circle><path d="M263.52,418.22a13.31,13.31,0,0,1-1.93-.66,3,3,0,0,1-1.5-1.16,1,1,0,0,1-.1-.83.92.92,0,0,1,.81-.49,3.2,3.2,0,0,1,1,.13c2.37.49,4.82-.21,7.23,0a13.85,13.85,0,0,0,3.18.36,7.56,7.56,0,0,0,2.75-1,32.28,32.28,0,0,0,4.17-3.28c1.68-1.6,2.5-2.48,3.87-3.83,1.83-1.8,4.36-4.16,6.16-6l9.81-7.58c3.06,11.9,2.95,12.77,0,16.55-3.14,4.05-15.25,13-21.66,15.82s-12.74,4.56-18.24,3.91-6.22-5.43-7.44-6.51-2.93-5.28.32-4.31a25.69,25.69,0,0,0,6.42.82,11.68,11.68,0,0,0,6-1.09.57.57,0,0,0,.33-.33C264.86,418.16,263.78,418.29,263.52,418.22Z" style="fill:#ffbda7"></path><path d="M289.13,401.46a9.3,9.3,0,0,1,7.93-2.35c-1.36-1.25-5.19-1.58-9,.81Z" style="fill:#f0997a"></path></g></g><g id="freepik--question-marks--inject-10"><path d="M307.7,314.12a10.71,10.71,0,0,1,2.25,2,8.21,8.21,0,0,1,1.46,2.46,6.42,6.42,0,0,1,.38,2.71,5.58,5.58,0,0,1-1,2.72,5.81,5.81,0,0,1-1.59,1.67,7.24,7.24,0,0,1-1.82.87,10.57,10.57,0,0,1-1.92.4l-1.84.23a9.15,9.15,0,0,0-1.64.35,2.71,2.71,0,0,0-1.23.78,1.22,1.22,0,0,1-.59.36.75.75,0,0,1-.63-.11l-2.06-1.36a.91.91,0,0,1-.39-.56.71.71,0,0,1,.14-.65,5.59,5.59,0,0,1,1.67-1.57,7.88,7.88,0,0,1,1.9-.81,10.26,10.26,0,0,1,2-.37l1.83-.21a6.91,6.91,0,0,0,1.52-.37,2,2,0,0,0,1.05-.81,2.45,2.45,0,0,0,.24-2.27,4.41,4.41,0,0,0-1.87-2.19,4.26,4.26,0,0,0-4.91.08,2.13,2.13,0,0,1-.58.26.89.89,0,0,1-.61-.18l-2.2-1.45a.72.72,0,0,1-.31-.44.68.68,0,0,1,.11-.56,5,5,0,0,1,1.86-1.55,7.83,7.83,0,0,1,2.68-.81,9.44,9.44,0,0,1,3.07.13A8.47,8.47,0,0,1,307.7,314.12Zm-9.08,16.15a.86.86,0,0,1,.38.56.81.81,0,0,1-.13.66l-1.57,2.39a.9.9,0,0,1-1.22.25l-2.33-1.54a.84.84,0,0,1-.38-.55.81.81,0,0,1,.13-.66l1.57-2.4a.88.88,0,0,1,.56-.37.85.85,0,0,1,.66.12Z" style="fill:#E76F51"></path><path d="M210.63,352.27a8.28,8.28,0,0,1-2.37.25,6.41,6.41,0,0,1-2.21-.47,5,5,0,0,1-1.77-1.22,4.5,4.5,0,0,1-1.07-2,4.75,4.75,0,0,1-.12-1.81,5.6,5.6,0,0,1,.47-1.52,8.48,8.48,0,0,1,.79-1.33l.85-1.2a7,7,0,0,0,.67-1.13,2.11,2.11,0,0,0,.21-1.14,1,1,0,0,1,.1-.53.63.63,0,0,1,.4-.31l1.9-.47a.71.71,0,0,1,.53.07.57.57,0,0,1,.31.43,4.42,4.42,0,0,1,0,1.81,6.53,6.53,0,0,1-.54,1.54,8.51,8.51,0,0,1-.83,1.33c-.31.42-.6.81-.86,1.18a6,6,0,0,0-.6,1.08,1.62,1.62,0,0,0-.08,1,1.94,1.94,0,0,0,1.18,1.36,3.49,3.49,0,0,0,2.28.08,3.37,3.37,0,0,0,2.58-2.9,1.42,1.42,0,0,1,.16-.47.66.66,0,0,1,.43-.26l2-.5a.58.58,0,0,1,.43.05.52.52,0,0,1,.26.36,3.93,3.93,0,0,1-.09,1.91,6.2,6.2,0,0,1-1,2,7.53,7.53,0,0,1-1.71,1.72A6.71,6.71,0,0,1,210.63,352.27Zm-4.55-13.9a.68.68,0,0,1-.52-.09.65.65,0,0,1-.32-.42l-.55-2.19a.68.68,0,0,1,.08-.52.64.64,0,0,1,.42-.32l2.15-.54a.64.64,0,0,1,.52.08.67.67,0,0,1,.32.42l.55,2.2a.69.69,0,0,1-.08.52.67.67,0,0,1-.43.32Z" style="fill:#E76F51"></path><path d="M304.17,340.9a7.19,7.19,0,0,1,1.84,1,5.42,5.42,0,0,1,1.37,1.42,4.45,4.45,0,0,1,.7,1.75,4,4,0,0,1-.22,2,4,4,0,0,1-.79,1.37,4.69,4.69,0,0,1-1.08.88,7.64,7.64,0,0,1-1.23.58l-1.2.45a7.16,7.16,0,0,0-1,.5,1.81,1.81,0,0,0-.7.73,1,1,0,0,1-.34.33.49.49,0,0,1-.44,0l-1.6-.58a.6.6,0,0,1-.36-.32.53.53,0,0,1,0-.46,4.21,4.21,0,0,1,.87-1.32,5.79,5.79,0,0,1,1.15-.85,7.35,7.35,0,0,1,1.25-.56l1.2-.44a5.36,5.36,0,0,0,1-.49,1.46,1.46,0,0,0,.57-.71,1.73,1.73,0,0,0-.2-1.57,3,3,0,0,0-1.61-1.16,2.94,2.94,0,0,0-3.29.84,1.27,1.27,0,0,1-.35.27.55.55,0,0,1-.43,0l-1.71-.61a.49.49,0,0,1-.28-.25.48.48,0,0,1,0-.39,3.54,3.54,0,0,1,1-1.34,5.53,5.53,0,0,1,1.67-1,6.86,6.86,0,0,1,2.08-.41A5.82,5.82,0,0,1,304.17,340.9Zm-3.48,12.31a.58.58,0,0,1,.34.31.57.57,0,0,1,0,.46l-.67,1.86a.55.55,0,0,1-.31.34.61.61,0,0,1-.46,0l-1.82-.66a.61.61,0,0,1-.34-.31.59.59,0,0,1,0-.47l.67-1.85a.59.59,0,0,1,.31-.35.57.57,0,0,1,.46,0Z" style="fill:#E76F51"></path><g style="opacity:0.2"><path d="M304.17,340.9a7.19,7.19,0,0,1,1.84,1,5.42,5.42,0,0,1,1.37,1.42,4.45,4.45,0,0,1,.7,1.75,4,4,0,0,1-.22,2,4,4,0,0,1-.79,1.37,4.69,4.69,0,0,1-1.08.88,7.64,7.64,0,0,1-1.23.58l-1.2.45a7.16,7.16,0,0,0-1,.5,1.81,1.81,0,0,0-.7.73,1,1,0,0,1-.34.33.49.49,0,0,1-.44,0l-1.6-.58a.6.6,0,0,1-.36-.32.53.53,0,0,1,0-.46,4.21,4.21,0,0,1,.87-1.32,5.79,5.79,0,0,1,1.15-.85,7.35,7.35,0,0,1,1.25-.56l1.2-.44a5.36,5.36,0,0,0,1-.49,1.46,1.46,0,0,0,.57-.71,1.73,1.73,0,0,0-.2-1.57,3,3,0,0,0-1.61-1.16,2.94,2.94,0,0,0-3.29.84,1.27,1.27,0,0,1-.35.27.55.55,0,0,1-.43,0l-1.71-.61a.49.49,0,0,1-.28-.25.48.48,0,0,1,0-.39,3.54,3.54,0,0,1,1-1.34,5.53,5.53,0,0,1,1.67-1,6.86,6.86,0,0,1,2.08-.41A5.82,5.82,0,0,1,304.17,340.9Zm-3.48,12.31a.58.58,0,0,1,.34.31.57.57,0,0,1,0,.46l-.67,1.86a.55.55,0,0,1-.31.34.61.61,0,0,1-.46,0l-1.82-.66a.61.61,0,0,1-.34-.31.59.59,0,0,1,0-.47l.67-1.85a.59.59,0,0,1,.31-.35.57.57,0,0,1,.46,0Z"></path></g><path d="M320.1,344.31a.72.72,0,0,1,.3,1l-1.09,2.07a.67.67,0,0,1-.42.35.66.66,0,0,1-.55-.05l-2-1.06a.68.68,0,0,1-.34-.42.7.7,0,0,1,0-.55l1.09-2.07a.66.66,0,0,1,.43-.35.68.68,0,0,1,.54,0Zm6.09-13.87a8.58,8.58,0,0,1,2,1.43,6.69,6.69,0,0,1,1.38,1.89,5.29,5.29,0,0,1,.53,2.17,5.13,5.13,0,0,1-1.74,3.78,5.25,5.25,0,0,1-1.41.85,9.39,9.39,0,0,1-1.53.49l-1.48.33a7.92,7.92,0,0,0-1.3.42,2.19,2.19,0,0,0-.95.73,1,1,0,0,1-.44.34.59.59,0,0,1-.53,0l-1.79-.94a.74.74,0,0,1-.36-.43.61.61,0,0,1,.06-.54,4.91,4.91,0,0,1,1.24-1.41,6.49,6.49,0,0,1,1.48-.81,10.23,10.23,0,0,1,1.56-.46c.53-.1,1-.21,1.48-.32a6.58,6.58,0,0,0,1.21-.41,1.67,1.67,0,0,0,.78-.75,2,2,0,0,0,0-1.87,3.62,3.62,0,0,0-1.69-1.63,3.49,3.49,0,0,0-4,.46,1.48,1.48,0,0,1-.45.25.67.67,0,0,1-.51-.09l-1.91-1a.59.59,0,0,1-.29-.33.58.58,0,0,1,.05-.46,4.17,4.17,0,0,1,1.39-1.42,6.61,6.61,0,0,1,2.11-.87,7.7,7.7,0,0,1,2.51-.14A7,7,0,0,1,326.19,330.44Z" style="fill:#E76F51"></path><g style="opacity:0.30000000000000004"><path d="M320.1,344.31a.72.72,0,0,1,.3,1l-1.09,2.07a.67.67,0,0,1-.42.35.66.66,0,0,1-.55-.05l-2-1.06a.68.68,0,0,1-.34-.42.7.7,0,0,1,0-.55l1.09-2.07a.66.66,0,0,1,.43-.35.68.68,0,0,1,.54,0Zm6.09-13.87a8.58,8.58,0,0,1,2,1.43,6.69,6.69,0,0,1,1.38,1.89,5.29,5.29,0,0,1,.53,2.17,5.13,5.13,0,0,1-1.74,3.78,5.25,5.25,0,0,1-1.41.85,9.39,9.39,0,0,1-1.53.49l-1.48.33a7.92,7.92,0,0,0-1.3.42,2.19,2.19,0,0,0-.95.73,1,1,0,0,1-.44.34.59.59,0,0,1-.53,0l-1.79-.94a.74.74,0,0,1-.36-.43.61.61,0,0,1,.06-.54,4.91,4.91,0,0,1,1.24-1.41,6.49,6.49,0,0,1,1.48-.81,10.23,10.23,0,0,1,1.56-.46c.53-.1,1-.21,1.48-.32a6.58,6.58,0,0,0,1.21-.41,1.67,1.67,0,0,0,.78-.75,2,2,0,0,0,0-1.87,3.62,3.62,0,0,0-1.69-1.63,3.49,3.49,0,0,0-4,.46,1.48,1.48,0,0,1-.45.25.67.67,0,0,1-.51-.09l-1.91-1a.59.59,0,0,1-.29-.33.58.58,0,0,1,.05-.46,4.17,4.17,0,0,1,1.39-1.42,6.61,6.61,0,0,1,2.11-.87,7.7,7.7,0,0,1,2.51-.14A7,7,0,0,1,326.19,330.44Z" style="fill:#fff"></path></g><path d="M234.91,357.54a6.87,6.87,0,0,1-2,.42,5.34,5.34,0,0,1-1.93-.2,4.4,4.4,0,0,1-1.63-.89,3.91,3.91,0,0,1-1.09-1.64,4,4,0,0,1-.26-1.54,4.56,4.56,0,0,1,.27-1.34,7.39,7.39,0,0,1,.56-1.21c.22-.39.43-.75.62-1.1a5.8,5.8,0,0,0,.47-1,1.79,1.79,0,0,0,.08-1,.93.93,0,0,1,0-.47.56.56,0,0,1,.32-.3l1.57-.57a.64.64,0,0,1,.47,0,.49.49,0,0,1,.3.34,3.82,3.82,0,0,1,.17,1.54,5.18,5.18,0,0,1-.33,1.37,7.14,7.14,0,0,1-.59,1.21c-.23.38-.44.74-.63,1.09a4.67,4.67,0,0,0-.42,1,1.39,1.39,0,0,0,0,.9,1.66,1.66,0,0,0,1.13,1.05,3,3,0,0,0,1.95-.13,2.89,2.89,0,0,0,2-2.7,1.1,1.1,0,0,1,.09-.42.56.56,0,0,1,.34-.26l1.68-.6a.47.47,0,0,1,.63.29,3.42,3.42,0,0,1,.09,1.64,5.38,5.38,0,0,1-.65,1.79,6.57,6.57,0,0,1-1.31,1.61A5.58,5.58,0,0,1,234.91,357.54Zm-5.1-11.49a.55.55,0,0,1-.45,0,.56.56,0,0,1-.31-.33l-.66-1.83a.55.55,0,0,1,0-.45.53.53,0,0,1,.33-.31l1.79-.65a.55.55,0,0,1,.45,0,.52.52,0,0,1,.31.34l.66,1.82a.57.57,0,0,1,0,.46.59.59,0,0,1-.33.31Z" style="fill:#E76F51"></path><g style="opacity:0.2"><path d="M234.91,357.54a6.87,6.87,0,0,1-2,.42,5.34,5.34,0,0,1-1.93-.2,4.4,4.4,0,0,1-1.63-.89,3.91,3.91,0,0,1-1.09-1.64,4,4,0,0,1-.26-1.54,4.56,4.56,0,0,1,.27-1.34,7.39,7.39,0,0,1,.56-1.21c.22-.39.43-.75.62-1.1a5.8,5.8,0,0,0,.47-1,1.79,1.79,0,0,0,.08-1,.93.93,0,0,1,0-.47.56.56,0,0,1,.32-.3l1.57-.57a.64.64,0,0,1,.47,0,.49.49,0,0,1,.3.34,3.82,3.82,0,0,1,.17,1.54,5.18,5.18,0,0,1-.33,1.37,7.14,7.14,0,0,1-.59,1.21c-.23.38-.44.74-.63,1.09a4.67,4.67,0,0,0-.42,1,1.39,1.39,0,0,0,0,.9,1.66,1.66,0,0,0,1.13,1.05,3,3,0,0,0,1.95-.13,2.89,2.89,0,0,0,2-2.7,1.1,1.1,0,0,1,.09-.42.56.56,0,0,1,.34-.26l1.68-.6a.47.47,0,0,1,.63.29,3.42,3.42,0,0,1,.09,1.64,5.38,5.38,0,0,1-.65,1.79,6.57,6.57,0,0,1-1.31,1.61A5.58,5.58,0,0,1,234.91,357.54Zm-5.1-11.49a.55.55,0,0,1-.45,0,.56.56,0,0,1-.31-.33l-.66-1.83a.55.55,0,0,1,0-.45.53.53,0,0,1,.33-.31l1.79-.65a.55.55,0,0,1,.45,0,.52.52,0,0,1,.31.34l.66,1.82a.57.57,0,0,1,0,.46.59.59,0,0,1-.33.31Z"></path></g><path d="M225.79,317.79a.77.77,0,0,1-.47-.36.71.71,0,0,1-.1-.58l.61-2.46a.73.73,0,0,1,.36-.48.74.74,0,0,1,.58-.09l2.41.59a.75.75,0,0,1,.47.35.77.77,0,0,1,.09.59l-.6,2.46a.75.75,0,0,1-.36.48.74.74,0,0,1-.58.09ZM223,333.94a9.42,9.42,0,0,1-2.46-1,6.84,6.84,0,0,1-1.94-1.62,5.64,5.64,0,0,1-1.12-2.14,5.57,5.57,0,0,1,.84-4.42,5.79,5.79,0,0,1,1.26-1.26,9.8,9.8,0,0,1,1.48-.91l1.47-.73a8.66,8.66,0,0,0,1.26-.78,2.34,2.34,0,0,0,.8-1,1,1,0,0,1,.38-.47.65.65,0,0,1,.56-.1l2.12.52a.77.77,0,0,1,.49.36.64.64,0,0,1,.08.58,5.11,5.11,0,0,1-.93,1.8,6.83,6.83,0,0,1-1.35,1.24,9.29,9.29,0,0,1-1.52.89q-.78.36-1.47.72a6.11,6.11,0,0,0-1.16.75,1.81,1.81,0,0,0-.63,1,2.16,2.16,0,0,0,.47,2,3.83,3.83,0,0,0,2.2,1.27,3.77,3.77,0,0,0,4.08-1.51,1.81,1.81,0,0,1,.41-.39.71.71,0,0,1,.55,0l2.27.56a.62.62,0,0,1,.39.28.59.59,0,0,1,.07.49,4.46,4.46,0,0,1-1.09,1.85,7.25,7.25,0,0,1-2,1.47,8.58,8.58,0,0,1-2.6.79A7.61,7.61,0,0,1,223,333.94Z" style="fill:#E76F51"></path><g style="opacity:0.30000000000000004"><path d="M225.79,317.79a.77.77,0,0,1-.47-.36.71.71,0,0,1-.1-.58l.61-2.46a.73.73,0,0,1,.36-.48.74.74,0,0,1,.58-.09l2.41.59a.75.75,0,0,1,.47.35.77.77,0,0,1,.09.59l-.6,2.46a.75.75,0,0,1-.36.48.74.74,0,0,1-.58.09ZM223,333.94a9.42,9.42,0,0,1-2.46-1,6.84,6.84,0,0,1-1.94-1.62,5.64,5.64,0,0,1-1.12-2.14,5.57,5.57,0,0,1,.84-4.42,5.79,5.79,0,0,1,1.26-1.26,9.8,9.8,0,0,1,1.48-.91l1.47-.73a8.66,8.66,0,0,0,1.26-.78,2.34,2.34,0,0,0,.8-1,1,1,0,0,1,.38-.47.65.65,0,0,1,.56-.1l2.12.52a.77.77,0,0,1,.49.36.64.64,0,0,1,.08.58,5.11,5.11,0,0,1-.93,1.8,6.83,6.83,0,0,1-1.35,1.24,9.29,9.29,0,0,1-1.52.89q-.78.36-1.47.72a6.11,6.11,0,0,0-1.16.75,1.81,1.81,0,0,0-.63,1,2.16,2.16,0,0,0,.47,2,3.83,3.83,0,0,0,2.2,1.27,3.77,3.77,0,0,0,4.08-1.51,1.81,1.81,0,0,1,.41-.39.71.71,0,0,1,.55,0l2.27.56a.62.62,0,0,1,.39.28.59.59,0,0,1,.07.49,4.46,4.46,0,0,1-1.09,1.85,7.25,7.25,0,0,1-2,1.47,8.58,8.58,0,0,1-2.6.79A7.61,7.61,0,0,1,223,333.94Z" style="fill:#fff"></path></g></g></g><g id="freepik--character-3--inject-10"><g id="freepik--character--inject-10"><path id="freepik--shadow--inject-10" d="M372.89,365.45c-4.73,5.26-.26,12.52,6.65,13.59,12.45,1.94,23.23-2.42,35-5.1,5.13-1.16,10.73-1.47,15.49.69,4,1.81,6.94,5.12,9.7,8.4s5.55,6.68,9.36,8.78,9,2.61,12.45,0,4.23-7,4.25-11c.08-14.75-9.66-27.53-24-33.12-10.38-4-20.59-3.38-34.49-.19C396.79,349.91,382.07,355.24,372.89,365.45Z" style="fill:#e0e0e0"></path><g id="freepik--bottom--inject-10"><path d="M430.28,311.82l20.48-2.59c.57,15.9.29,25.2,1.68,36.32.27,2.1,1.92,16.52,1.76,20.92-.23,6.62-8.34,6.89-9.36,3.1s-4.67-20.28-5-22c-1-7.11-4.32-18.73-8.12-31.21C431.58,315.76,430.46,312.42,430.28,311.82Z" style="fill:#ffbda7"></path><path d="M441.72,371.66c0,5.73,1.25,8.17,3,10.09a7.44,7.44,0,0,0,7.42,2.1c2.67-.78,6-3.19,6.57-6.52s.1-5.79-.69-9.31Z" style="fill:#263238"></path><path d="M452.28,344.19c1.12,0,1.05,5.47,2,10.58.95,5.48,2.78,7.67,3.62,12.16,1,5.13.79,7.45-.94,10.65s-8.25,6.57-11.76,2.26c-2.86-3.52-3.57-7.13-3.77-12.29a111.47,111.47,0,0,0-1.15-13.43c-.67-4.37-1.57-7.58-.62-8.05.1.56.21,1.28.32,1.83s.29,2.51.92,2.51a7.93,7.93,0,0,0-.06-1.46,1.63,1.63,0,0,1,.24-1.26,2.13,2.13,0,0,1,1.21-.59c1.08-.25,4.21-.62,5.32-.76.55-.08,1.76-.45,2.31-.47a4.51,4.51,0,0,1,1.42.13,1,1,0,0,1,.63.49,1.69,1.69,0,0,1,.09.59,4.14,4.14,0,0,0,.19,1.05c.05.15.17.33.32.29a.29.29,0,0,0,.17-.32c0-.62-.13-1.07-.2-1.79,0-.34-.11-.79-.13-1.13S452.32,344.52,452.28,344.19Z" style="fill:#37474f"></path><path d="M458.31,369.91a11.07,11.07,0,0,1-.95,8.12c-1.73,3.21-8.21,6.68-12.43,2.08a13.2,13.2,0,0,1-3-7.38C443.7,369.2,455.05,367.12,458.31,369.91Z" style="fill:#fafafa"></path><path d="M444.89,367.3a.35.35,0,0,0,.13-.05,13.81,13.81,0,0,1,9.55-1.38.4.4,0,0,0,.47-.38.51.51,0,0,0-.35-.58,14.25,14.25,0,0,0-10.09,1.47.52.52,0,0,0-.15.65A.44.44,0,0,0,444.89,367.3Z" style="fill:#f0f0f0"></path><path d="M454.11,362a.43.43,0,0,0,.33-.33.52.52,0,0,0-.3-.59c-5.13-1.78-9.88,1.24-10.08,1.37a.48.48,0,0,0-.14.63.42.42,0,0,0,.58.19s4.66-3,9.43-1.29A.37.37,0,0,0,454.11,362Z" style="fill:#f0f0f0"></path><path d="M453.65,358.42a.39.39,0,0,0,.32-.32.49.49,0,0,0-.28-.59,11.3,11.3,0,0,0-10.29,1.33.5.5,0,0,0-.1.65.4.4,0,0,0,.58.14,10.76,10.76,0,0,1,9.58-1.23A.43.43,0,0,0,453.65,358.42Z" style="fill:#f0f0f0"></path><path d="M453.12,354.44a.42.42,0,0,0,.32-.33.53.53,0,0,0-.28-.62c-5.32-2.16-10.15,1.31-10.36,1.46a.52.52,0,0,0-.1.67.39.39,0,0,0,.57.17c.05,0,4.72-3.39,9.66-1.38A.42.42,0,0,0,453.12,354.44Z" style="fill:#ebebeb"></path><g id="freepik--bottom--inject-10"><path d="M386.39,361.11l.09-.09c4.34-3.93,7.72-6.91,10.91-11.82a8.15,8.15,0,0,0,1.21-3.35c.16-1.35-.11-6.75-.31-10.81s-.66-12.3-1-18.28l17.71.93c-1.27,9.87-3.27,21.82-3.91,27.21l0,.75a32.56,32.56,0,0,0,0,4.26,7.17,7.17,0,0,1-3,4.3c-1.19.92-2.5,1.67-3.71,2.57-1.88,1.4-3.47,3.15-5.27,4.64-3.14,2.61-7.19,4.49-11.23,3.94a4.34,4.34,0,0,1-1.77-.57,2,2,0,0,1-1-1.53A3.07,3.07,0,0,1,386.39,361.11Z" style="fill:#ffbda7"></path><path d="M420.59,261.32l-4,21.38s.42,2.53.93,7.19c.54,4.87-.52,14.33-1.39,21.59-.94,7.83-2.45,17-2.45,17-3.79,2.85-14.34,1.72-16-.29,0,0-.83-13.56-1.83-27-1.22-16.62-1.82-21.5-1.22-40.65.39-12.21,1.14-33.77,8.08-55.45,6.16,4.6,24.3,5.66,32-.07,0,0,5.79,4.79,11.16,16.58,4,8.82,2,19.77,1.44,35.29-.69,18.12.4,37,.4,37a39.34,39.34,0,0,1,3.38,14.31c.44,10.25.3,22.7.3,22.7-1.92,2.81-11.42,4.55-15.48,2.2,0,0-6.14-21.13-7.14-26.39-1.5-8-2.4-12.6-3.24-17.68C424.34,281.43,420.59,261.32,420.59,261.32Z" style="fill:#455a64"></path><path d="M420.59,261.32l-3.42-24.22s-9.39-.63-14.2-6.81c0,0,.37,7.76,11.28,9.79l4.6,21.53-2.22,21.09Z" style="fill:#37474f"></path><path d="M412.59,356.86a4.73,4.73,0,0,1-.26,1.63c-.41.86-3.79,2.59-5.08,3.19a7.69,7.69,0,0,0-3.95,4,13.13,13.13,0,0,1-6.85,5.94,20.86,20.86,0,0,1-12.38,1c-5.16-1-5.51-4.1-5.51-4.1s-.21-2.87,1.08-3.3S412.59,356.86,412.59,356.86Z" style="fill:#263238"></path><path d="M411.92,345.68v0c.15,1.27-.16,2.56-.07,3.84a22.38,22.38,0,0,0,.87,3.77,7,7,0,0,1,.24,1.88,2.55,2.55,0,0,1-.37,1.65c-2.8,2.71-7.1,3.32-9.24,6.16s-4.14,6.4-10.94,7.6-11.9-1.06-13.11-3,0-3.75,4.36-6c4.66-2.39,10.88-9.67,10.89-9.68a30.26,30.26,0,0,0,2.36-3.25,8.66,8.66,0,0,0,1-1.63,8.09,8.09,0,0,0,.41-2.77,1,1,0,0,1,.2-.74.86.86,0,0,1,.61-.14,18.63,18.63,0,0,1,3.49.37,4.35,4.35,0,0,1,1.76.65,3.73,3.73,0,0,1,1.1,1.38,25,25,0,0,1,1.06,2.5,2,2,0,0,0,.34.61,1.35,1.35,0,0,0,1.62.18,3.05,3.05,0,0,0,1.17-1.29,9.19,9.19,0,0,1,.78-1.57,3.63,3.63,0,0,1,.67-.58l0-.75a1.4,1.4,0,0,1,.38,0,.68.68,0,0,1,.3.28A1.22,1.22,0,0,1,411.92,345.68Z" style="fill:#37474f"></path><path d="M396.83,369.1a8.61,8.61,0,0,0-4.86-7.46c-5.05-2.72-8.19-1.1-9.78,0-1.88,1.3-4.6,4-3,6.1,1.7,2.23,4.47,3.33,9.68,3.51S396.83,369.1,396.83,369.1Z" style="fill:#fafafa"></path><path d="M404.16,353.41a.58.58,0,0,1-.46-.25c-.56-.82-4.21-3.92-7.82-3-.18-.41.13-.83.88-1.26,3.78-.26,7.24,2.66,7.92,3.65a.54.54,0,0,1-.17.77A.56.56,0,0,1,404.16,353.41Z" style="fill:#fafafa"></path><path d="M393.76,352.82a1.78,1.78,0,0,1,1.05-1.23,10.76,10.76,0,0,1,7.45,3.67.55.55,0,0,1-.17.78.56.56,0,0,1-.35.09.6.6,0,0,1-.46-.25C400.73,355.08,397.26,352.15,393.76,352.82Z" style="fill:#fafafa"></path><path d="M388,358.52a3.26,3.26,0,0,1,1.63-1.48c3.72-.17,7.1,2.68,7.77,3.66a.55.55,0,0,1-.17.78.73.73,0,0,1-.35.09.59.59,0,0,1-.46-.26C395.84,360.45,391.8,357.05,388,358.52Z" style="fill:#fafafa"></path><path d="M399.31,358.85a.61.61,0,0,1-.46-.25c-.55-.81-4.13-3.85-7.7-3a2,2,0,0,1,1.23-1.27,10.74,10.74,0,0,1,7.46,3.67.56.56,0,0,1-.17.78A.67.67,0,0,1,399.31,358.85Z" style="fill:#fafafa"></path></g></g><g id="freepik--top--inject-10"><path d="M408.68,163.09c-3-.5-9.12.18-13.92,1.83l-24.29,8.33s-11.62,13.51-8,14.73c1.61.55,9.43.29,20.55-2.48,9.07-2.26,18.7-4.63,18.68-4.43C401.61,181.42,408.68,163.09,408.68,163.09Z" style="fill:#ffbda7"></path><path d="M381.67,174.36c-3.29,4.59-5.66,7.62-11,10.33l5.17-13.28,10.92-3.74C385,170,383,172.46,381.67,174.36Z" style="fill:#f0997a"></path><path d="M392.79,154.75c.78-1.22,1.88-2.68,2.34-3.52.87-1.57.74-3.6.69-5.38,0-.87,0-1.52,0-2.37a12.43,12.43,0,0,1,.18-2.74,7.43,7.43,0,0,1,1.59-3.29c.22-.29,2.23.11,2.86,0,1.12-.22,1.41-1,.58-1.32a14.39,14.39,0,0,0-4-.87c-.93.06-3.51,3.35-3.51,3.35s1.36-2.79,1.85-3.5,2.45-.65,3.54-.84c1.75-.3,2.43-1.71,1.78-1.86a18.65,18.65,0,0,0-5.32-.14,3.43,3.43,0,0,0-3.07,1.81,26.93,26.93,0,0,0-1.81,3.1s.94-4.7,1.26-5.59c0,0,1.48-.32,2.14-.49.95-.26,2.12-.76,2.33-1.79,0,0,.47-1-1.28-.8a42.19,42.19,0,0,0-5.27.75c-.55.25-1.11,1.37-1.69,3.5a72.47,72.47,0,0,0-1.84,9.56,29.91,29.91,0,0,1-1.52,7.22c-1.78,5.34-15.08,12.69-21.86,21.25a16.27,16.27,0,0,0-4.05,10.13c-.31,5.44,2.35,7.83,5.41,6.94a26.07,26.07,0,0,0,13.49-10.08C383.76,168.41,389.46,159.22,392.79,154.75Z" style="fill:#ffbda7"></path><path d="M425.26,163.41l10.31,1.08,11.12,16c.92,3.88-3.34,5.25-4.14,11.28C442,195.82,441.15,204,442,208c1.26,6,3.88,8.63,5.29,15.4-5.47,4.79-16.49,7.54-29,6.62-15.22-1.13-20.25-7.25-20.25-7.25,1.2-5.82,2.77-12.34,3.9-16.81l-.49-9.57s-9.29-3.84-4.67-16c3-7.83,11.9-17.32,11.9-17.32l2.59,0S420.18,162.9,425.26,163.41Z" style="fill:#E76F51"></path><path d="M413.25,194.18a10,10,0,0,0,9.5,5.29,10.55,10.55,0,0,0,9-5.6s-.28,7.36-9,7.37S413.25,194.18,413.25,194.18Z" style="opacity:0.2"></path><path d="M446.14,152c-.23-1.07,1-4,1-5.69s-1-4.8-.67-6.89-.2-2.75-.8-2.45a5.48,5.48,0,0,0-2.28,3.73C443.35,142.37,446.14,152,446.14,152Z" style="fill:#f0997a"></path><path d="M395.78,126.65c1.78-2.9,5.15-4,7.12-3.24,1.62-2.45,5.07-4,8-4.32,11.07-1.29,14.95,4,15.67,6,5.3.46,9.86,9.59,6.45,18.81-1.71,4.62-5.6,10.08-5.89,12.62l-7.08-.41a12.53,12.53,0,0,0-8.61-9.91c-7.8-2.57-12.22-4.2-13.46-5.69A11.25,11.25,0,0,1,395.78,126.65Z" style="fill:#263238"></path><path d="M427.23,117.06c3,.19,4.92,1.59,5.63,4.41a8.6,8.6,0,0,1,7.6,1.69,6.41,6.41,0,0,1,2,5.06c0,1.77-.9,2.76-1.92,4a4.21,4.21,0,0,1,2.64,5c-.29,1.25-4.67,6.05-.94,6.21-1.63,1.27-4.55.43-4.48-1.9a5.16,5.16,0,0,1-4.72,5.6,8,8,0,0,1-8.83-5.66l-3.1-20.44C421.77,118.39,424.33,116.87,427.23,117.06Z" style="fill:#263238"></path><path d="M397.7,135.12a28.41,28.41,0,0,0-.32,3.69,56.8,56.8,0,0,0,.19,7.38c.84,8.74,5,11.42,7.39,12.39a9.75,9.75,0,0,0,6.32.1l1.3,5.71s-6.57,7.29,3.2,6.78c9.44-.49,12.49-7.3,12.49-7.3l-2.13-13.45s2.44,1.55,4.76-1.08c2.18-2.48,2.92-6.09.84-8.16s-5.44-1.86-6.61,1.42c-.9,2.54-2.87,2.64-2.87.14,0-3.46-1.65-4.12-2.54-5.35-3-4.2-1.14-5.62-3.88-8-1.57-1.36-5.66-1.67-8.6.82C403.51,127.27,398.73,128.9,397.7,135.12Z" style="fill:#ffbda7"></path><polygon points="407.8 138.29 407.35 147.18 402.77 145.75 407.8 138.29" style="fill:#f0997a"></polygon><path d="M411.28,158.68c6.62-1.77,10.78-4.63,11.84-7.39a6.89,6.89,0,0,1-2.78,5.62c-3.12,2.23-8.6,3.77-8.6,3.77Z" style="fill:#f0997a"></path><path d="M407.42,152.66a.79.79,0,0,0,.78.35,2.27,2.27,0,0,0,1.22-.64,3.73,3.73,0,0,1,1.13-.81,3.08,3.08,0,0,1,1.09-.09,3,3,0,0,0,1.09-.11,1,1,0,0,0,.71-.78,1.54,1.54,0,0,0-.69-1.25,3.94,3.94,0,0,0-4-.3,2.82,2.82,0,0,0-1.06.88,3,3,0,0,0-.47,1.26A2.36,2.36,0,0,0,407.42,152.66Z" style="fill:#b16668"></path><path d="M413.44,150.41a1,1,0,0,1-.7,1.12c-.73.33-1.6.07-2.11.21a8.13,8.13,0,0,0-1.57.91l.19-1.06,2.71-1.41Z" style="fill:#b16668"></path><path d="M409.06,152.65a3.38,3.38,0,0,1,2.89-3.28,3.86,3.86,0,0,1,.83,0,1.57,1.57,0,0,1,.66,1.23,1,1,0,0,1-.71.78,3,3,0,0,1-1.09.11,3.08,3.08,0,0,0-1.09.09,3.56,3.56,0,0,0-1.13.81Z" style="fill:#f0997a"></path><path d="M403.38,137.9l-3.2-.87a1.66,1.66,0,0,0,3.2.87Z" style="fill:#263238"></path><path d="M413.66,135.32l-2.93,1.57a1.66,1.66,0,0,0,2.93-1.57Z" style="fill:#263238"></path><path d="M400.37,141.43c0,.8.72,1,1.48,1s1.3-.2,1.29-1a1.39,1.39,0,1,0-2.77,0Z" style="fill:#263238"></path><path d="M411.27,140.85c.25.75,1,.7,1.71.45s1.17-.59.92-1.34a1.39,1.39,0,1,0-2.63.89Z" style="fill:#263238"></path><path d="M435.57,164.49c4.31.11,8,2.17,14.52,6,2.86,1.68,16.23,9.94,16.23,9.94l4.44,12.31-2.62,2.79c-4.77.4-11.85-2.57-20.22-6.25-2.58-1.13-3.29-2.74-5.51.54C439.35,196.21,429.16,173,435.57,164.49Z" style="fill:#ffbda7"></path><path d="M447.87,169.22l9.23,20.21c-4.19-1-14.65-18.38-18.2-24.45C441.5,165.68,444.21,167.1,447.87,169.22Z" style="fill:#f0997a"></path><path d="M437.38,158.22c-.79-1.35-1.89-3-2.35-3.91-.85-1.73-.61-3.91-.46-5.83.07-.93.05-1.64.1-2.55a14.55,14.55,0,0,0-.05-3,8.12,8.12,0,0,0-1.55-3.62c-.22-.32-2.41,0-3.08-.16-1.19-.3-1.47-1.16-.56-1.46a15.74,15.74,0,0,1,4.31-.73c1,.11,3.61,3.78,3.61,3.78s-1.32-3.07-1.82-3.86-2.6-.82-3.77-1.08c-1.86-.42-2.52-2-1.82-2.09a20.26,20.26,0,0,1,5.74.11,3.68,3.68,0,0,1,3.21,2.11,29.64,29.64,0,0,1,1.79,3.43s-.77-5.11-1.07-6.09c0,0-1.58-.41-2.28-.63-1-.33-2.24-.93-2.42-2.05,0,0-.45-1.1,1.42-.8a48.43,48.43,0,0,1,5.64,1.08c.58.3,1.13,1.53,1.64,3.85a79.33,79.33,0,0,1,1.49,10.39,32.52,32.52,0,0,0,1.28,7.85c1.65,5.84,15.59,14.42,22.46,24a17.61,17.61,0,0,1,3.85,11.11c.05,5.88-2.93,8.31-6.18,7.2a28.11,28.11,0,0,1-14-11.53C446.41,173.39,440.73,163.2,437.38,158.22Z" style="fill:#ffbda7"></path></g></g><g id="freepik--angry-signs--inject-10"><g id="freepik--Bolt--inject-10"><polygon points="347.68 135.33 359.69 140.41 362.06 136.96 367.25 142.18 368.99 138.93 376.3 143.89 368.05 132.37 366.23 136.05 360.65 128.42 357.54 133.33 352.06 126.64 347.68 135.33" style="fill:#E76F51"></polygon><polygon points="347.68 135.33 359.69 140.41 362.06 136.96 367.25 142.18 368.99 138.93 376.3 143.89 368.05 132.37 366.23 136.05 360.65 128.42 357.54 133.33 352.06 126.64 347.68 135.33" style="fill:#fff;opacity:0.30000000000000004"></polygon><polygon points="366.91 153.6 367.39 149.13 376.1 147.61 364.05 145.42 363.41 148.99 354.09 147.38 354.85 154.72 366.91 153.6" style="fill:#E76F51"></polygon><polygon points="366.91 153.6 367.39 149.13 376.1 147.61 364.05 145.42 363.41 148.99 354.09 147.38 354.85 154.72 366.91 153.6" style="fill:#fff;opacity:0.30000000000000004"></polygon><polygon points="368.54 129.09 373.03 128.92 378.38 140.56 376.81 125.11 372.7 125.13 371.49 115.92 364.38 119.01 368.54 129.09" style="fill:#E76F51"></polygon><polygon points="368.54 129.09 373.03 128.92 378.38 140.56 376.81 125.11 372.7 125.13 371.49 115.92 364.38 119.01 368.54 129.09" style="fill:#fff;opacity:0.30000000000000004"></polygon></g><g id="freepik--Signs--inject-10"><polygon points="384.85 90.81 399.53 101.38 394.83 105.53 406.65 113.75 387.2 106.32 393.23 101.44 384.85 90.81" style="fill:#E76F51"></polygon><polygon points="384.85 90.81 399.53 101.38 394.83 105.53 406.65 113.75 387.2 106.32 393.23 101.44 384.85 90.81" style="fill:#fff;opacity:0.65"></polygon><polygon points="402.18 69.92 412.75 94.39 406.14 95.34 409.34 109.13 399.8 91.33 406.71 89.53 402.18 69.92" style="fill:#E76F51"></polygon><polygon points="483.23 137.49 466.11 131.66 465.45 137.89 451.9 133.02 469.23 144.57 469.71 136.83 483.23 137.49" style="fill:#E76F51"></polygon><polygon points="490.22 111.26 464.15 116.83 467.2 122.77 454.11 128.16 474.15 125.61 471.6 118.94 490.22 111.26" style="fill:#E76F51"></polygon><polygon points="490.22 111.26 464.15 116.83 467.2 122.77 454.11 128.16 474.15 125.61 471.6 118.94 490.22 111.26" style="fill:#fff;opacity:0.65"></polygon><path d="M455.13,96.66a19.87,19.87,0,0,0-7.56-4c-2.29-.77-4.6-1.5-6.95-2.06-4.32-1-9.32-1.66-13.5.26a4.48,4.48,0,0,0-2.4,2.23,3.6,3.6,0,0,0,.35,3.06c1.21,2.2,3.66,3.53,5.93,4.4a54.17,54.17,0,0,0,8.1,2.2,79.83,79.83,0,0,0,8.13,1.26,56,56,0,0,0,8,.37,18.51,18.51,0,0,0,3.92-.54c.85-.21,2.12-.63,1.69-1.77a3.6,3.6,0,0,0-1-1.18,17,17,0,0,0-1.61-1.33,21.59,21.59,0,0,0-3.38-2.05,33.78,33.78,0,0,0-7.72-2.55,50.56,50.56,0,0,0-15.55-1.18,22.36,22.36,0,0,0-7.33,1.86c-1.86.88-4.55,2.62-4.16,5a5.19,5.19,0,0,0,1.58,2.68,15.77,15.77,0,0,0,3,2.33,25.26,25.26,0,0,0,7.4,2.86,60.85,60.85,0,0,0,7.82,1.23,35.14,35.14,0,0,0,7.25.07,21.46,21.46,0,0,0,3.47-.66,17.35,17.35,0,0,0,1.76-.6,3.16,3.16,0,0,0,1.55-.93c.65-1-.34-2-1-2.65a10.36,10.36,0,0,0-3.37-2,40.83,40.83,0,0,0-7.38-2,36.81,36.81,0,0,0-7.48-.63,29,29,0,0,0-3.83.33,7.13,7.13,0,0,0-3.27,1.08c-2.17,1.65-.33,4.24,1.15,5.6a15.09,15.09,0,0,0,6.95,3.26,35.53,35.53,0,0,0,7.48.86,19.75,19.75,0,0,0,7.11-1.1c.42-.16,1-.3,1.15-.75a1.31,1.31,0,0,0-.3-1.24,4.73,4.73,0,0,0-3.07-1.61,18.85,18.85,0,0,0-3.9-.17,32.73,32.73,0,0,0-4,.36,19.21,19.21,0,0,0-3.74.89,7.38,7.38,0,0,0-3.06,1.81c-1.75,2.06,1.56,4,3.19,4.52a15.21,15.21,0,0,0,3.8.53,22.23,22.23,0,0,0,3.65-.09,13.79,13.79,0,0,0,3.42-.83c.91-.36,2.19-.87,2.41-2s-.75-1.83-1.59-2.24a6.65,6.65,0,0,0-3.7-.65c-1.75.2-3.95,1.56-3.62,3.61s3.11,3.16,5,3.13c.94,0,2.37-.2,2.93-1.07s-.19-1.77-.95-2.12a2.62,2.62,0,0,0-2.81.47,2.82,2.82,0,0,0-.74,2.54,3.06,3.06,0,0,0,4.46,2.07c.34-.16,0-.86-.35-.67a2.64,2.64,0,0,1-2.83-.26,2.11,2.11,0,0,1-.39-2.77,2.08,2.08,0,0,1,2.75-.54c1.41,1-1.4,1.56-2.07,1.57a5.46,5.46,0,0,1-2.87-.7c-.82-.47-1.74-1.26-1.46-2.31.53-1.91,3.06-2.38,4.72-2.12a4.2,4.2,0,0,1,2.71,1.26c.67,1-1.34,1.76-2,2a16.24,16.24,0,0,1-6.11.87c-2.18,0-4.78-.2-6.5-1.71a1.82,1.82,0,0,1-.77-1.23c0-.57.59-1,1-1.28a10.68,10.68,0,0,1,3.05-1.35,27.61,27.61,0,0,1,6.65-.91,20.59,20.59,0,0,1,3.42.11,6.31,6.31,0,0,1,1.55.4,3.66,3.66,0,0,1,.77.44c.15.11.6.44.6.64,0,.43-1.16.67-1.47.77a14.26,14.26,0,0,1-1.59.41,18.92,18.92,0,0,1-3.09.39,32.17,32.17,0,0,1-6.2-.35,22.34,22.34,0,0,1-6.62-1.79,10.73,10.73,0,0,1-2.87-2,4.3,4.3,0,0,1-1.55-2.63c0-1.22,1.34-1.81,2.33-2.06a19.94,19.94,0,0,1,3.08-.48,32.64,32.64,0,0,1,6.48.07,44.35,44.35,0,0,1,6.15,1.13,19,19,0,0,1,6.44,2.5,6,6,0,0,1,1.3,1.21c.15.21.34.46.22.73s-.6.47-.89.59a17.62,17.62,0,0,1-2.93,1,24.84,24.84,0,0,1-6.08.58,52.67,52.67,0,0,1-6.27-.53,47.58,47.58,0,0,1-6.8-1.36,21.15,21.15,0,0,1-6.26-2.86c-1.42-1-3.95-2.84-3.07-4.88a6,6,0,0,1,2.32-2.32,13.19,13.19,0,0,1,3-1.41,26.56,26.56,0,0,1,6.37-1.21,51.2,51.2,0,0,1,13.18,1c4.54.85,9.16,2.29,12.78,5.27a11.18,11.18,0,0,1,1.25,1.13c.58.62-.24.88-.76,1a16.6,16.6,0,0,1-3.36.55,45.88,45.88,0,0,1-6.73-.15A79.63,79.63,0,0,1,435.27,101a24.76,24.76,0,0,1-6.77-2.51c-1.56-1-4.09-3-3.09-5.15.87-1.83,3.58-2.42,5.38-2.71a20.53,20.53,0,0,1,5.7-.08,40.47,40.47,0,0,1,6.17,1.28c2.13.59,4.26,1.23,6.34,2A18,18,0,0,1,454.92,97c.16.14.35-.25.21-.38Z" style="fill:#455a64"></path></g></g></g><g id="freepik--character-2--inject-10"><g id="freepik--character--inject-10"><path id="freepik--shadow--inject-10" d="M204.42,260.84c-19.42,10.83-19.42,28.38,0,39.21s50.9,10.83,70.32,0,19.41-28.38,0-39.21S223.84,250,204.42,260.84Z" style="fill:#e6e6e6"></path><g id="freepik--bottom--inject-10"><path d="M277.68,275.71l-.1-.1c-4.22-4.05-7.51-7.13-10.57-12.12a10,10,0,0,1-1.5-3.64c-.13-1.36.44-6.18.7-10.53.15-2.65,1.57-20.25,2-24.65.37-3.93,1-12.1,1.35-16,.25-2.64.69-12.75.65-15.41-.32-19.09-1.26-53.17-2.59-64.28l-41.89,4.47c-3.11,7.76-5.39,17.31-4.9,32.3.36,11.43-.38,40.74-.38,40.74a30,30,0,0,0-6.6,16.76c-.67,8.58-2.33,34.76-3.14,37.89-.06.27-.46,1.19-.46,1.19-2.41,2-2.05,5.83-1.89,7.89.43,5.54.59,9.66,1.59,14.29.52,2.41.68,3.59,2.85,5,1.16.73,4.69,1.22,5.83-.21a7,7,0,0,1-1.07-2.05,9.71,9.71,0,0,1-.46-2.57c-.05-1.54-.18-3.71-.15-5.25.1-4.8,1.05-5.63,3-11.2,2.8-7.93,17.64-48.39,20.39-59.54s3.29-27.81,6.26-43l3.93,30.81a92.26,92.26,0,0,0-1.78,14.73c-.08,6.77,3.6,35.78,4.67,47.6v.75a31.65,31.65,0,0,1-.09,4.26,7.16,7.16,0,0,0,2.9,4.38c1.16.95,2.45,1.74,3.63,2.68,1.84,1.45,3.38,3.24,5.14,4.78,3.07,2.7,7.06,4.69,11.12,4.25a4.08,4.08,0,0,0,1.78-.52,2,2,0,0,0,1-1.5A3,3,0,0,0,277.68,275.71Z" style="fill:#ffbda7"></path><path d="M244.73,187.15c1.05-7.52,1.57-12.16,1.57-12.16l3.36,21.48s-.49,2.52-1.14,7.16c-.67,4.86.1,16.29.82,22.8.86,7.84,1.37,13.32,1.37,13.32,7.75,4,16.78.89,16.78.89s1-11.69,2.33-25.09c1.7-16.57,1.43-21.63,1.36-40.8,0-12.21.83-33.59-5.5-55.45-6.29,4.42-24.45,5-32-1,0,0-4.85,5.15-10.54,16.78-4.26,8.7-3.68,19.19-3.52,34.72.18,18.13.07,36.12.07,36.12s-4.75,6.26-5.91,13.38a158.34,158.34,0,0,0-1.7,21.32s4.26,6.57,15.65,6.87c0,0,8-22.4,9.82-27.43a123.48,123.48,0,0,0,4.82-17.86C243.87,194.63,244.42,189.35,244.73,187.15Z" style="fill:#455a64"></path><path d="M246.3,175l4.11-24.11s9.4-.38,14.39-6.42c0,0-.59,7.75-11.56,9.47L248,175.32l1.62,21.15Z" style="fill:#37474f"></path><path d="M251.6,270.71a4.93,4.93,0,0,0,.22,1.64c.38.87,3.71,2.7,5,3.33a7.66,7.66,0,0,1,3.84,4.14,13.13,13.13,0,0,0,6.68,6.12,20.93,20.93,0,0,0,12.35,1.37c5.18-.89,5.62-3.94,5.62-3.94s.29-2.87-1-3.33S251.6,270.71,251.6,270.71Z" style="fill:#263238"></path><path d="M252.59,259.56v0c-.19,1.26.09,2.56,0,3.84a23.1,23.1,0,0,1-1,3.74,7,7,0,0,0-.3,1.87c0,.49,0,1.29.32,1.66,2.72,2.79,7,3.52,9.07,6.42s3.95,6.51,10.72,7.91,11.92-.73,13.18-2.64.14-3.75-4.19-6.12c-4.59-2.52-10.6-10-10.6-10a31.38,31.38,0,0,1-2.27-3.32,9.66,9.66,0,0,1-.93-1.66,8.39,8.39,0,0,1-.33-2.78,1,1,0,0,0-.18-.74.84.84,0,0,0-.6-.16,18.57,18.57,0,0,0-3.5.27,4.23,4.23,0,0,0-1.78.6,3.89,3.89,0,0,0-1.14,1.34,24.91,24.91,0,0,0-1.12,2.47,2.18,2.18,0,0,1-.36.61,1.38,1.38,0,0,1-1.63.13,3.19,3.19,0,0,1-1.14-1.32,10,10,0,0,0-.72-1.6,5,5,0,0,0-.66-.59v-.75a1.34,1.34,0,0,0-.38,0,.63.63,0,0,0-.31.27A1.45,1.45,0,0,0,252.59,259.56Z" style="fill:#37474f"></path><path d="M267,283.39a8.61,8.61,0,0,1,5.07-7.32c5.13-2.57,8.22-.87,9.77.27,1.85,1.35,4.5,4.17,2.86,6.18-1.76,2.19-4.56,3.21-9.77,3.23S267,283.39,267,283.39Z" style="fill:#fafafa"></path><path d="M260.13,267.51a.64.64,0,0,0,.47-.24c.58-.81,4.32-3.8,7.9-2.78.19-.41-.11-.84-.85-1.29-3.76-.36-7.31,2.45-8,3.42a.54.54,0,0,0,.15.78A.58.58,0,0,0,260.13,267.51Z" style="fill:#fafafa"></path><path d="M270.54,267.21a1.79,1.79,0,0,0-1-1.26,10.73,10.73,0,0,0-7.55,3.46.55.55,0,0,0,.14.78.64.64,0,0,0,.35.1.59.59,0,0,0,.47-.24C263.51,269.27,267.06,266.43,270.54,267.21Z" style="fill:#fafafa"></path><path d="M276.13,273.06a3.23,3.23,0,0,0-1.59-1.52c-3.71-.27-7.18,2.48-7.87,3.44a.55.55,0,0,0,.14.78.65.65,0,0,0,.36.1.57.57,0,0,0,.46-.24C268.25,274.77,272.38,271.49,276.13,273.06Z" style="fill:#fafafa"></path><path d="M264.82,273.08a.62.62,0,0,0,.47-.24c.58-.8,4.24-3.73,7.78-2.81a2,2,0,0,0-1.19-1.29,10.73,10.73,0,0,0-7.56,3.45.54.54,0,0,0,.15.78A.58.58,0,0,0,264.82,273.08Z" style="fill:#fafafa"></path><path d="M203.44,268c-1.14.59-1.41,1.91-.91,3.37s2.07,3.86,2.73,6a31,31,0,0,1,.82,8.59c0,3.47.43,6.61,3.65,9.08s6.83,2.54,10.68,2.21,6.67-1.1,6.46-3.28Z" style="fill:#263238"></path><path d="M209.16,262c.47-.87.9-1.37,1.54-.9a5,5,0,0,1-.46,1.19c-.34.65.76,2.16.94,2.76a11.73,11.73,0,0,1,.39,3.44,1.41,1.41,0,0,0,.16.79c.35.52,1.19.31,1.6-.15s.6-1.1,1-1.55a2.63,2.63,0,0,1,1.94-.71,20,20,0,0,1,3.6.51,1.05,1.05,0,0,1,.46.16c.32.24.27.72.2,1.12a25.87,25.87,0,0,0-.34,7.35,65.2,65.2,0,0,0,1.17,7.62,12.3,12.3,0,0,0,.72,2.45,6.89,6.89,0,0,0,1.53,2.18c.61.59,1.49,1,1.93,1.79a2.57,2.57,0,0,1-.2,2.64,3.89,3.89,0,0,1-2.67,1.54c-1.11.25-2.14.68-3.28.83a15.39,15.39,0,0,1-7.39-.88,8.93,8.93,0,0,1-3.49-2.6c-1.89-3-1.61-6.37-1.68-9-.16-5.27-1.55-7.41-2.7-10.27a9.16,9.16,0,0,1-.72-4.26c.77-2.4,2.59-2.73,4.26-4.28A5.75,5.75,0,0,0,209.16,262Z" style="fill:#37474f"></path><path d="M211.29,273.62a.6.6,0,0,0,.52-.06c.83-.56,5.27-2,8.29.19a1.07,1.07,0,0,0,0-1.55c-3.42-1.63-8-.25-9,.42a.55.55,0,0,0-.13.79A.69.69,0,0,0,211.29,273.62Z" style="fill:#fafafa"></path><path d="M220.29,276.86c.14-.53.2-1.13-.11-1.38a9.31,9.31,0,0,0-8.69.53.55.55,0,0,0-.13.78.61.61,0,0,0,.3.21.6.6,0,0,0,.52-.06C213,276.4,217.28,274.94,220.29,276.86Z" style="fill:#fafafa"></path><path d="M221.35,283.45a2,2,0,0,0-.27-1.34c-3.4-1.52-7.15.06-8.14.72a.56.56,0,0,0-.13.79.69.69,0,0,0,.3.21.6.6,0,0,0,.52-.06C214.5,283.18,219.6,282,221.35,283.45Z" style="fill:#fafafa"></path><path d="M212.59,280.41a.6.6,0,0,0,.52-.06c.81-.55,5.86-1.86,7.6-.37.06-.55.31-.78-.22-1.32a10.15,10.15,0,0,0-8.07.75.55.55,0,0,0-.13.79A.63.63,0,0,0,212.59,280.41Z" style="fill:#fafafa"></path><path d="M208,290.65c.54-2.43,7.45-6,13.92-5a12.17,12.17,0,0,1,4.78,4.06,4.24,4.24,0,0,1,.15,4.24c-.54.93-5.54,2.42-11.68,1.52S208,290.65,208,290.65Z" style="fill:#fafafa"></path></g><g id="freepik--top--inject-10"><path d="M257.19,81.57c4.09.4,9.38,1.6,13.12,9.21,4.79,9.74,11.24,22.91,12.1,34.22.45,5.86-9.51-1.48-9.51-1.48l-8.54-14.06Z" style="fill:#ffbda7"></path><path d="M275,111.36a28.31,28.31,0,0,1-4.11-5.49c2.23-5.23-1.67-11.1-6.24-14.9l-3.33,6.8,3,11.69,8.54,14.06s9.12,6.72,9.51,2.14c0-.22,0-.43,0-.66-.07-1-.19-2-.33-3C281.15,116.89,277,113.34,275,111.36Z" style="fill:#f0997a"></path><g id="freepik--Chest--inject-10"><path d="M265.84,111.5c-.16,2.07,1.44,10,1.44,10,1,6,2.85,17.2,2.85,17.2-9.41,9.19-44.76,6.61-49.34.1,2-8.68,5.29-15,5.14-18.15L224.62,104s4.27-7.71,3.46-20.22c0,0,9-3.26,16.66-3.26a64.56,64.56,0,0,1,12.45,1c2.08,1.9,5.08,5.89,8.62,11C270,98.76,271.89,106.29,265.84,111.5Z" style="fill:#E76F51"></path></g><path d="M254.65,90.8A19.71,19.71,0,0,0,257.93,93a12.34,12.34,0,0,1,2.66,1.63,14.38,14.38,0,0,1,4.18,5.52c2.1,4.92,5,7.86,7.8,10.68s7.74,5.76,9.26,11.26c1,3.67.81,7.55-1.43,9.36-.93.74-5.84-.52-9.2-3.58-4.36-4-9.25-14.44-10.7-16.94-1.17-2-3.31-3.12-4.62-5a12.91,12.91,0,0,1-2.27-6.36c-.09-1.24,0-2.5-.1-3.74a22.85,22.85,0,0,1-.39-4.35,1.77,1.77,0,0,1,.22-.75.69.69,0,0,1,.67-.33,1.11,1.11,0,0,1,.39.2Z" style="fill:#ffbda7"></path><path d="M263.1,102.5a15.79,15.79,0,0,0-1.41-4.69c-.35-.73-1-.88-1.52-1.4s-.56-1-1-1.41a4,4,0,0,0-1.72-.77A3.18,3.18,0,0,1,256,93.15c-.38-.42-.87-.87-1.42-.74a1.09,1.09,0,0,0-.74.77,3.44,3.44,0,0,0-.06,1.11,59.65,59.65,0,0,1,.1,6.41c0,.19,0,.37,0,.55a12.92,12.92,0,0,0,2,4.71c1.31,1.87,3.45,3,4.62,5,.22.38.49.92.8,1.55a33.08,33.08,0,0,0,1.4-5A15.15,15.15,0,0,0,263.1,102.5Z" style="fill:#f0997a"></path><path d="M228.08,83.78c-4.89,1.41-9.94,4.56-8.53,14.31,1.32,9.18,8.19,31.65,9.6,34.65,2.25,4.79,5.24,7.83,8.31,8.53a6.64,6.64,0,0,0,5.2-1.19c6.37-4.41,12.21-17.47,14.72-22.87a42.55,42.55,0,0,0,3.54-10.07,14.1,14.1,0,0,0,.38-4.75A14.81,14.81,0,0,0,260,97.92c-.34-.71-.92-.85-1.45-1.34s-.54-1-.92-1.35a3.79,3.79,0,0,0-1.65-.73,3,3,0,0,1-1.4-1c-.36-.39-.84-.83-1.36-.71a1,1,0,0,0-.7.74,2.91,2.91,0,0,0-.07,1.06,57,57,0,0,1,.1,6.13,9.1,9.1,0,0,1-.83,3.74c-.12.22-.26.45-.5.51a.64.64,0,0,1-.5-.12,1.45,1.45,0,0,1-.33-.41c-.39-.68-.69-1.4-1.06-2.09a4.9,4.9,0,0,0-1.9-2.08,2,2,0,0,0-1-.3,1,1,0,0,0-.85.52c-.19.43.06.91.25,1.34a25.62,25.62,0,0,1,1.65,6.13c.22,1,.88,2.38,1.16,3.38.36,1.3-1,3.66-1.74,4.9a32.56,32.56,0,0,1-6,7.27l-4.58-17.8s.86-9.52-2.57-16.51C231.48,84.56,228.08,83.78,228.08,83.78Z" style="fill:#ffbda7"></path><path d="M240.89,123.47c-3,1.39-5.63,4.21-6.15,5.83,0,0-.33-5.1,5.64-7.82Z" style="fill:#f0997a"></path><path d="M266.89,44.46c-1.81-2.87-5.19-4-7.15-3.15-1.65-2.43-5.12-3.93-8-4.23-11.09-1.16-14.91,4.16-15.6,6.17-5.3.52-9.1,9.22-5.58,18.39,1.76,4.6,5.88,9.73,6.2,12.26l6.27.29a12.52,12.52,0,0,1,8.49-10c7.76-2.67,12.17-4.35,13.39-5.85A11.24,11.24,0,0,0,266.89,44.46Z" style="fill:#263238"></path><path d="M235.33,35.24c-3,.24-4.9,1.65-5.58,4.48a8.65,8.65,0,0,0-7.58,1.78,6.41,6.41,0,0,0-1.92,5.09c.06,1.76.93,2.74,2,4a4.22,4.22,0,0,0-2.59,5c.31,1.24,4.75,6,1,6.2,1.64,1.24,4.55.37,4.45-2a5.16,5.16,0,0,0,4.79,5.54,8,8,0,0,0,8.77-5.76l2.85-20.48C240.81,36.51,238.23,35,235.33,35.24Z" style="fill:#263238"></path><path d="M265.08,53a28.13,28.13,0,0,1,.36,3.68,56.81,56.81,0,0,1-.1,7.38c-.74,8.75-4.86,11.48-7.25,12.48a11.18,11.18,0,0,1-6.75,0l-.38,5s8.84,6.21,1.48,7.16a18.3,18.3,0,0,1-11.37-2.34c-4.4-2.61-5-4.06-5-4.06l.73-12.7s-1.88,1.83-5.08-1c-2.65-2.3-3.55-6.2-1.49-8.29s5.78-1.62,7.49,1.42c1.21,2.16,2.34.63,2.41-1.88s2-3.19,2.92-4.44c3-4.23,1.07-5.63,3.79-8,1.55-1.38,5.64-1.74,8.61.72C259.17,45.18,264,46.74,265.08,53Z" style="fill:#ffbda7"></path><path d="M251.61,59.11c0,.65-.51.74-1.17.81s-1.16.09-1.21-.56a1.23,1.23,0,0,1,1.09-1.3A1.16,1.16,0,0,1,251.61,59.11Z" style="fill:#263238"></path><path d="M249,60a1.41,1.41,0,0,0-.25.7c0,.18-.07.36-.1.53a.3.3,0,0,0,0,.19.19.19,0,0,0,.21.07.52.52,0,0,0,.18-.15c.19-.24.34-.56.64-.63s.48,0,.6-.14.06-.12.1-.17.25-.07.39,0a1.13,1.13,0,0,0,.63,0,.66.66,0,0,0,.4-.46.24.24,0,0,0-.13-.28c-.08,0-.16,0-.23,0a2.68,2.68,0,0,1-1.36.3C249.64,59.85,249.28,59.55,249,60Z" style="fill:#fafafa"></path><path d="M261.56,59.64c-.21.62-.53.49-1.16.3s-1.33-.39-1.12-1a1.23,1.23,0,0,1,1.52-.76A1.14,1.14,0,0,1,261.56,59.64Z" style="fill:#263238"></path><path d="M259.34,59.33h-.09c-.31.06-.16.47.07.52a.82.82,0,0,1,.35.09c.1.07.14.2.23.28a.56.56,0,0,0,.38.12c.13,0,.27,0,.41,0a1.18,1.18,0,0,1,.73.55,5.17,5.17,0,0,1,.65,1.59c.05.19.11.38.14.57a3.07,3.07,0,0,1,0,1.09.84.84,0,0,0,0,.35.23.23,0,0,0,.26.19.22.22,0,0,0,.15-.16.65.65,0,0,0,0-.24,15.56,15.56,0,0,0-.8-3.76,1.06,1.06,0,0,0-.27-.47,1.21,1.21,0,0,0-.53-.12,3.19,3.19,0,0,1-1.43-.5A1,1,0,0,0,259.34,59.33Z" style="fill:#fafafa"></path><path d="M253.89,67.53c-1.51-.48-3.4.29-3.43,1.21,0,.67.55,1,1.43,1a3.17,3.17,0,0,1,2.16.86,1,1,0,0,0,1.67-.64A2.34,2.34,0,0,0,253.89,67.53Z" style="fill:#b16668"></path><path d="M251.58,68.17a1.72,1.72,0,0,0-1,.13.77.77,0,0,0-.16.44c0,.67.55,1,1.43,1A4.12,4.12,0,0,1,253,70,1.74,1.74,0,0,0,251.58,68.17Z" style="fill:#f0997a"></path><path d="M260.84,53.49l2.42,2.16a1.56,1.56,0,0,1-2.26.18A1.7,1.7,0,0,1,260.84,53.49Z" style="fill:#263238"></path><path d="M246.17,56l2.53-2a1.56,1.56,0,0,1-.19,2.26A1.7,1.7,0,0,1,246.17,56Z" style="fill:#263238"></path><polygon points="254.32 56.04 254.94 66.08 260.11 64.39 254.32 56.04" style="fill:#f0997a"></polygon><path d="M251.34,76.55c-6.63-1.68-10.4-4.38-11.49-7.12A6.87,6.87,0,0,0,242.69,75c3.15,2.19,8.51,3.53,8.51,3.53Z" style="fill:#f0997a"></path></g></g><g id="freepik--sad-signs--inject-10"><path d="M290.91,81.41h0v0a3.78,3.78,0,0,0-1.82-2.51,4,4,0,0,0-4.18.55,13.29,13.29,0,0,1-1.66,1l-1.28.62,1.38,3-2.65.4-.05,2.23-.52-2.48,1.9-1-1.19-2.55,3.37-2.29a3.51,3.51,0,0,0-4.72-3.61h0a3.82,3.82,0,0,0-2.09,1.7c-1.5,2.59.08,5.42,1.11,8.28l1.18,2.76,3.07-.31c3-.53,6.23-.58,7.73-3.17A3.78,3.78,0,0,0,290.91,81.41Z" style="fill:#E76F51"></path><path d="M290.91,81.41h0v0a3.78,3.78,0,0,0-1.82-2.51,4,4,0,0,0-4.18.55,13.29,13.29,0,0,1-1.66,1l-1.28.62,1.38,3-2.65.4-.05,2.23-.52-2.48,1.9-1-1.19-2.55,3.37-2.29a3.51,3.51,0,0,0-4.72-3.61h0a3.82,3.82,0,0,0-2.09,1.7c-1.5,2.59.08,5.42,1.11,8.28l1.18,2.76,3.07-.31c3-.53,6.23-.58,7.73-3.17A3.78,3.78,0,0,0,290.91,81.41Z" style="opacity:0.30000000000000004"></path><path d="M208.73,73.92h0a3.17,3.17,0,0,0-2.39,1,3.36,3.36,0,0,0-.39,3.5,10.15,10.15,0,0,1,.47,1.54l.19.85,2.9-.22-.09,2.31,1.53.41-2.2.12-.29-1.92-2.31.45L205,78.74a2.93,2.93,0,0,0-3.86,3.09v0h0a3.11,3.11,0,0,0,1,2c1.8,1.74,4.4,1,6.93.76l2.46-.39.37-2.55c.17-2.53.78-5.16-1-6.89A3.12,3.12,0,0,0,208.73,73.92Z" style="fill:#E76F51"></path><g id="freepik--smiley-face--inject-10"><path d="M288.34,63.93a5.85,5.85,0,1,0,7.33-3.83A5.84,5.84,0,0,0,288.34,63.93Z" style="fill:#E76F51"></path><g style="opacity:0.4"><path d="M288.34,63.93a5.85,5.85,0,1,0,7.33-3.83A5.84,5.84,0,0,0,288.34,63.93Z" style="fill:#fff"></path></g><path d="M295.35,69.05a.32.32,0,0,1-.23-.27,2.41,2.41,0,0,0-1.66-1.61h0a2.33,2.33,0,0,0-2.28.37.34.34,0,0,1-.49-.47,3,3,0,0,1,3-.55h0a3,3,0,0,1,2.13,2.16.35.35,0,0,1-.28.39A.41.41,0,0,1,295.35,69.05Z" style="fill:#455a64"></path><path d="M296.07,64.9a.65.65,0,1,0,.84-.52A.69.69,0,0,0,296.07,64.9Z" style="fill:#455a64"></path><path d="M291.37,63.5a.66.66,0,1,0,.84-.52A.72.72,0,0,0,291.37,63.5Z" style="fill:#455a64"></path></g><g id="freepik--smiley-face--inject-10"><path d="M205.05,33.93a8.32,8.32,0,1,0,4.48-10.87A8.31,8.31,0,0,0,205.05,33.93Z" style="fill:#E76F51"></path><g style="opacity:0.4"><path d="M205.05,33.93a8.32,8.32,0,1,0,4.48-10.87A8.31,8.31,0,0,0,205.05,33.93Z" style="fill:#fff"></path></g><path d="M217.37,33.09a.5.5,0,0,1-.51-.08,3.38,3.38,0,0,0-3.28-.24h0a3.32,3.32,0,0,0-2.14,2.5.49.49,0,1,1-1-.07,4.26,4.26,0,0,1,2.74-3.32h0a4.27,4.27,0,0,1,4.29.4.49.49,0,0,1,.05.68A.68.68,0,0,1,217.37,33.09Z" style="fill:#455a64"></path><path d="M214.34,27.92a.93.93,0,1,0,.44-1.34A1,1,0,0,0,214.34,27.92Z" style="fill:#455a64"></path><path d="M208,30.69a.93.93,0,1,0,1.7-.71.93.93,0,1,0-1.7.71Z" style="fill:#455a64"></path></g><polygon points="185.94 49.46 195.39 55.94 198.04 53.38 201.59 58.79 203.66 56.29 209.08 61.84 203.99 50.48 201.78 53.33 198.32 45.78 194.78 49.46 191.23 42.75 185.94 49.46" style="fill:#E76F51"></polygon><polygon points="201.27 67.86 202.63 64.16 210.37 64.7 200.56 60.29 199.26 63.19 191.66 59.85 190.75 66.27 201.27 67.86" style="fill:#E76F51"></polygon><g style="opacity:0.30000000000000004"><polygon points="185.94 49.46 195.39 55.94 198.04 53.38 201.59 58.79 203.66 56.29 209.08 61.84 203.99 50.48 201.78 53.33 198.32 45.78 194.78 49.46 191.23 42.75 185.94 49.46" style="fill:#fff;opacity:0.65"></polygon><polygon points="201.27 67.86 202.63 64.16 210.37 64.7 200.56 60.29 199.26 63.19 191.66 59.85 190.75 66.27 201.27 67.86"></polygon></g><polygon points="292.7 30.43 285.75 38.76 282.69 37.12 280.84 42.95 278.31 41.21 274.8 47.66 276.52 36 279.27 38.03 280.48 30.27 284.65 32.71 286.16 25.68 292.7 30.43" style="fill:#E76F51"></polygon><polygon points="283.47 51.14 281.28 48.11 274.36 50.6 282.17 44.05 284.1 46.37 290.17 41.37 292.64 46.98 283.47 51.14" style="fill:#E76F51"></polygon><g style="opacity:0.30000000000000004"><polygon points="292.7 30.43 285.75 38.76 282.69 37.12 280.84 42.95 278.31 41.21 274.8 47.66 276.52 36 279.27 38.03 280.48 30.27 284.65 32.71 286.16 25.68 292.7 30.43"></polygon><polygon points="283.47 51.14 281.28 48.11 274.36 50.6 282.17 44.05 284.1 46.37 290.17 41.37 292.64 46.98 283.47 51.14" style="fill:#fff;opacity:0.65"></polygon></g></g></g><g id="freepik--character-1--inject-10"><g id="freepik--character--inject-10"><path id="freepik--shadow--inject-10" d="M107.64,320.87a26.81,26.81,0,0,1,5.77-1.2,9.7,9.7,0,0,1,9.21,6.5c.62,1.92.63,4,1.52,5.83,1.59,3.21,5.38,4.51,8.31,6.56,2.27,1.59,4.1,3.72,6.2,5.54a20.3,20.3,0,0,0,11.11,5.2A12.87,12.87,0,0,0,160.93,345,7.26,7.26,0,0,1,163,342.9a5,5,0,0,1,2-.39c4.11-.21,8.92-.21,11.36-3.52s.74-8.55-2.35-11.52-7.21-4.62-10.58-7.26c-2.77-2.17-5-4.94-7.44-7.46-7.28-7.49-16.6-12.66-26-17.13-9.13-4.33-19.83-8-25.17-17.36-4-6.95-3.28-15.6-6.07-23.09a32.09,32.09,0,0,0-4.37-7.87,28.75,28.75,0,0,0-10.09-8.9,17.77,17.77,0,0,0-13.17-1.32c-4.68,1.51-8.37,5.33-10.59,9.72s-3.13,9.32-3.63,14.22a83.45,83.45,0,0,0,4.56,37.74c3.12,8.27,8.28,14.38,16.29,18.15C86.85,321.21,97.74,323.4,107.64,320.87Z" style="opacity:0.1"></path><g id="freepik--top--inject-10"><path d="M106.55,233.2c5.09,1.24,9.74,3.7,13.06,8.37s12.69,19.81,12.69,19.81l-11.85,5.71Z" style="fill:#ffbda7"></path><path d="M64.27,271.91c1.51,15,4.5,25.3,12.85,34.16l36.32-25.51L113,262.8Z" style="fill:#455a64"></path><path d="M76.65,232a75.14,75.14,0,0,1,10.46-1.58c3.38-.13,14.61,1,19.44,2.81a49.21,49.21,0,0,1,8.27,12c3.37,6.74,5.3,10.95,4.46,14.39-1.77,7.22-7.28,7.19-7.28,7.19.19,4.82.1,8.43,0,10.93-3.76,3.11-12.18,4.08-21.68,5.08-7.73.82-17.18,6.72-20.32,13-4.33-7.92-5.68-20.82-6.09-26.19a60,60,0,0,1,1-18.42C68,237,73.18,233.13,76.65,232Z" style="fill:#E76F51"></path><path d="M118.39,196.46c-1.61-3-4.91-4.31-6.93-3.61-1.48-2.54-4.85-4.26-7.72-4.75-11-1.89-15.15,3.17-16,5.13-5.31.16-9.92,7.57-7.93,18.7.87,4.84,5.81,11,6,13.59l6.81-1a12.54,12.54,0,0,1,9.13-9.43c7.93-2.15,12.43-3.54,13.75-5A11.24,11.24,0,0,0,118.39,196.46Z" style="fill:#263238"></path><path d="M87.51,185.19c-3,0-5,1.32-5.86,4.1A8.59,8.59,0,0,0,74,190.57a6.38,6.38,0,0,0-2.26,4.94c-.06,1.77.75,2.8,1.7,4.14a4.21,4.21,0,0,0-2.91,4.84c.23,1.27,4.34,6.29.6,6.26,1.56,1.35,4.52.66,4.58-1.67a5.16,5.16,0,0,0,4.41,5.85,8,8,0,0,0,9.13-5.17l4.19-20.25C92.89,186.81,90.41,185.15,87.51,185.19Z" style="fill:#263238"></path><path d="M116,204.82a28.54,28.54,0,0,1,.13,3.7,58.58,58.58,0,0,1-.6,7.36c-1.31,8.68-4.28,11.11-6.72,12a13.44,13.44,0,0,1-7.48-.16l-.28,5.3s5.72,6.66-1.6,7.92a12.66,12.66,0,0,1-10.19-3.13A14.57,14.57,0,0,1,85.55,232L86,219.8A4.44,4.44,0,0,1,80.73,218c-2.07-2.84-2.13-6.14.06-8.09s5.88-1.24,7.38,1.9c1.07,2.24,2.3.78,2.53-1.71s2.25-3,3.21-4.24c3.25-4,1.44-5.55,4.3-7.76,1.65-1.28,5.75-1.37,8.55,1.28C110.64,196.67,115.33,198.55,116,204.82Z" style="fill:#ffbda7"></path><path d="M104,220a1.49,1.49,0,0,0-.33-.57,2.5,2.5,0,0,0-.64-.48,1.47,1.47,0,0,0-1.46,0,.16.16,0,0,0-.09.09.12.12,0,0,0,.08.13c.2.09.51,0,.74.12a2.39,2.39,0,0,1,.64.26,1.83,1.83,0,0,1,.5.42c.11.14.19.31.29.45s.1.14.17.14a.15.15,0,0,0,.14-.12A1.1,1.1,0,0,0,104,220Z" style="fill:#b16668"></path><path d="M111.76,205.07l2.28,2.32a1.57,1.57,0,0,1-2.27,0A1.71,1.71,0,0,1,111.76,205.07Z" style="fill:#263238"></path><path d="M97,206.61l2.67-1.86a1.56,1.56,0,0,1-.34,2.24A1.73,1.73,0,0,1,97,206.61Z" style="fill:#263238"></path><polygon points="105.09 207.19 105.05 217.25 110.31 215.9 105.09 207.19" style="fill:#f0997a"></polygon><path d="M101.35,227.67c-6.52-2.12-10.68-5.26-11.58-8.08a6.87,6.87,0,0,0,2.47,5.76c3,2.39,9,4.15,9,4.15Z" style="fill:#f0997a"></path><path d="M101.9,208.76c-.1-.8-.62.43-1.54.6s-1.91-.78-1.79,0a1.57,1.57,0,0,0,1.92,1.12A1.53,1.53,0,0,0,101.9,208.76Z" style="fill:#263238"></path><path d="M109.67,209.16c.19-.78.56.5,1.45.78s2-.55,1.78.23a1.58,1.58,0,0,1-2.05.88A1.53,1.53,0,0,1,109.67,209.16Z" style="fill:#263238"></path></g><g id="freepik--bottom--inject-10"><path d="M176,329.8a3.43,3.43,0,0,1-1.22,2.05,9.09,9.09,0,0,1-5.39,1.75,18.12,18.12,0,0,1-5.45-.33,10.27,10.27,0,0,1-4.79-2.51,22.85,22.85,0,0,1-2.63-3.46,10.94,10.94,0,0,0-2.23-2.52,13.48,13.48,0,0,0-1.28-.72c-.5-.31-1-.64-1.48-.94a12,12,0,0,1-3.58-2.53c-1.61-2-1.27-4.65-1.29-7,0-.58,0-1.16,0-1.75l-.15-.91c-.67-4.51-4.85-19-5.7-21.8l16.25-1.87c.14,5.43.65,16.75,1.15,20.55a18.19,18.19,0,0,0,1.05,4.5,24,24,0,0,0,4.54,6.61,40.87,40.87,0,0,0,3.87,3.69,13.36,13.36,0,0,0,2.12,1.35,43.08,43.08,0,0,1,4.37,2.42A3.92,3.92,0,0,1,176,329.8Z" style="fill:#ffbda7"></path><path d="M146.16,321.79a4.87,4.87,0,0,0,.27,1.64c.41.86,3.81,2.56,5.1,3.15a7.7,7.7,0,0,1,4,4,13.17,13.17,0,0,0,6.89,5.89,20.93,20.93,0,0,0,12.39.93c5.15-1.08,5.48-4.13,5.48-4.13s.19-2.88-1.11-3.3S146.16,321.79,146.16,321.79Z" style="fill:#263238"></path><path d="M146.48,310.57c-.57.05-.73.37-.64,1a29.68,29.68,0,0,1,.19,4.13c-.1,1.51-.58,4.33.13,6.13,2.82,2.7,7.13,3.28,9.28,6.11s4.19,6.36,11,7.52,11.88-1.14,13.08-3.1,0-3.75-4.4-6c-4.68-2.36-11-9.6-11-9.6a30.31,30.31,0,0,1-2.38-3.24,25,25,0,0,1-1.58-3.63,2.93,2.93,0,0,0-1.09-1.44,3,3,0,0,0-1.8-.18,12.81,12.81,0,0,0-2.88.52,4.43,4.43,0,0,0-2.34,1.68,19.51,19.51,0,0,1-1,1.86,2.55,2.55,0,0,1-2.55.87,3,3,0,0,1-1.89-1.62Z" style="fill:#37474f"></path><path d="M162,333.93a8.63,8.63,0,0,1,4.81-7.5c5-2.75,8.18-1.15,9.78-.07,1.9,1.28,4.63,4,3.08,6.08-1.69,2.24-4.45,3.36-9.66,3.57S162,333.93,162,333.93Z" style="fill:#fafafa"></path><path d="M154.57,318.29A.58.58,0,0,0,155,318c.56-.83,4.19-4,7.81-3.05.17-.42-.14-.84-.89-1.26-3.78-.23-7.23,2.71-7.9,3.7a.55.55,0,0,0,.17.78A.66.66,0,0,0,154.57,318.29Z" style="fill:#fafafa"></path><path d="M165,317.63a1.77,1.77,0,0,0-1.05-1.22,10.76,10.76,0,0,0-7.43,3.72.55.55,0,0,0,.17.78.66.66,0,0,0,.36.08.61.61,0,0,0,.46-.25C158,319.94,161.45,317,165,317.63Z" style="fill:#fafafa"></path><path d="M170.75,323.28a3.25,3.25,0,0,0-1.64-1.46c-3.72-.14-7.08,2.73-7.75,3.71a.56.56,0,0,0,.18.78.63.63,0,0,0,.35.09.59.59,0,0,0,.46-.26C162.94,325.27,167,321.84,170.75,323.28Z" style="fill:#fafafa"></path><path d="M159.45,323.7a.62.62,0,0,0,.46-.26c.55-.81,4.11-3.87,7.68-3.07a2,2,0,0,0-1.24-1.26,10.76,10.76,0,0,0-7.43,3.72.55.55,0,0,0,.18.78A.63.63,0,0,0,159.45,323.7Z" style="fill:#fafafa"></path><path d="M97.13,297.29c6.65,10.65,20.78,11.18,29.18,6.54,14.9-8.22,25.88-44.19,24.24-52.86s-11.21-13.5-25.59.42c-7.73,7.47-11.88,15.1-17.4,25.14-2.53,1.14-11.06,6.82-13.07,13.06A22.69,22.69,0,0,0,97.13,297.29Z" style="fill:#37474f"></path><path d="M136.74,253.85c-2.71,3.16-9.5,18.45-10.3,27.82-.23,2.64-4.11,12.4-7.73,16.44-6.38,7.13-15.82,5.16-19.2,2.26,7.1,7.71,19.35,7.57,26.8,3.46,9.65-5.32,17.74-23.15,21.81-37.42Z" style="fill:#263238"></path><path d="M144.45,243.12c4.74,1.29,9.42,6.89,11.07,23.93,1.5,15.48,2.1,24.22,2.1,24.22a22.79,22.79,0,0,1-15.31,3.33s-2-5.67-4.37-14-4.21-16.79-1.88-24.8A26.92,26.92,0,0,1,144.45,243.12Z" style="fill:#37474f"></path><path d="M158.86,338.56a3.42,3.42,0,0,1-1.22,2.05,9,9,0,0,1-5.39,1.75,18.12,18.12,0,0,1-5.45-.33,10.16,10.16,0,0,1-4.8-2.51,22.79,22.79,0,0,1-2.62-3.46,11.13,11.13,0,0,0-2.23-2.51,11.68,11.68,0,0,0-1.28-.73c-.5-.3-1-.64-1.49-.93a12.49,12.49,0,0,1-3.57-2.53c-1.61-2-1.27-4.66-1.29-7,0-.59,0-1.17,0-1.75l-.16-.92c-.66-4.51-4.85-19-5.69-21.8L139.93,296c.13,5.44.65,16.76,1.15,20.55a17.83,17.83,0,0,0,1,4.51,23.88,23.88,0,0,0,4.54,6.61,39.6,39.6,0,0,0,3.87,3.68,12.92,12.92,0,0,0,2.12,1.35A42.92,42.92,0,0,1,157,335.1,3.91,3.91,0,0,1,158.86,338.56Z" style="fill:#ffbda7"></path><path d="M129,330.56a4.83,4.83,0,0,0,.27,1.63c.41.86,3.81,2.57,5.1,3.16a7.59,7.59,0,0,1,4,4,13.19,13.19,0,0,0,6.9,5.89,20.85,20.85,0,0,0,12.39.93c5.14-1.07,5.48-4.13,5.48-4.13s.19-2.88-1.11-3.29S129,330.56,129,330.56Z" style="fill:#263238"></path><path d="M129.31,319.33c-.57.05-.74.37-.64,1a29.76,29.76,0,0,1,.19,4.14c-.1,1.5-.58,4.32.13,6.13,2.81,2.7,7.12,3.28,9.28,6.1s4.18,6.37,11,7.52,11.89-1.14,13.09-3.1,0-3.75-4.4-6c-4.68-2.36-10.95-9.59-10.95-9.6a31.32,31.32,0,0,1-2.39-3.23,28.16,28.16,0,0,1-1.58-3.64A3,3,0,0,0,142,317.2a3,3,0,0,0-1.8-.18,12.81,12.81,0,0,0-2.88.52,4.39,4.39,0,0,0-2.34,1.68,21,21,0,0,1-1,1.87,2.55,2.55,0,0,1-2.55.86,3,3,0,0,1-1.89-1.62Z" style="fill:#37474f"></path><path d="M144.83,342.69a8.61,8.61,0,0,1,4.81-7.49c5-2.76,8.18-1.16,9.77-.08,1.9,1.29,4.64,4,3.08,6.08-1.68,2.25-4.44,3.37-9.65,3.57S144.83,342.69,144.83,342.69Z" style="fill:#fafafa"></path><path d="M137.39,327.06a.58.58,0,0,0,.46-.26c.56-.82,4.19-3.95,7.8-3.05.18-.42-.14-.84-.89-1.26-3.77-.23-7.22,2.71-7.89,3.7a.55.55,0,0,0,.17.78A.63.63,0,0,0,137.39,327.06Z" style="fill:#fafafa"></path><path d="M147.79,326.39a1.81,1.81,0,0,0-1-1.22,10.74,10.74,0,0,0-7.43,3.72.55.55,0,0,0,.17.78.59.59,0,0,0,.36.09.56.56,0,0,0,.45-.26C140.84,328.7,144.28,325.74,147.79,326.39Z" style="fill:#fafafa"></path><path d="M153.58,332.05a3.21,3.21,0,0,0-1.64-1.46c-3.72-.15-7.09,2.73-7.75,3.71a.54.54,0,0,0,.17.77.59.59,0,0,0,.36.09.61.61,0,0,0,.46-.25C145.77,334,149.78,330.61,153.58,332.05Z" style="fill:#fafafa"></path><path d="M142.28,332.46a.59.59,0,0,0,.46-.26c.55-.81,4.1-3.87,7.68-3.07a2,2,0,0,0-1.24-1.26,10.7,10.7,0,0,0-7.43,3.73.54.54,0,0,0,.17.77A.59.59,0,0,0,142.28,332.46Z" style="fill:#fafafa"></path><path d="M78.2,307.18c11.36,9.37,22.53,10.05,30.94,5.41,14.89-8.22,26.11-46.28,24.46-54.95s-10.83-10.57-25.22,3.35c-7.72,7.47-13.65,15-20.52,25.45-2.54,1.14-12.8,8.5-14.8,14.75A34.93,34.93,0,0,0,78.2,307.18Z" style="fill:#455a64"></path><path d="M119.56,262.61c-2.7,3.16-4.82,20.51-4.63,29.92.17,8-3,15-12.54,18.26a28.17,28.17,0,0,1-20.62-1c9.37,6.84,19.92,6.86,27.37,2.75,9.64-5.32,17.74-23.15,21.8-37.41Z" style="fill:#37474f"></path><path d="M128.25,251.06c4.73,1.28,9.69,6.93,10.57,22.23.89,15.52,1.63,26.74,1.63,26.74a22.79,22.79,0,0,1-15.31,3.33s-2-5.67-4.37-14-4.21-16.79-1.89-24.81S128.25,251.06,128.25,251.06Z" style="fill:#455a64"></path></g><g id="freepik--Arms--inject-10"><path d="M145.69,259l-.8.21a1.81,1.81,0,0,0-1.15.71,1.24,1.24,0,0,0,.1,1.23,2.82,2.82,0,0,0,1,.84,3.38,3.38,0,0,1,.79.55c.64.66.57,1.81,1.25,2.43.49.46,1.24.49,1.82.83a1.08,1.08,0,0,1,.36.31c.31.47-.05,1.11.1,1.66a1.35,1.35,0,0,0,.7.77c.31.17.66.27,1,.42a11.1,11.1,0,0,1,1.27.83,2.69,2.69,0,0,0,1.15.3,4.21,4.21,0,0,0,3.82-1.55,8.73,8.73,0,0,0,1.23-4.22,14.47,14.47,0,0,0-.29-3.89,22.3,22.3,0,0,0-2.52-6.69,25.51,25.51,0,0,0-2.05-2.95c-.76-1-1.53-1.89-2.28-1.59a16,16,0,0,1,.71,1.44c.67,1.64,1,2.71,1.46,4s.36,1.63-.86,2.31a17.19,17.19,0,0,1-4.26,1.41c-.48.12-.95.31-1.43.39S146.05,258.9,145.69,259Z" style="fill:#ffbda7"></path><path d="M148,258.43a11.6,11.6,0,0,1-1.25.34c-.36.06-.71.13-1.07.21l-.41.11a3.7,3.7,0,0,0-.33.21l-.3.2-1,.66a1.34,1.34,0,0,0,.19,1,2.82,2.82,0,0,0,1,.84,3.38,3.38,0,0,1,.79.55c.64.66.57,1.81,1.25,2.43a1.76,1.76,0,0,0,.56.33,2.92,2.92,0,0,0-.06-1.63,4,4,0,0,1-.38-1.19,3.16,3.16,0,0,1,.5-1.27c.24-.41.48-.82.74-1.21a2.05,2.05,0,0,0,.35-.73.71.71,0,0,0-.25-.72A1.06,1.06,0,0,0,148,258.43Z" style="fill:#f0997a"></path><path d="M76.65,232c-7.68,1.44-10.78,6.45-10.18,13.89S79.7,279,82.93,283.26s3.39,7.05,11.84,4.74c12.3-3.35,18.32-6.42,23.45-8s6-1.93,10.78-2.32a34.57,34.57,0,0,0,9.11-1.86,16.17,16.17,0,0,0,3.84-1.9,4.63,4.63,0,0,0,1.31-1.37,9.75,9.75,0,0,0,.51-1.78,2,2,0,0,0,1.3-1.14,4.71,4.71,0,0,0,.36-1.74,1.79,1.79,0,0,1,.1-.66,2.53,2.53,0,0,1,.52-.66,3.07,3.07,0,0,0,.62-2.95,3.78,3.78,0,0,1-.39-1.19,3.08,3.08,0,0,1,.51-1.26c.23-.42.48-.82.73-1.22a2.26,2.26,0,0,0,.36-.73.71.71,0,0,0-.26-.72.91.91,0,0,0-.33-.1,4.47,4.47,0,0,0-3,.87l-.3.2c-.61.43-3.11,2-3.8,2.35a27.2,27.2,0,0,1-5.87,1.81c-.57.13-1.83.42-2.25-.17s0-1.57.26-2.06c.53-1.13,1.29-2.14,1.81-3.27a4.21,4.21,0,0,0,.2-3.61.76.76,0,0,0-.2-.27c-.34-.26-.8.11-1.08.43a14,14,0,0,1-2.16,2,50.44,50.44,0,0,0-4.31,3,26.48,26.48,0,0,0-2.94,3.56c-2.37,3.06-6.15,4.78-9.9,5.5-9,1.72-18.71,4-18.71,4L86.07,249S82.65,235.11,76.65,232Z" style="fill:#ffbda7"></path></g></g><g id="freepik--Clouds--inject-10"><path d="M72.09,135.91h4.12a17.29,17.29,0,0,1,33-3.87h4.13a10.81,10.81,0,0,1,10.8,10.8v2.39h2.24a5.77,5.77,0,1,1,0,11.54H72.09a10.43,10.43,0,1,1,0-20.86Z" style="fill:#37474f"></path><path d="M35.38,164.18h2.53a10.63,10.63,0,0,1,20.3-2.38h2.54a6.64,6.64,0,0,1,6.64,6.64v1.47h1.37a3.55,3.55,0,1,1,0,7.09H35.38a6.41,6.41,0,1,1,0-12.82Z" style="fill:#455a64"></path><polygon points="90.3 138.19 98.38 138.19 91.84 148.37 96.56 148.37 84.66 163.08 89.02 152.09 84.21 152.09 90.3 138.19" style="fill:#E76F51"></polygon><polygon points="90.3 138.19 98.38 138.19 91.84 148.37 96.56 148.37 84.66 163.08 89.02 152.09 84.21 152.09 90.3 138.19" style="fill:#fff;opacity:0.4"></polygon><polygon points="102.09 151.97 108.65 151.97 103.34 160.23 107.18 160.23 97.51 172.18 101.05 163.26 97.14 163.26 102.09 151.97" style="fill:#E76F51"></polygon><polygon points="102.09 151.97 108.65 151.97 103.34 160.23 107.18 160.23 97.51 172.18 101.05 163.26 97.14 163.26 102.09 151.97" style="fill:#fff;opacity:0.4"></polygon><polygon points="45.54 172.04 52.11 172.04 46.8 180.3 50.63 180.3 40.97 192.25 44.51 183.33 40.6 183.33 45.54 172.04" style="fill:#E76F51"></polygon><polygon points="45.54 172.04 52.11 172.04 46.8 180.3 50.63 180.3 40.97 192.25 44.51 183.33 40.6 183.33 45.54 172.04" style="fill:#fff;opacity:0.4"></polygon></g></g></svg>